<?xml version="1.0" encoding="UTF-8" standalone="no"?> <svg xmlns:inkscape="http://www.inkscape.org/namespaces/inkscape" xmlns:sodipodi="http://sodipodi.sourceforge.net/DTD/sodipodi-0.dtd" xmlns="http://www.w3.org/2000/svg" xmlns:svg="http://www.w3.org/2000/svg" xmlns:rdf="http://www.w3.org/1999/02/22-rdf-syntax-ns#" xmlns:cc="http://creativecommons.org/ns#" xmlns:dc="http://purl.org/dc/elements/1.1/" viewBox="0 0 99.999999 99.999999" height="100" width="100" xml:space="preserve" id="svg2" version="1.1" sodipodi:docname="Arctic-Strings.svg" inkscape:version="1.2.1 (9c6d41e410, 2022-07-14)"><metadata id="metadata8"></metadata><defs id="defs6"><clipPath id="clipPath60"><path id="path58" d="M 127.559,283.465 283.464,127.559 439.37,283.465 283.464,439.37 Z"></path></clipPath></defs><path id="path16" style="fill:#4d4951;fill-opacity:1;fill-rule:nonzero;stroke:none;stroke-width:0.320706" d="M 0,49.99984 49.99984,100 100,49.99984 49.99984,0 Z"></path><path id="path20" style="fill:#3d3941;fill-opacity:1;fill-rule:nonzero;stroke:none;stroke-width:0.320706" d="m 18.333315,53.844477 h 2.41e-4 z"></path><path id="path24" style="fill:#3d3941;fill-opacity:1;fill-rule:nonzero;stroke:none;stroke-width:0.320706" d="M 18.333604,53.844477 57.244676,92.755549 88.918669,61.081553 81.666841,53.844477 Z"></path><path id="path28" style="fill:#ffffff;fill-opacity:1;fill-rule:nonzero;stroke:none;stroke-width:0.320706" d="m 45.466579,53.844477 4.536722,31.765075 4.536725,-31.765075 z"></path><path id="path32" style="fill:#ffffff;fill-opacity:1;fill-rule:nonzero;stroke:none;stroke-width:0.320706" d="M 36.390408,53.844477 40.92713,76.471966 45.463854,53.844477 Z"></path><path id="path36" style="fill:#ffffff;fill-opacity:1;fill-rule:nonzero;stroke:none;stroke-width:0.320706" d="m 27.39823,53.844477 4.537044,13.598942 4.455262,-13.598942 z"></path><path id="path40" style="fill:#ffffff;fill-opacity:1;fill-rule:nonzero;stroke:none;stroke-width:0.320706" d="m 18.333315,53.844477 4.581302,4.593809 4.492464,-4.593809 z"></path><path id="path44" style="fill:#ffffff;fill-opacity:1;fill-rule:nonzero;stroke:none;stroke-width:0.320706" d="M 54.540153,53.844477 59.076875,76.5871 63.613919,53.844477 Z"></path><path id="path48" style="fill:#ffffff;fill-opacity:1;fill-rule:nonzero;stroke:none;stroke-width:0.320706" d="m 63.614015,53.844477 4.451416,13.837228 4.536722,-13.837228 z"></path><path id="path52" style="fill:#ffffff;fill-opacity:1;fill-rule:nonzero;stroke:none;stroke-width:0.320706" d="m 72.592916,53.844477 4.537044,4.639349 4.536722,-4.639349 z"></path><g clip-path="url(#clipPath60)" id="g56" transform="matrix(0.32070709,0,0,-0.32070709,-40.909013,140.90904)"><g transform="translate(267.7864,283.2787)" id="g62"><path id="path64" style="fill:#73ffd0;fill-opacity:1;fill-rule:nonzero;stroke:none" d="m 0,0 c -1.155,7.93 -1.759,15.858 -2.169,23.793 -0.444,7.931 -0.61,15.858 -0.62,23.794 0.002,7.93 0.169,15.857 0.611,23.793 C -1.768,79.31 -1.162,87.238 0,95.173 1.162,87.243 1.768,79.315 2.178,71.38 2.62,63.45 2.787,55.522 2.789,47.587 2.779,39.658 2.613,31.729 2.169,23.793 1.759,15.864 1.156,7.935 0,0"></path></g><g transform="translate(252.0954,283.2787)" id="g66"><path id="path68" style="fill:#73ffd0;fill-opacity:1;fill-rule:nonzero;stroke:none" d="m 0,0 c -1.162,6.681 -1.741,13.365 -2.187,20.047 -0.409,6.681 -0.6,13.365 -0.602,20.047 -0.005,6.681 0.186,13.365 0.594,20.047 C -1.753,66.822 -1.169,73.506 0,80.188 1.169,73.507 1.753,66.824 2.195,60.141 2.603,53.46 2.794,46.777 2.789,40.094 2.787,33.413 2.596,26.729 2.187,20.047 1.741,13.366 1.162,6.682 0,0"></path></g><g transform="translate(236.3911,283.2787)" id="g70"><path id="path72" style="fill:#73ffd0;fill-opacity:1;fill-rule:nonzero;stroke:none" d="m 0,0 c -1.155,5.335 -1.754,10.67 -2.187,16.01 -0.409,5.334 -0.6,10.67 -0.602,16.01 -0.005,5.335 0.186,10.67 0.594,16.009 C -1.764,53.365 -1.162,58.7 0,64.039 1.162,58.705 1.764,53.37 2.195,48.029 2.603,42.695 2.794,37.36 2.789,32.02 2.787,26.685 2.596,21.349 2.187,16.01 1.754,10.675 1.156,5.34 0,0"></path></g><g transform="translate(220.978,283.2787)" id="g74"><path id="path76" style="fill:#73ffd0;fill-opacity:1;fill-rule:nonzero;stroke:none" d="m 0,0 c -1.156,4.061 -1.754,8.124 -2.187,12.185 -0.409,4.063 -0.6,8.124 -0.602,12.185 -0.005,4.063 0.186,8.124 0.594,12.187 C -1.764,40.618 -1.162,44.681 0,48.742 1.162,44.681 1.764,40.618 2.195,36.557 2.603,32.494 2.794,28.433 2.789,24.37 2.787,20.309 2.596,16.248 2.187,12.185 1.754,8.124 1.155,4.061 0,0"></path></g><g transform="translate(205.5251,283.2787)" id="g78"><path id="path80" style="fill:#73ffd0;fill-opacity:1;fill-rule:nonzero;stroke:none" d="m 0,0 c -1.157,2.774 -1.755,5.548 -2.187,8.323 -0.409,2.773 -0.6,5.547 -0.602,8.321 -0.005,2.774 0.186,5.548 0.594,8.321 0.431,2.774 1.032,5.549 2.195,8.323 C 1.163,30.514 1.764,27.739 2.195,24.965 2.603,22.192 2.794,19.418 2.789,16.644 2.787,13.87 2.596,11.096 2.187,8.323 1.755,5.548 1.157,2.774 0,0"></path></g><g transform="translate(189.5959,283.2787)" id="g82"><path id="path84" style="fill:#73ffd0;fill-opacity:1;fill-rule:nonzero;stroke:none" d="m 0,0 c -1.155,1.447 -1.754,2.892 -2.187,4.338 -0.407,1.446 -0.602,2.892 -0.604,4.339 -0.003,1.447 0.188,2.892 0.596,4.338 0.431,1.446 1.033,2.892 2.195,4.338 C 1.162,15.907 1.764,14.461 2.195,13.015 2.603,11.569 2.794,10.124 2.791,8.677 2.789,7.23 2.594,5.784 2.187,4.338 1.754,2.892 1.155,1.447 0,0"></path></g><g transform="translate(299.5786,283.2787)" id="g86"><path id="path88" style="fill:#73ffd0;fill-opacity:1;fill-rule:nonzero;stroke:none" d="m 0,0 c -1.155,7.93 -1.759,15.858 -2.169,23.793 -0.444,7.931 -0.61,15.858 -0.62,23.794 0.002,7.93 0.169,15.857 0.611,23.793 C -1.768,79.31 -1.162,87.238 0,95.173 1.162,87.243 1.768,79.315 2.178,71.38 2.62,63.45 2.787,55.522 2.789,47.587 2.779,39.658 2.613,31.729 2.169,23.793 1.759,15.864 1.156,7.935 0,0"></path></g><g transform="translate(331.0664,283.2787)" id="g90"><path id="path92" style="fill:#73ffd0;fill-opacity:1;fill-rule:nonzero;stroke:none" d="m 0,0 c -1.155,5.335 -1.754,10.67 -2.187,16.01 -0.409,5.334 -0.6,10.67 -0.602,16.01 -0.005,5.335 0.186,10.67 0.594,16.009 C -1.764,53.365 -1.162,58.7 0,64.039 1.162,58.705 1.764,53.37 2.195,48.029 2.603,42.695 2.794,37.36 2.789,32.02 2.787,26.685 2.596,21.349 2.187,16.01 1.754,10.675 1.155,5.34 0,0"></path></g><g transform="translate(346.4135,283.2787)" id="g94"><path id="path96" style="fill:#73ffd0;fill-opacity:1;fill-rule:nonzero;stroke:none" d="m 0,0 c -1.155,4.061 -1.754,8.124 -2.187,12.185 -0.409,4.063 -0.6,8.124 -0.602,12.185 -0.005,4.063 0.186,8.124 0.594,12.187 C -1.764,40.618 -1.162,44.681 0,48.742 1.162,44.681 1.764,40.618 2.195,36.557 2.603,32.494 2.794,28.433 2.789,24.37 2.787,20.309 2.596,16.248 2.187,12.185 1.754,8.124 1.156,4.061 0,0"></path></g><g transform="translate(361.8928,283.2787)" id="g98"><path id="path100" style="fill:#73ffd0;fill-opacity:1;fill-rule:nonzero;stroke:none" d="m 0,0 c -1.157,2.774 -1.755,5.548 -2.187,8.323 -0.409,2.773 -0.6,5.547 -0.602,8.321 -0.005,2.774 0.186,5.548 0.594,8.321 0.431,2.774 1.032,5.549 2.195,8.323 C 1.163,30.514 1.764,27.739 2.195,24.965 2.603,22.192 2.794,19.418 2.789,16.644 2.787,13.87 2.596,11.096 2.187,8.323 1.755,5.548 1.157,2.774 0,0"></path></g><g transform="translate(377.1075,283.9402)" id="g102"><path id="path104" style="fill:#73ffd0;fill-opacity:1;fill-rule:nonzero;stroke:none" d="m 0,0 c -1.157,1.597 -1.755,3.194 -2.187,4.793 -0.409,1.597 -0.6,3.195 -0.602,4.793 -0.005,1.597 0.186,3.194 0.594,4.791 C -1.764,15.976 -1.163,17.573 0,19.17 1.163,17.573 1.764,15.976 2.195,14.377 2.603,12.78 2.794,11.183 2.789,9.586 2.787,7.988 2.596,6.39 2.187,4.793 1.755,3.194 1.157,1.597 0,0"></path></g><g transform="translate(283.7023,283.2787)" id="g106"><path id="path108" style="fill:#73ffd0;fill-opacity:1;fill-rule:nonzero;stroke:none" d="m 0,0 c -1.155,9.269 -1.759,18.541 -2.169,27.805 -0.444,9.269 -0.61,18.541 -0.62,27.805 0.002,9.271 0.169,18.541 0.611,27.806 0.41,9.269 1.016,18.541 2.178,27.805 C 1.162,101.95 1.768,92.68 2.178,83.416 2.62,74.145 2.787,64.875 2.789,55.61 2.779,46.341 2.613,37.069 2.169,27.805 1.759,18.536 1.155,9.264 0,0"></path></g><g transform="translate(315.3225,283.2787)" id="g110"><path id="path112" style="fill:#73ffd0;fill-opacity:1;fill-rule:nonzero;stroke:none" d="m 0,0 c -1.162,6.681 -1.741,13.365 -2.187,20.047 -0.409,6.681 -0.6,13.365 -0.602,20.047 -0.005,6.681 0.186,13.365 0.594,20.047 C -1.753,66.822 -1.169,73.506 0,80.188 1.169,73.507 1.753,66.824 2.195,60.141 2.603,53.46 2.794,46.777 2.789,40.094 2.787,33.413 2.596,26.729 2.187,20.047 1.741,13.366 1.162,6.682 0,0"></path></g></g></svg> 