<?xml version="1.0" encoding="UTF-8" standalone="no"?> <svg xmlns:inkscape="http://www.inkscape.org/namespaces/inkscape" xmlns:sodipodi="http://sodipodi.sourceforge.net/DTD/sodipodi-0.dtd" xmlns="http://www.w3.org/2000/svg" xmlns:svg="http://www.w3.org/2000/svg" version="1.1" id="svg319" width="100" height="100" viewBox="0 0 99.999998 99.999999" sodipodi:docname="Arctic Strings.svg" inkscape:version="1.2.1 (9c6d41e410, 2022-07-14)"><defs id="defs323"><clipPath id="clipPath337"><path d="m 148.819,283.465 c 0,-74.245 60.401,-134.646 134.646,-134.646 v 0 c 74.244,0 134.645,60.401 134.645,134.646 v 0 c 0,74.244 -60.401,134.645 -134.645,134.645 v 0 c -74.245,0 -134.646,-60.401 -134.646,-134.645" id="path335"></path></clipPath></defs><g id="g327" inkscape:groupmode="layer" inkscape:label="Page 1" transform="matrix(1.3333333,0,0,-1.3333333,-198.42533,557.47985)"><g id="g331" transform="matrix(0.27850914,0,0,0.27850914,107.37155,301.66247)"><g id="g333" clip-path="url(#clipPath337)"><g id="g339" transform="translate(283.4646,148.8189)"><path d="m 0,0 c -74.244,0 -134.646,60.402 -134.646,134.646 0,74.244 60.402,134.645 134.646,134.645 74.244,0 134.646,-60.401 134.646,-134.645 C 134.646,60.402 74.244,0 0,0" style="fill:#4d4951;fill-opacity:1;fill-rule:nonzero;stroke:none" id="path341"></path></g><g id="g343" transform="translate(184.7244,271.477)"><path d="M 0,0 Z" style="fill:#3d3941;fill-opacity:1;fill-rule:nonzero;stroke:none" id="path345"></path></g><g id="g347" transform="translate(473.5378,180.3305)"><path d="m 0,0 -91.333,91.146 h -197.48 L -98.974,-98.693 Z" style="fill:#3d3941;fill-opacity:1;fill-rule:nonzero;stroke:none" id="path349"></path></g><g id="g351" transform="translate(297.6211,271.4774)"><path d="M 0,0 -14.146,-99.048 -28.293,0 Z" style="fill:#ffffff;fill-opacity:1;fill-rule:nonzero;stroke:none" id="path353"></path></g><g id="g355" transform="translate(269.3207,271.4774)"><path d="M 0,0 -14.146,-70.556 -28.293,0 Z" style="fill:#ffffff;fill-opacity:1;fill-rule:nonzero;stroke:none" id="path357"></path></g><g id="g359" transform="translate(241.0278,271.4774)"><path d="M 0,0 -13.892,-42.403 -28.038,0 Z" style="fill:#ffffff;fill-opacity:1;fill-rule:nonzero;stroke:none" id="path361"></path></g><g id="g363" transform="translate(213.0173,271.4774)"><path d="M 0,0 -14.008,-14.324 -28.293,0 Z" style="fill:#ffffff;fill-opacity:1;fill-rule:nonzero;stroke:none" id="path365"></path></g><g id="g367" transform="translate(297.6211,271.4774)"><path d="M 0,0 14.146,-70.915 28.293,0 Z" style="fill:#ffffff;fill-opacity:1;fill-rule:nonzero;stroke:none" id="path369"></path></g><g id="g371" transform="translate(325.914,271.4774)"><path d="M 0,0 13.88,-43.147 28.026,0 Z" style="fill:#ffffff;fill-opacity:1;fill-rule:nonzero;stroke:none" id="path373"></path></g><g id="g375" transform="translate(353.9119,271.4774)"><path d="M 0,0 14.146,-14.466 28.293,0 Z" style="fill:#ffffff;fill-opacity:1;fill-rule:nonzero;stroke:none" id="path377"></path></g><g id="g379" transform="translate(267.7864,283.2787)"><path d="m 0,0 c -1.155,7.93 -1.759,15.858 -2.169,23.793 -0.444,7.931 -0.61,15.858 -0.62,23.794 0.002,7.93 0.169,15.857 0.611,23.793 C -1.768,79.31 -1.162,87.238 0,95.173 1.162,87.243 1.768,79.315 2.178,71.38 2.62,63.45 2.787,55.522 2.789,47.587 2.779,39.658 2.613,31.729 2.169,23.793 1.759,15.864 1.156,7.935 0,0" style="fill:#73ffd0;fill-opacity:1;fill-rule:nonzero;stroke:none" id="path381"></path></g><g id="g383" transform="translate(252.0954,283.2787)"><path d="m 0,0 c -1.162,6.681 -1.741,13.365 -2.187,20.047 -0.409,6.681 -0.6,13.365 -0.602,20.047 -0.005,6.681 0.186,13.365 0.594,20.047 C -1.753,66.822 -1.169,73.506 0,80.188 1.169,73.507 1.753,66.824 2.195,60.141 2.603,53.46 2.794,46.777 2.789,40.094 2.787,33.413 2.596,26.729 2.187,20.047 1.741,13.366 1.162,6.682 0,0" style="fill:#73ffd0;fill-opacity:1;fill-rule:nonzero;stroke:none" id="path385"></path></g><g id="g387" transform="translate(236.3911,283.2787)"><path d="m 0,0 c -1.155,5.335 -1.754,10.67 -2.187,16.01 -0.409,5.334 -0.6,10.67 -0.602,16.01 -0.005,5.335 0.186,10.67 0.594,16.009 C -1.764,53.365 -1.162,58.7 0,64.039 1.162,58.705 1.764,53.37 2.195,48.029 2.603,42.695 2.794,37.36 2.789,32.02 2.787,26.685 2.596,21.349 2.187,16.01 1.754,10.675 1.156,5.34 0,0" style="fill:#73ffd0;fill-opacity:1;fill-rule:nonzero;stroke:none" id="path389"></path></g><g id="g391" transform="translate(220.978,283.2787)"><path d="m 0,0 c -1.156,4.061 -1.754,8.124 -2.187,12.185 -0.409,4.063 -0.6,8.124 -0.602,12.185 -0.005,4.063 0.186,8.124 0.594,12.187 C -1.764,40.618 -1.162,44.681 0,48.742 1.162,44.681 1.764,40.618 2.195,36.557 2.603,32.494 2.794,28.433 2.789,24.37 2.787,20.309 2.596,16.248 2.187,12.185 1.754,8.124 1.155,4.061 0,0" style="fill:#73ffd0;fill-opacity:1;fill-rule:nonzero;stroke:none" id="path393"></path></g><g id="g395" transform="translate(205.5251,283.2787)"><path d="m 0,0 c -1.157,2.774 -1.755,5.548 -2.187,8.323 -0.409,2.773 -0.6,5.547 -0.602,8.321 -0.005,2.774 0.186,5.548 0.594,8.321 0.431,2.774 1.032,5.549 2.195,8.323 C 1.163,30.514 1.764,27.739 2.195,24.965 2.603,22.192 2.794,19.418 2.789,16.644 2.787,13.87 2.596,11.096 2.187,8.323 1.755,5.548 1.157,2.774 0,0" style="fill:#73ffd0;fill-opacity:1;fill-rule:nonzero;stroke:none" id="path397"></path></g><g id="g399" transform="translate(189.5959,283.2787)"><path d="m 0,0 c -1.155,1.447 -1.754,2.892 -2.187,4.338 -0.407,1.446 -0.602,2.892 -0.604,4.339 -0.003,1.447 0.188,2.892 0.596,4.338 0.431,1.446 1.033,2.892 2.195,4.338 C 1.162,15.907 1.764,14.461 2.195,13.015 2.603,11.569 2.794,10.124 2.791,8.677 2.789,7.23 2.594,5.784 2.187,4.338 1.754,2.892 1.155,1.447 0,0" style="fill:#73ffd0;fill-opacity:1;fill-rule:nonzero;stroke:none" id="path401"></path></g><g id="g403" transform="translate(299.5786,283.2787)"><path d="m 0,0 c -1.155,7.93 -1.759,15.858 -2.169,23.793 -0.444,7.931 -0.61,15.858 -0.62,23.794 0.002,7.93 0.169,15.857 0.611,23.793 C -1.768,79.31 -1.162,87.238 0,95.173 1.162,87.243 1.768,79.315 2.178,71.38 2.62,63.45 2.787,55.522 2.789,47.587 2.779,39.658 2.613,31.729 2.169,23.793 1.759,15.864 1.156,7.935 0,0" style="fill:#73ffd0;fill-opacity:1;fill-rule:nonzero;stroke:none" id="path405"></path></g><g id="g407" transform="translate(331.0664,283.2787)"><path d="m 0,0 c -1.155,5.335 -1.754,10.67 -2.187,16.01 -0.409,5.334 -0.6,10.67 -0.602,16.01 -0.005,5.335 0.186,10.67 0.594,16.009 C -1.764,53.365 -1.162,58.7 0,64.039 1.162,58.705 1.764,53.37 2.195,48.029 2.603,42.695 2.794,37.36 2.789,32.02 2.787,26.685 2.596,21.349 2.187,16.01 1.754,10.675 1.155,5.34 0,0" style="fill:#73ffd0;fill-opacity:1;fill-rule:nonzero;stroke:none" id="path409"></path></g><g id="g411" transform="translate(346.4135,283.2787)"><path d="m 0,0 c -1.155,4.061 -1.754,8.124 -2.187,12.185 -0.409,4.063 -0.6,8.124 -0.602,12.185 -0.005,4.063 0.186,8.124 0.594,12.187 C -1.764,40.618 -1.162,44.681 0,48.742 1.162,44.681 1.764,40.618 2.195,36.557 2.603,32.494 2.794,28.433 2.789,24.37 2.787,20.309 2.596,16.248 2.187,12.185 1.754,8.124 1.156,4.061 0,0" style="fill:#73ffd0;fill-opacity:1;fill-rule:nonzero;stroke:none" id="path413"></path></g><g id="g415" transform="translate(361.8928,283.2787)"><path d="m 0,0 c -1.157,2.774 -1.755,5.548 -2.187,8.323 -0.409,2.773 -0.6,5.547 -0.602,8.321 -0.005,2.774 0.186,5.548 0.594,8.321 0.431,2.774 1.032,5.549 2.195,8.323 C 1.163,30.514 1.764,27.739 2.195,24.965 2.603,22.192 2.794,19.418 2.789,16.644 2.787,13.87 2.596,11.096 2.187,8.323 1.755,5.548 1.157,2.774 0,0" style="fill:#73ffd0;fill-opacity:1;fill-rule:nonzero;stroke:none" id="path417"></path></g><g id="g419" transform="translate(377.1075,283.9402)"><path d="m 0,0 c -1.157,1.597 -1.755,3.194 -2.187,4.793 -0.409,1.597 -0.6,3.195 -0.602,4.793 -0.005,1.597 0.186,3.194 0.594,4.791 C -1.764,15.976 -1.163,17.573 0,19.17 1.163,17.573 1.764,15.976 2.195,14.377 2.603,12.78 2.794,11.183 2.789,9.586 2.787,7.988 2.596,6.39 2.187,4.793 1.755,3.194 1.157,1.597 0,0" style="fill:#73ffd0;fill-opacity:1;fill-rule:nonzero;stroke:none" id="path421"></path></g><g id="g423" transform="translate(283.7023,283.2787)"><path d="m 0,0 c -1.155,9.269 -1.759,18.541 -2.169,27.805 -0.444,9.269 -0.61,18.541 -0.62,27.805 0.002,9.271 0.169,18.541 0.611,27.806 0.41,9.269 1.016,18.541 2.178,27.805 C 1.162,101.95 1.768,92.68 2.178,83.416 2.62,74.145 2.787,64.875 2.789,55.61 2.779,46.341 2.613,37.069 2.169,27.805 1.759,18.536 1.155,9.264 0,0" style="fill:#73ffd0;fill-opacity:1;fill-rule:nonzero;stroke:none" id="path425"></path></g><g id="g427" transform="translate(315.3225,283.2787)"><path d="m 0,0 c -1.162,6.681 -1.741,13.365 -2.187,20.047 -0.409,6.681 -0.6,13.365 -0.602,20.047 -0.005,6.681 0.186,13.365 0.594,20.047 C -1.753,66.822 -1.169,73.506 0,80.188 1.169,73.507 1.753,66.824 2.195,60.141 2.603,53.46 2.794,46.777 2.789,40.094 2.787,33.413 2.596,26.729 2.187,20.047 1.741,13.366 1.162,6.682 0,0" style="fill:#73ffd0;fill-opacity:1;fill-rule:nonzero;stroke:none" id="path429"></path></g></g></g></g></svg> 