<?xml version="1.0" encoding="UTF-8" standalone="no"?> <svg xmlns:inkscape="http://www.inkscape.org/namespaces/inkscape" xmlns:sodipodi="http://sodipodi.sourceforge.net/DTD/sodipodi-0.dtd" xmlns="http://www.w3.org/2000/svg" xmlns:svg="http://www.w3.org/2000/svg" version="1.1" id="svg2" xml:space="preserve" width="100" height="100" viewBox="0 0 99.999999 99.999999" sodipodi:docname="Cinematic Atmosphere Toolkit.svg" inkscape:version="1.2.1 (9c6d41e410, 2022-07-14)"><defs id="defs6"><clipPath id="clipPath18"><path d="m 148.819,283.465 c 0,-74.245 60.402,-134.645 134.646,-134.645 v 0 c 74.244,0 134.645,60.4 134.645,134.645 v 0 c 0,74.244 -60.401,134.645 -134.645,134.645 v 0 c -74.244,0 -134.646,-60.401 -134.646,-134.645" id="path16"></path></clipPath></defs><g id="g8" inkscape:groupmode="layer" inkscape:label="Cinematic Atmosphere Toolkit" transform="matrix(1.3333333,0,0,-1.3333333,0,755.90533)"><g id="g12" transform="matrix(0.27850913,0,0,0.27851016,-41.44745,450.48113)"><g id="g14" clip-path="url(#clipPath18)"><g id="g20" transform="translate(283.465,148.8191)"><path d="m 0,0 c -74.244,0 -134.646,60.402 -134.646,134.646 0,74.243 60.402,134.645 134.646,134.645 74.244,0 134.645,-60.402 134.645,-134.645 C 134.645,60.402 74.244,0 0,0" style="fill:#d5d5d5;fill-opacity:1;fill-rule:nonzero;stroke:none" id="path22"></path></g><g id="g24" transform="translate(283.4615,283.3048)"><path d="M 0,0 52.992,52.992 106.142,-0.157 -0.157,-106.456 -106.456,-0.157 -53.307,52.992 Z" style="fill:#a3877b;fill-opacity:1;fill-rule:nonzero;stroke:none" id="path26"></path></g><g id="g28" transform="translate(283.4628,389.6061)"><path d="M 0,0 48.189,-48.189 0,-96.378 -48.189,-48.189 Z" style="fill:#543c38;fill-opacity:1;fill-rule:nonzero;stroke:none" id="path30"></path></g><g id="g32" transform="translate(230.3151,230.1576)"><path d="m 0,0 -4.242,4.242 53.148,53.149 4.242,-4.242 z" style="fill:#543c38;fill-opacity:1;fill-rule:nonzero;stroke:none" id="path34"></path></g><g id="g36" transform="translate(220.5367,239.9393)"><path d="m 0,0 -4.242,4.242 53.148,53.149 4.242,-4.242 z" style="fill:#543c38;fill-opacity:1;fill-rule:nonzero;stroke:none" id="path38"></path></g><g id="g40" transform="translate(210.7582,249.7209)"><path d="m 0,0 -4.242,4.242 53.148,53.149 4.242,-4.242 z" style="fill:#543c38;fill-opacity:1;fill-rule:nonzero;stroke:none" id="path42"></path></g><g id="g44" transform="translate(200.9798,259.5025)"><path d="m 0,0 -4.242,4.242 53.148,53.149 4.242,-4.242 z" style="fill:#543c38;fill-opacity:1;fill-rule:nonzero;stroke:none" id="path46"></path></g><g id="g48" transform="translate(191.2014,269.2842)"><path d="m 0,0 -4.242,4.242 53.148,53.149 4.242,-4.242 z" style="fill:#543c38;fill-opacity:1;fill-rule:nonzero;stroke:none" id="path50"></path></g><g id="g52" transform="translate(230.3133,336.4566)"><path d="M 0,0 53.15,-53.15 H -53.15 Z" style="fill:#cbbab1;fill-opacity:1;fill-rule:nonzero;stroke:none" id="path54"></path></g><g id="g56" transform="translate(283.4579,177.0081)"><path d="m 0,0 -4.242,4.242 53.148,53.149 4.242,-4.242 z" style="fill:#543c38;fill-opacity:1;fill-rule:nonzero;stroke:none" id="path58"></path></g><g id="g60" transform="translate(273.6795,186.7897)"><path d="m 0,0 -4.242,4.242 53.148,53.149 4.242,-4.242 z" style="fill:#543c38;fill-opacity:1;fill-rule:nonzero;stroke:none" id="path62"></path></g><g id="g64" transform="translate(263.901,196.5714)"><path d="m 0,0 -4.242,4.242 53.148,53.149 4.242,-4.242 z" style="fill:#543c38;fill-opacity:1;fill-rule:nonzero;stroke:none" id="path66"></path></g><g id="g68" transform="translate(254.1226,206.353)"><path d="m 0,0 -4.242,4.242 53.148,53.149 4.242,-4.242 z" style="fill:#543c38;fill-opacity:1;fill-rule:nonzero;stroke:none" id="path70"></path></g><g id="g72" transform="translate(244.3442,216.1347)"><path d="m 0,0 -4.242,4.242 53.148,53.149 4.242,-4.242 z" style="fill:#543c38;fill-opacity:1;fill-rule:nonzero;stroke:none" id="path74"></path></g><g id="g76" transform="translate(336.6141,230.1576)"><path d="m 0,0 -4.242,4.242 53.148,53.149 4.242,-4.242 z" style="fill:#543c38;fill-opacity:1;fill-rule:nonzero;stroke:none" id="path78"></path></g><g id="g80" transform="translate(326.8357,239.9393)"><path d="m 0,0 -4.242,4.242 53.148,53.149 4.242,-4.242 z" style="fill:#543c38;fill-opacity:1;fill-rule:nonzero;stroke:none" id="path82"></path></g><g id="g84" transform="translate(317.0573,249.7209)"><path d="m 0,0 -4.242,4.242 53.148,53.149 4.242,-4.242 z" style="fill:#543c38;fill-opacity:1;fill-rule:nonzero;stroke:none" id="path86"></path></g><g id="g88" transform="translate(307.2788,259.5025)"><path d="m 0,0 -4.242,4.242 53.148,53.149 4.242,-4.242 z" style="fill:#543c38;fill-opacity:1;fill-rule:nonzero;stroke:none" id="path90"></path></g><g id="g92" transform="translate(297.5004,269.2842)"><path d="m 0,0 -4.242,4.242 53.148,53.149 4.242,-4.242 z" style="fill:#543c38;fill-opacity:1;fill-rule:nonzero;stroke:none" id="path94"></path></g><g id="g96" transform="translate(283.4646,283.3071)"><path d="M 0,0 53.15,-53.15 H -53.15 Z" style="fill:#cbbab1;fill-opacity:1;fill-rule:nonzero;stroke:none" id="path98"></path></g><g id="g100" transform="translate(336.6123,336.4566)"><path d="M 0,0 53.15,-53.15 H -53.15 Z" style="fill:#cbbab1;fill-opacity:1;fill-rule:nonzero;stroke:none" id="path102"></path></g><g id="g104" transform="translate(389.7619,70.717)"><path d="M 0,0 -106.26,106.26 0,212.52 106.26,106.26 Z" style="fill:#b8b9b9;fill-opacity:1;fill-rule:nonzero;stroke:none" id="path106"></path></g></g></g></g></svg> 