<?xml version="1.0" encoding="UTF-8" standalone="no"?> <svg xmlns:inkscape="http://www.inkscape.org/namespaces/inkscape" xmlns:sodipodi="http://sodipodi.sourceforge.net/DTD/sodipodi-0.dtd" xmlns="http://www.w3.org/2000/svg" xmlns:svg="http://www.w3.org/2000/svg" xmlns:rdf="http://www.w3.org/1999/02/22-rdf-syntax-ns#" xmlns:cc="http://creativecommons.org/ns#" xmlns:dc="http://purl.org/dc/elements/1.1/" viewBox="0 0 99.999999 99.999999" height="100" width="100" xml:space="preserve" id="svg2" version="1.1" sodipodi:docname="The-Chordophones.svg" inkscape:version="1.2.1 (9c6d41e410, 2022-07-14)"><metadata id="metadata8"></metadata><defs id="defs6"><clipPath id="clipPath28"><path id="path26" d="M 127.559,283.465 283.464,127.559 439.37,283.465 283.464,439.37 Z"></path></clipPath></defs><g transform="matrix(0.3207071,0,0,-0.32070709,0,49.999841)" id="g14"><path id="path16" style="fill:#7e4312;fill-opacity:1;fill-rule:nonzero;stroke:none" d="M 0,0 155.905,-155.906 311.811,0 155.905,155.905 Z"></path></g><g transform="matrix(0.3207071,0,0,-0.32070709,32.714623,44.990845)" id="g18"><path id="path20" style="fill:#623313;fill-opacity:1;fill-rule:nonzero;stroke:none" d="M 0,0 -7.419,-55.679 80.941,-144.482 190.426,-34.996 115.246,38.83 99.257,32.998 32.45,41.045 Z"></path></g><g id="g22" transform="matrix(0.3207071,0,0,-0.32070709,-40.909013,140.90905)"><g clip-path="url(#clipPath28)" id="g24"><g transform="translate(221.948,305.2049)" id="g30"><path id="path32" style="fill:#7e4312;fill-opacity:1;fill-rule:nonzero;stroke:none" d="m 0,0 c -11.111,-7.048 -25.031,-11.279 -40.09,-11.279 -80.66,0 -80.66,109.63 0,109.63 15.202,0 29.276,-4.299 40.432,-11.464 0,0 22.041,-12.76 22.041,-43.351 C 22.383,14.802 0,0 0,0"></path></g><g transform="translate(314.6203,305.106)" id="g34"><path id="path36" style="fill:#ddc79c;fill-opacity:1;fill-rule:nonzero;stroke:none" d="m 0,0 v -4.809 h -70.937 c 0.625,1.634 1.346,3.271 2.165,4.809 z"></path></g><g transform="translate(314.6203,285.8689)" id="g38"><path id="path40" style="fill:#ddc79c;fill-opacity:1;fill-rule:nonzero;stroke:none" d="m 0,0 v -4.809 h -74.016 c -0.046,0.817 -0.046,1.587 -0.046,2.404 0,0.817 0,1.588 0.046,2.405 z"></path></g><g transform="translate(314.6203,266.6319)" id="g42"><path id="path44" style="fill:#ddc79c;fill-opacity:1;fill-rule:nonzero;stroke:none" d="m 0,0 v -4.809 h -68.772 c -0.819,1.538 -1.54,3.175 -2.165,4.809 z"></path></g><g transform="translate(348.189,236.3816)" id="g46"><path id="path48" style="fill:#ddc79c;fill-opacity:1;fill-rule:nonzero;stroke:none" d="m 0,0 c 0,-5.387 -4.328,-9.762 -9.619,-9.762 -3.992,0 -7.357,2.451 -8.801,5.916 -13.08,-7.311 -29.048,-11.592 -46.313,-11.592 -44.1,0 -79.834,27.989 -79.834,62.521 0,34.531 35.734,62.52 79.834,62.52 17.265,0 33.233,-4.281 46.313,-11.591 1.444,3.464 4.809,5.915 8.801,5.915 5.291,0 9.619,-4.374 9.619,-9.762 0,-5.386 -4.328,-9.763 -9.619,-9.763 -3.606,0 -5.098,1.54 -7.984,3.416 -10.483,6.733 -23.708,10.772 -37.993,10.772 -75.793,0 -75.793,-103.015 0,-103.015 14.151,0 27.231,3.976 37.671,10.599 3.079,1.951 4.645,3.59 8.306,3.59 C -4.328,9.764 0,5.387 0,0"></path></g><g transform="translate(320.9676,302.7014)" id="g50"><path id="path52" style="fill:#ddc79c;fill-opacity:1;fill-rule:nonzero;stroke:none" d="M 0,0 -6.051,-6.051 -12.103,0 -6.051,6.052 Z"></path></g><g transform="translate(321.0334,283.4643)" id="g54"><path id="path56" style="fill:#ddc79c;fill-opacity:1;fill-rule:nonzero;stroke:none" d="M 0,0 -6.051,-6.051 -12.103,0 -6.051,6.052 Z"></path></g><g transform="translate(321.2234,264.2273)" id="g58"><path id="path60" style="fill:#ddc79c;fill-opacity:1;fill-rule:nonzero;stroke:none" d="M 0,0 -6.052,-6.052 -12.103,0 -6.052,6.051 Z"></path></g><g transform="translate(228.9643,283.4643)" id="g62"><path id="path64" style="fill:#7e4312;fill-opacity:1;fill-rule:nonzero;stroke:none" d="M 0,0 -9.323,-9.323 -18.645,0 -9.323,9.323 Z"></path></g></g></g></svg> 