<?xml version="1.0" encoding="UTF-8" standalone="no"?> <svg xmlns:inkscape="http://www.inkscape.org/namespaces/inkscape" xmlns:sodipodi="http://sodipodi.sourceforge.net/DTD/sodipodi-0.dtd" xmlns="http://www.w3.org/2000/svg" xmlns:svg="http://www.w3.org/2000/svg" xmlns:rdf="http://www.w3.org/1999/02/22-rdf-syntax-ns#" xmlns:cc="http://creativecommons.org/ns#" xmlns:dc="http://purl.org/dc/elements/1.1/" viewBox="0 0 99.999999 99.999999" height="100" width="100" xml:space="preserve" id="svg2" version="1.1" sodipodi:docname="Colourform.svg" inkscape:version="1.2.1 (9c6d41e410, 2022-07-14)"><metadata id="metadata8"></metadata><defs id="defs6"><clipPath id="clipPath24"><path id="path22" d="M 127.559,283.465 283.464,127.559 439.37,283.465 283.464,439.37 Z"></path></clipPath></defs><g transform="matrix(0.3207069,0,0,-0.32070709,0,49.99984)" id="g14"><path id="path16" style="fill:#f6f6f6;fill-opacity:1;fill-rule:nonzero;stroke:none" d="M 0,0 155.905,-155.906 311.811,0 155.905,155.905 Z"></path></g><g id="g18" transform="matrix(0.3207069,0,0,-0.32070709,-40.908991,140.90905)"><g clip-path="url(#clipPath24)" id="g20"><g transform="translate(235.5547,280.722)" id="g26"><path id="path28" style="fill:#2d7dcc;fill-opacity:1;fill-rule:nonzero;stroke:none" d="m 0,0 h -34.296 c 1.42,-43.253 36.209,-78.042 79.463,-79.462 v 34.295 C 20.846,-43.796 1.371,-24.321 0,0"></path></g><g transform="translate(280.7221,331.3745)" id="g30"><path id="path32" style="fill:#59baff;fill-opacity:1;fill-rule:nonzero;stroke:none" d="m 0,0 v 34.295 c -43.254,-1.42 -78.044,-36.209 -79.464,-79.462 h 34.297 C -43.796,-20.847 -24.321,-1.371 0,0"></path></g><g transform="translate(331.3745,286.2071)" id="g34"><path id="path36" style="fill:#f22537;fill-opacity:1;fill-rule:nonzero;stroke:none" d="m 0,0 h 34.296 c -1.42,43.253 -36.21,78.042 -79.464,79.462 V 45.167 C -20.847,43.796 -1.371,24.321 0,0"></path></g><g transform="translate(331.3745,280.722)" id="g38"><path id="path40" style="fill:#ffc20d;fill-opacity:1;fill-rule:nonzero;stroke:none" d="M 0,0 C -1.371,-24.321 -20.847,-43.796 -45.168,-45.167 V -79.462 C -1.914,-78.042 32.876,-43.253 34.296,0 Z"></path></g><g transform="translate(341.4095,341.7747)" id="g42"><path id="path44" style="fill:#d5d5d5;fill-opacity:1;fill-rule:nonzero;stroke:none" d="M 0,0 -0.004,-0.004 C 14.979,-14.895 24.26,-35.517 24.26,-58.31 c 0,-45.4 -36.804,-82.205 -82.205,-82.205 -22.793,0 -43.415,9.281 -58.306,24.264 l -0.004,-0.004 L 0,-232.51 116.255,-116.255 Z"></path></g></g></g></svg> 