<?xml version="1.0" encoding="UTF-8" standalone="no"?> <svg xmlns:inkscape="http://www.inkscape.org/namespaces/inkscape" xmlns:sodipodi="http://sodipodi.sourceforge.net/DTD/sodipodi-0.dtd" xmlns="http://www.w3.org/2000/svg" xmlns:svg="http://www.w3.org/2000/svg" version="1.1" id="svg2" xml:space="preserve" width="100" height="100" viewBox="0 0 99.999999 99.999999" sodipodi:docname="Deep Conjuring.svg" inkscape:version="1.2.1 (9c6d41e410, 2022-07-14)"><defs id="defs6"><clipPath id="clipPath18"><path d="m 148.819,283.465 c 0,-74.245 60.401,-134.646 134.645,-134.646 v 0 c 74.245,0 134.646,60.401 134.646,134.646 v 0 c 0,74.244 -60.401,134.645 -134.646,134.645 v 0 c -74.244,0 -134.645,-60.401 -134.645,-134.645" id="path16"></path></clipPath></defs><g id="g8" inkscape:groupmode="layer" inkscape:label="Deep Conjuring" transform="matrix(1.3333333,0,0,-1.3333333,0,755.90533)"><g id="g12" transform="matrix(0.27850913,0,0,0.27850912,-41.44745,450.48156)"><g id="g14" clip-path="url(#clipPath18)"><g id="g20" transform="translate(283.4643,148.8189)"><path d="m 0,0 c -74.244,0 -134.645,60.402 -134.645,134.646 0,74.244 60.401,134.645 134.645,134.645 74.244,0 134.646,-60.401 134.646,-134.645 C 134.646,60.402 74.244,0 0,0" style="fill:#4d4951;fill-opacity:1;fill-rule:nonzero;stroke:none" id="path22"></path></g><g id="g24" transform="translate(282.8966,149.0712)"><path d="m 0,0 c -74.244,0 -134.645,60.402 -134.645,134.646 0,74.244 60.401,134.645 134.645,134.645 74.244,0 134.646,-60.401 134.646,-134.645 C 134.646,60.402 74.244,0 0,0" style="fill:#4d4951;fill-opacity:1;fill-rule:nonzero;stroke:none" id="path26"></path></g><g id="g28" transform="translate(388.2391,21.5241)"><path d="M 0,0 -159.326,165.787 -47.387,214.615 84.954,82.274 Z" style="fill:#3d3941;fill-opacity:1;fill-rule:nonzero;stroke:none" id="path30"></path></g><g id="g32" transform="translate(342.0634,234.3804)"><path d="m 0,0 c 0,-7.304 -25.376,-13.225 -56.679,-13.225 -31.302,0 -56.678,5.921 -56.678,13.225 0,7.304 25.376,13.225 56.678,13.225 C -25.376,13.225 0,7.304 0,0" style="fill:#231815;fill-opacity:1;fill-rule:nonzero;stroke:none" id="path34"></path></g><g id="g36" transform="translate(259.2813,244.9396)"><path d="m 0,0 -14.657,23.766 -4.714,13.126 -13.368,6.551 -10.403,0.794 -4.224,4.799 -12.344,9.963 13.905,-6.438 4.608,-4.606 8.594,-0.52 9.729,-3.892 -9.54,12 -10.33,15.63 -17.539,16.275 20.058,-14.198 9.783,-14.097 15.618,-16.678 4.105,-15.399 9.118,-10.58 -2.346,6.765 -1.594,12.979 0.749,9.036 -1.885,8.587 -0.127,4.506 -1.762,7.926 -2.539,6.493 -5.595,6.495 -6.164,22.746 8.632,-18.087 4.063,6.046 1.291,5.904 8.019,9.938 -5.056,-10.513 -1.558,-6.351 -4.413,-7.784 3.653,-5.47 2.585,-5.818 1.893,-7.025 3.114,7.012 1.194,8.056 2.864,12.296 0.412,8.006 4.202,6.451 -1.579,6.673 -5.986,10.007 3.322,16.214 -0.464,-15.945 6.299,-10.138 0.691,-2.038 3.34,6.529 1.541,5.012 11.205,10.704 -7.833,-11.883 -1.896,-5.422 -3.286,-8.517 -4.898,-9.213 0.244,-3.555 3.946,7.214 7.112,9.344 4.721,9.956 -0.846,-6.308 10.227,9.143 4.201,6.619 4.181,18.667 -1.209,-20.036 -4.383,-7.033 -11.107,-11.32 -9.472,-10.208 -4.03,-10.119 -3.73,-9.525 -0.324,-1.979 2.243,1.703 3.35,4.056 4.365,0.944 3.712,6.117 8.664,4.319 L 24.404,88.846 20.947,81.68 15.172,80.481 12.948,76.309 6.723,71 2.85,61.573 1.617,54.917 l 6.194,5.433 2.85,3.563 10.594,-0.737 4.751,1.154 3.963,4.512 1.732,4.385 3.53,2.13 3.823,0.801 7.381,12.599 L 41.277,73.328 36.491,72.591 33.667,70.639 31.742,65.413 28.6,60.399 12.317,59.23 2.219,46.793 1.02,35.536 l 0.431,-4.527 4.704,9.697 10.861,10.907 11.002,3.526 10.403,4.2 4.695,7.462 7.558,5.148 7.776,2.89 8.416,9.168 -6.036,-11.21 -7.759,-3.913 -0.731,-1.544 2.324,-0.695 9.984,1.226 -8.49,-4.263 -7.586,-0.733 -3.107,-1.294 -1.659,-3.205 -2.53,-4.436 -6.08,-3.044 L 19.319,47.153 10.14,36.13 4.076,19.173 5.325,14.007 8.76,-3.061 9.027,-6.09 l 1.117,-1.077 5.924,10.829 7.708,15.799 3.178,6.863 15.675,10.56 11.069,3.718 5.198,7.37 8.887,3.483 4.695,4.788 6.917,13.192 4.049,11.226 13.937,11.502 -10.387,-12.164 -3.827,-11.731 -6.362,-12.243 4.971,0.611 11.201,4.893 11.423,11.106 4.12,5.629 -2.118,-7.902 L 95.3,59.457 82.874,52.494 73.112,46.645 61.885,42.507 55.985,35.614 44.994,30.849 33.397,21.653 29.545,13.566 16.882,-19.124 14.771,-36.137 7.185,-39.573 Z" style="fill:#ffffff;fill-opacity:1;fill-rule:nonzero;stroke:none" id="path38"></path></g><g id="g40" transform="translate(228.7063,234.3804)"><path d="m 0,0 c 0,-7.304 25.376,-13.225 56.679,-13.225 31.302,0 56.678,5.921 56.678,13.225 v -45.967 c 0,-7.304 -28.518,10.705 -56.678,10.705 C 28.587,-35.262 0,-53.271 0,-45.967 Z" style="fill:#bfa670;fill-opacity:1;fill-rule:nonzero;stroke:none" id="path42"></path></g></g></g></g></svg> 