<?xml version="1.0" encoding="UTF-8" standalone="no"?> <svg xmlns:inkscape="http://www.inkscape.org/namespaces/inkscape" xmlns:sodipodi="http://sodipodi.sourceforge.net/DTD/sodipodi-0.dtd" xmlns="http://www.w3.org/2000/svg" xmlns:svg="http://www.w3.org/2000/svg" xmlns:rdf="http://www.w3.org/1999/02/22-rdf-syntax-ns#" xmlns:cc="http://creativecommons.org/ns#" xmlns:dc="http://purl.org/dc/elements/1.1/" viewBox="0 0 99.999999 99.999999" height="100" width="100" xml:space="preserve" id="svg2" version="1.1" sodipodi:docname="Dual-Music-Box.svg" inkscape:version="1.2.1 (9c6d41e410, 2022-07-14)"><metadata id="metadata8"></metadata><defs id="defs6"><clipPath id="clipPath28"><path id="path26" d="M 127.559,283.465 283.464,127.559 439.37,283.465 283.464,439.37 Z"></path></clipPath><clipPath id="clipPath40"><path id="path38" d="m 263.299,303.701 h 64.876 V 238.71 h -64.876 z"></path></clipPath><clipPath id="clipPath56"><path id="path54" d="m 285.166,281.796 h 49.811 v -49.892 h -49.811 z"></path></clipPath><clipPath id="clipPath72"><path id="path70" d="m 304.37,262.562 h 31.437 V 231.068 H 304.37 Z"></path></clipPath><clipPath id="clipPath88"><path id="path86" d="m 238.796,328.07 h 64.875 v -64.992 h -64.875 z"></path></clipPath><clipPath id="clipPath104"><path id="path102" d="m 231.88,334.988 h 49.811 V 285.097 H 231.88 Z"></path></clipPath><clipPath id="clipPath120"><path id="path118" d="m 231.051,335.824 h 31.437 v -31.493 h -31.437 z"></path></clipPath><clipPath id="clipPath136"><path id="path134" d="m 247.593,319.258 h 71.696 v -71.824 h -71.696 z"></path></clipPath></defs><g transform="matrix(0.3207071,0,0,-0.32070709,0,49.999841)" id="g14"><path id="path16" style="fill:#7e5641;fill-opacity:1;fill-rule:nonzero;stroke:none" d="M 0,0 155.905,-155.906 311.811,0 155.905,155.905 Z"></path></g><g transform="matrix(0.3207071,0,0,-0.32070709,31.349662,69.369651)" id="g18"><path id="path20" style="fill:#664533;fill-opacity:1;fill-rule:nonzero;stroke:none" d="M 0,0 76.831,-76.831 195.199,41.536 118.367,118.368 Z"></path></g><g id="g22" transform="matrix(0.3207071,0,0,-0.32070709,-40.909013,140.90904)"><g clip-path="url(#clipPath28)" id="g24"><g transform="translate(350.0787,216.8504)" id="g30"><path id="path32" style="fill:#f0f0e6;fill-opacity:1;fill-rule:nonzero;stroke:none" d="m 0,0 h -106.583 c -14.716,0 -26.645,11.93 -26.645,26.646 V 133.228 H -26.646 C -11.93,133.228 0,121.299 0,106.583 Z"></path></g><g id="g34"><g id="g36"></g><g id="g48"><g style="opacity:0.350006" id="g46" clip-path="url(#clipPath40)"><g id="g44" transform="translate(266.1024,241.5179)"><path id="path42" style="fill:#221714;fill-opacity:1;fill-rule:nonzero;stroke:none" d="M 0,0 C -7.274,7.287 0.097,26.486 16.464,42.882 32.83,59.278 51.995,66.662 59.269,59.375 66.543,52.088 59.172,32.889 42.806,16.493 26.439,0.097 7.274,-7.287 0,0"></path></g></g></g></g><g id="g50"><g id="g52"></g><g id="g64"><g style="opacity:0.350006" id="g62" clip-path="url(#clipPath56)"><g id="g60" transform="translate(287.0197,233.7627)"><path id="path58" style="fill:#221714;fill-opacity:1;fill-rule:nonzero;stroke:none" d="M 0,0 C -5.197,5.208 0.91,19.767 13.641,32.518 26.373,45.269 40.907,51.383 46.104,46.175 51.302,40.967 45.194,26.408 32.463,13.657 19.732,0.906 5.197,-5.208 0,0"></path></g></g></g></g><g id="g66"><g id="g68"></g><g id="g80"><g style="opacity:0.350006" id="g78" clip-path="url(#clipPath72)"><g id="g76" transform="translate(305.8197,232.521)"><path id="path74" style="fill:#221714;fill-opacity:1;fill-rule:nonzero;stroke:none" d="M 0,0 C -3.637,3.644 -0.197,12.997 7.683,20.891 15.563,28.786 24.9,32.232 28.537,28.588 32.174,24.945 28.734,15.591 20.854,7.697 12.974,-0.198 3.637,-3.644 0,0"></path></g></g></g></g><g id="g82"><g id="g84"></g><g id="g96"><g style="opacity:0.350006" id="g94" clip-path="url(#clipPath88)"><g id="g92" transform="translate(300.8681,325.2619)"><path id="path90" style="fill:#221714;fill-opacity:1;fill-rule:nonzero;stroke:none" d="m 0,0 c 7.274,-7.287 -0.097,-26.486 -16.464,-42.882 -16.366,-16.396 -35.531,-23.78 -42.805,-16.493 -7.274,7.287 0.097,26.486 16.463,42.882 C -26.439,-0.097 -7.274,7.287 0,0"></path></g></g></g></g><g id="g98"><g id="g100"></g><g id="g112"><g style="opacity:0.350006" id="g110" clip-path="url(#clipPath104)"><g id="g108" transform="translate(279.838,333.1299)"><path id="path106" style="fill:#221714;fill-opacity:1;fill-rule:nonzero;stroke:none" d="m 0,0 c 5.197,-5.208 -0.91,-19.767 -13.641,-32.518 -12.732,-12.751 -27.266,-18.865 -32.463,-13.657 -5.198,5.208 0.91,19.767 13.641,32.518 C -19.732,-0.906 -5.197,5.208 0,0"></path></g></g></g></g><g id="g114"><g id="g116"></g><g id="g128"><g style="opacity:0.350006" id="g126" clip-path="url(#clipPath120)"><g id="g124" transform="translate(261.0379,334.3717)"><path id="path122" style="fill:#221714;fill-opacity:1;fill-rule:nonzero;stroke:none" d="m 0,0 c 3.637,-3.644 0.197,-12.997 -7.683,-20.891 -7.88,-7.895 -17.217,-11.341 -20.854,-7.697 -3.637,3.643 -0.197,12.997 7.683,20.891 C -12.974,0.198 -3.637,3.644 0,0"></path></g></g></g></g><g id="g130"><g id="g132"></g><g id="g144"><g style="opacity:0.350006" id="g142" clip-path="url(#clipPath136)"><g id="g140" transform="translate(251.0627,250.9093)"><path id="path138" style="fill:#221714;fill-opacity:1;fill-rule:nonzero;stroke:none" d="M 0,0 C -8.486,8.502 -0.87,29.916 17.012,47.83 34.895,65.744 56.271,73.375 64.757,64.873 73.244,56.371 65.627,34.957 47.745,17.043 29.862,-0.871 8.486,-8.502 0,0"></path></g></g></g></g></g></g></svg> 