<?xml version="1.0" encoding="UTF-8" standalone="no"?> <svg xmlns:inkscape="http://www.inkscape.org/namespaces/inkscape" xmlns:sodipodi="http://sodipodi.sourceforge.net/DTD/sodipodi-0.dtd" xmlns:xlink="http://www.w3.org/1999/xlink" xmlns="http://www.w3.org/2000/svg" xmlns:svg="http://www.w3.org/2000/svg" width="100" height="100" viewBox="0 0 75.000006 75.000006" version="1.1" id="svg1086" sodipodi:docname="Frostpoint.svg" inkscape:version="1.2.1 (9c6d41e410, 2022-07-14)"><defs id="defs1000"><clipPath id="f"><path d="M 165.668,163.746 H 401.3477 V 403.2695 H 165.668 Z m 0,0" id="path964"></path></clipPath><clipPath id="h"><path d="m 180.2383,180.2383 -42.7578,103.2265 42.7578,103.2266 103.2265,42.7578 103.2266,-42.7578 42.7578,-103.2266 -42.7578,-103.2265 -103.2266,-42.7578 z m 0,0" id="path967"></path></clipPath><clipPath id="c"><path d="M 1,1 H 236 V 240 H 1 Z m 0,0" id="path970"></path></clipPath><clipPath id="d"><path d="M 15.2383,17.2383 -27.5195,120.4648 15.2383,223.6914 118.4648,266.4492 221.6914,223.6914 264.4492,120.4648 221.6914,17.2383 118.4648,-25.5195 Z m 0,0" id="path973"></path></clipPath><clipPath id="e"><path d="M 15.2383,17.2383 -27.5195,120.4648 15.2383,223.6914 118.4648,266.4492 221.6914,223.6914 264.4492,120.4648 221.6914,17.2383 118.4648,-25.5195 Z m 0,0" id="path976"></path></clipPath><clipPath id="b"><path d="M 0,0 H 237 V 241 H 0 Z" id="path979"></path></clipPath><mask id="j"><g filter="url(#a)" id="g984"><path fill-opacity="0.21" d="M 0,0 H 566.929 V 566.929 H 0 Z" id="path982"></path></g></mask><mask id="g"><use xlink:href="#b" id="use987"></use></mask><filter id="a" filterUnits="objectBoundingBox" x="0" y="0" width="1" height="1"><feColorMatrix in="SourceGraphic" values="0 0 0 0 1 0 0 0 0 1 0 0 0 0 1 0 0 0 1 0" id="feColorMatrix990"></feColorMatrix></filter><g clip-path="url(#c)" id="i"><g clip-path="url(#d)" id="g997"><g clip-path="url(#e)" id="g995"><use xlink:href="#f" mask="url(#g)" transform="matrix(0.24,0,0,0.24,0.668,0.748)" id="use993"></use></g></g></g></defs><g clip-path="url(#f)" id="g1012"><g clip-path="url(#h)" id="g1010"><use xlink:href="#i" transform="translate(165,163)" mask="url(#j)" id="use1008"></use></g></g><g id="g1245" transform="matrix(0.25687687,0,0,0.25687687,-35.31556,-35.315561)"><path d="M 180.2383,180.2383 137.4805,283.4648 180.2383,386.6914 283.4648,429.4492 386.6914,386.6914 429.4492,283.4648 386.6914,180.2383 283.4648,137.4805" fill="#304b66" id="path1004"></path><path d="m 275.9688,215.9102 -11.4961,-13.6836 5.8437,46.2422 -23.4805,-28.4844 15.4493,41.3867 -25.7149,-22.5078 6.6016,15.2304 -31.1211,-11.8437 26.25,20.9492 -16.9063,1.9453 30.2813,10.3125 -81.5977,8.0078 135.4727,136.836 81.1406,-33.6094 33.7774,-81.5469 -137.004,-137.0039" fill="#243c53" id="path1006"></path><path d="m 275.9688,215.9102 -11.4961,-13.6836 5.8437,46.2422 -23.4805,-28.4844 15.4493,41.3867 -25.7149,-22.5078 6.6016,15.2304 -31.1211,-11.8437 26.25,20.9492 -16.9063,1.9453 30.2813,10.3125 -81.5977,8.0078 81.5977,8.0079 -30.2813,10.3125 16.9063,1.9453 -26.25,20.9492 31.121,-11.8438 -6.6015,15.2305 25.7149,-22.5078 -15.4493,41.3867 23.4805,-28.4844 -5.8437,46.2422 11.496,-13.6836 7.4961,47.7774 7.4961,-47.7813 11.4961,13.6875 -5.8437,-46.2422 23.4805,28.4844 -15.4493,-41.3867 25.7149,22.5078 -6.5977,-15.2305 31.1172,11.8438 -26.25,-20.9492 16.9063,-1.9453 -30.2813,-10.3125 81.5977,-8.0079 -81.5977,-8.0078 30.2813,-10.3125 -16.9063,-1.9453 26.25,-20.9492 -31.1172,11.8438 6.5977,-15.2305 -25.7149,22.5078 15.4493,-41.3867 -23.4805,28.4844 5.8437,-46.2422 -11.496,13.6836 -7.4962,-47.7774" fill="#6496af" id="path1014"></path><path d="m 283.4648,283.4648 h 18.0899 l -18.0899,-115.332" fill="#8fbdd5" id="path1016"></path><path d="m 265.375,283.4648 h 18.0898 v -115.332" fill="#d6e8f6" id="path1018"></path><path d="m 304.6445,261.371 -28.832,8.8673 7.6523,13.2305 71.4142,-41.2188 z m 0,0" fill="#d6e8f6" id="path1020"></path><path d="m 283.4648,283.4688 7.6485,13.2265 20.6797,-20.0625 43.086,-34.3828 z m 0,0" fill="#8fbdd5" id="path1022"></path><path d="m 271.582,290.3164 37.1563,-12.6406 36.7969,-12.5313 -25.3008,-2.9101 z m 0,0" fill="#6496af" id="path1024"></path><path d="m 301.1094,264.4648 -29.5274,25.8516 48.6524,-28.086 10.125,-23.3671 z m 0,0" fill="#8fbdd5" id="path1026"></path><path d="m 283.4648,224.832 v 76.3243 l 12.9102,-50.7774 6.082,-48.1523 z m 0,0" fill="#6496af" id="path1028"></path><path d="m 270.5547,250.379 12.9101,50.7733 V 224.832 l -18.9921,-22.6054 z m 0,0" fill="#8fbdd5" id="path1030"></path><path d="m 283.4648,283.4688 7.6485,-13.2305 -28.8281,-8.8672 -50.2344,-19.1211 z m 0,0" fill="#d6e8f6" id="path1032"></path><path d="m 255.1367,276.6328 20.6758,20.0625 7.6523,-13.2265 -71.414,-41.2188 z m 0,0" fill="#8fbdd5" id="path1034"></path><path d="m 221.3945,265.1445 36.797,12.5313 37.1562,12.6406 -48.6524,-28.082 z m 0,0" fill="#6496af" id="path1036"></path><path d="m 246.6953,262.2305 48.6524,28.086 -29.5313,-25.8517 -29.246,-25.6015 z m 0,0" fill="#8fbdd5" id="path1038"></path><path d="m 283.4648,283.4648 v 115.332 l 18.0899,-115.332" fill="#8fbdd5" id="path1040"></path><path d="m 265.375,283.4648 18.0898,115.332 v -115.332" fill="#d6e8f6" id="path1042"></path><path d="m 275.8125,296.6914 28.832,8.8633 50.2344,19.125 -71.414,-41.2149 z m 0,0" fill="#8fbdd5" id="path1044"></path><path d="m 283.4648,283.461 71.4141,41.2187 -43.086,-34.3828 -20.6796,-20.0625 z m 0,0" fill="#d6e8f6" id="path1046"></path><path d="m 320.2344,304.6953 25.3008,-2.9101 -36.797,-12.5313 -37.1562,-12.6445 z m 0,0" fill="#8fbdd5" id="path1048"></path><path d="m 301.1094,302.4648 29.25,25.6016 -10.125,-23.371 -48.6524,-28.086 z m 0,0" fill="#6496af" id="path1050"></path><path d="m 283.4648,342.0977 18.9922,22.6054 -6.082,-48.1523 -12.9102,-50.7774 z m 0,0" fill="#6496af" id="path1052"></path><path d="m 270.5547,316.5508 -6.082,48.1523 18.9921,-22.6054 v -76.3243 z m 0,0" fill="#8fbdd5" id="path1054"></path><path d="m 212.0508,324.6797 50.2344,-19.1211 28.828,-8.8672 -7.6484,-13.2266 z m 0,0" fill="#8fbdd5" id="path1056"></path><path d="m 255.1367,290.2969 -43.086,34.3828 71.4141,-41.2188 -7.6523,-13.2265 z m 0,0" fill="#d6e8f6" id="path1058"></path><path d="m 258.1914,289.254 -36.7969,12.5312 25.3008,2.9101 48.6524,-28.086 z m 0,0" fill="#8fbdd5" id="path1060"></path><path d="m 246.6953,304.6953 -10.125,23.3711 29.2461,-25.6016 29.5313,-25.8554 z m 36.7695,-21.2305 16.4805,-9.5117 20.1485,-53.9687" fill="#6496af" id="path1062"></path><path d="m 283.4844,264.3984 -0.0196,19.0664 36.629,-63.4804" fill="#d6e8f6" id="path1064"></path><path d="m 266.9805,273.9531 16.4843,9.5117 -36.6289,-63.4804" fill="#d6e8f6" id="path1066"></path><path d="m 283.461,283.4688 -0.0196,-19.0704 -36.6055,-44.414" fill="#74a0b7" id="path1068"></path><path d="m 320.0938,346.9414 -20.1485,-53.9687 -16.4805,-9.5079" fill="#8fbdd5" id="path1070"></path><path d="m 283.4844,302.5313 36.6094,44.4101 -36.629,-63.4766" fill="#578299" id="path1072"></path><path d="m 266.9805,292.9727 -20.1446,53.9687 36.629,-63.4766" fill="#d6e8f6" id="path1074"></path><path d="m 246.836,346.9414 36.6054,-44.4101 0.0195,-19.0704" fill="#6496af" id="path1076"></path><path d="m 283.4648,283.4648 h 113.3868 l -96.9063,-9.5117" fill="#d6e8f6" id="path1078"></path><path d="m 283.4648,283.4648 16.4805,9.5079 96.9063,-9.5079" fill="#6496af" id="path1080"></path><path d="m 170.0781,283.4648 h 113.3867 l -16.4843,-9.5117" fill="#d6e8f6" id="path1082"></path><path d="m 170.0781,283.4648 96.9024,9.5079 16.4843,-9.5079" fill="#6496af" id="path1084"></path></g></svg> 