<?xml version="1.0" encoding="UTF-8"?> <svg xmlns="http://www.w3.org/2000/svg" xmlns:xlink="http://www.w3.org/1999/xlink" version="1.1" id="Layer_1" x="0px" y="0px" width="100px" height="100px" viewBox="0 0 100 100" style="enable-background:new 0 0 100 100;" xml:space="preserve"> <style type="text/css"> .st0{fill:none;stroke:#000000;stroke-width:2;stroke-miterlimit:10;} .st1{clip-path:url(#SVGID_2_);} .st2{fill:#395B73;} .st3{fill:#2E4B60;} .st4{fill:#426985;} .st5{fill:#C5C6CF;} .st6{fill:#FFF5ED;} .st7{fill:#E8CEBC;} .st8{fill:#D6AF9C;} .st9{fill:#B59484;} .st10{clip-path:url(#SVGID_4_);} .st11{fill:#D0AFA1;} .st12{fill:#AB9084;} .st13{fill:#EDD5C8;} .st14{fill:#D6A187;} .st15{fill:#AB816C;} .st16{clip-path:url(#SVGID_6_);} .st17{fill:#A5A6AD;} .st18{fill:#94959C;} .st19{fill:#DFE0EB;} .st20{fill:#B88383;} .st21{fill:#B8ABAB;} .st22{clip-path:url(#SVGID_8_);} .st23{clip-path:url(#SVGID_10_);} .st24{clip-path:url(#SVGID_12_);} .st25{clip-path:url(#SVGID_14_);} .st26{fill:#8095AD;} .st27{fill:#DEAE87;} .st28{fill:#EA9D64;} .st29{fill:#CB8958;} .st30{opacity:0.6;clip-path:url(#SVGID_16_);} .st31{fill:#FFFFFF;} .st32{fill:#0D3641;} </style> <g> <defs> <path id="SVGID_7_" d="M0,50c0,27.57,22.43,50,50,50l0,0c27.57,0,50-22.43,50-50l0,0c0-27.57-22.43-50-50-50l0,0 C22.43,0,0,22.43,0,50"></path> </defs> <clipPath id="SVGID_2_"> <use xlink:href="#SVGID_7_" style="overflow:visible;"></use> </clipPath> <g id="g14_1_" class="st1"> <g id="g20_2_" transform="translate(283.465,148.8191)"> <path id="path22_2_" class="st17" d="M-233.46-48.82c-27.57,0-50-22.43-50-50c0-27.57,22.43-50,50-50s50,22.43,50,50 C-183.46-71.25-205.89-48.82-233.46-48.82"></path> </g> <g id="g24_1_" transform="translate(345.1101,340.7907)"> <path id="path26_1_" class="st18" d="M-272.22-312.08l-3.52,3.48c4.31,4.69,6.95,10.94,6.95,17.81 c0,14.53-11.78,26.32-26.32,26.32c-7,0-21.88-3.42-21.88-3.42l43.59,43.59l44.53-44.53L-272.22-312.08z"></path> </g> <g id="g20_1_" transform="translate(283.465,148.8191)"> <path id="path22_1_" class="st19" d="M-233.46-61.78c-20.42,0-37.04-16.62-37.04-37.04c0-20.42,16.62-37.04,37.04-37.04 s37.04,16.62,37.04,37.04C-196.43-78.4-213.04-61.78-233.46-61.78"></path> </g> <g> <g> <path class="st20" d="M65.45,50c0,6.61-3.25,11.99-7.26,11.99c-1.75,0-3.35-1.02-4.61-2.73c3.71-1.45,6.34-5.05,6.34-9.26 s-2.63-7.82-6.34-9.27c1.26-1.71,2.86-2.73,4.61-2.73C62.2,38.01,65.45,43.39,65.45,50z"></path> <path class="st20" d="M46.41,59.26c-1.26,1.71-2.86,2.73-4.61,2.73c-4,0-7.26-5.38-7.26-11.99c0-6.62,3.26-12,7.26-12 c1.75,0,3.35,1.02,4.61,2.73c-3.71,1.45-6.34,5.06-6.34,9.27S42.7,57.82,46.41,59.26z"></path> </g> <g> <path class="st21" d="M72.74,50c0,9.78-4.89,17.74-10.9,17.74c-3.08,0-5.85-2.09-7.84-5.44c1.26,1,2.68,1.56,4.19,1.56 c5.04,0,9.13-6.22,9.13-13.87c0-7.65-4.09-13.88-9.13-13.88c-1.51,0-2.93,0.57-4.19,1.56c1.99-3.34,4.76-5.43,7.84-5.43 C67.85,32.26,72.74,40.21,72.74,50z"></path> <path class="st21" d="M41.8,63.87c1.51,0,2.93-0.56,4.19-1.56c-1.98,3.34-4.76,5.44-7.83,5.44c-6.02,0-10.91-7.96-10.91-17.74 c0-9.79,4.89-17.74,10.91-17.74c3.07,0,5.85,2.08,7.83,5.43c-1.26-0.99-2.68-1.56-4.19-1.56c-5.04,0-9.13,6.22-9.13,13.88 C32.66,57.65,36.76,63.87,41.8,63.87z"></path> </g> <g> <path class="st20" d="M83.29,50c0,14.36-7.26,26.05-16.18,26.05c-5.26,0-9.93-4.07-12.89-10.34c2.13,2.44,4.76,3.91,7.62,3.91 c7.05,0,12.78-8.81,12.78-19.62c0-10.82-5.73-19.62-12.78-19.62c-2.86,0-5.49,1.46-7.62,3.91c2.96-6.28,7.63-10.35,12.89-10.35 C76.03,23.94,83.29,35.63,83.29,50z"></path> <path class="st20" d="M45.77,65.72c-2.95,6.27-7.63,10.34-12.89,10.34c-8.92,0-16.17-11.69-16.17-26.05 c0-14.37,7.25-26.06,16.17-26.06c5.26,0,9.94,4.07,12.89,10.35c-2.13-2.44-4.76-3.91-7.61-3.91c-7.05,0-12.79,8.8-12.79,19.62 c0,10.82,5.74,19.62,12.79,19.62C41.01,69.63,43.64,68.16,45.77,65.72z"></path> </g> <path class="st20" d="M50,57.95c-4.39,0-7.95-3.57-7.95-7.95s3.57-7.95,7.95-7.95s7.95,3.57,7.95,7.95S54.38,57.95,50,57.95z M50,43.93c-3.35,0-6.08,2.73-6.08,6.08c0,3.35,2.72,6.08,6.08,6.08s6.08-2.73,6.08-6.08C56.07,46.65,53.35,43.93,50,43.93z"></path> <circle class="st20" cx="50" cy="50" r="3.58"></circle> </g> </g> </g> <g> <defs> <path id="SVGID_9_" d="M-278,127.84c0,70.58,57.42,128,128,128l0,0c70.58,0,128-57.42,128-128l0,0c0-70.58-57.42-128-128-128l0,0 C-220.58-0.16-278,57.26-278,127.84"></path> </defs> <clipPath id="SVGID_4_"> <use xlink:href="#SVGID_9_" style="overflow:visible;"></use> </clipPath> <g id="g14_2_" class="st10"> <g id="g24_2_" transform="translate(345.1101,340.7907)"> <path id="path26_2_" class="st18" d="M-436.51-267.45l-9.02,8.9c11.04,12,17.79,28.01,17.79,45.6 c0,37.21-30.16,67.37-67.37,67.37c-17.91,0-56.02-8.76-56.02-8.76l111.59,111.59l113.99-113.99L-436.51-267.45z"></path> </g> </g> </g> </svg> 