<?xml version="1.0" encoding="UTF-8" standalone="no"?>
<!-- Created with Inkscape (http://www.inkscape.org/) -->

<svg
   version="1.1"
   id="svg2"
   xml:space="preserve"
   width="100"
   height="100"
   viewBox="0 0 99.999999 99.999999"
   sodipodi:docname="Lost Reveries.svg"
   inkscape:version="1.2.1 (9c6d41e410, 2022-07-14)"
   xmlns:inkscape="http://www.inkscape.org/namespaces/inkscape"
   xmlns:sodipodi="http://sodipodi.sourceforge.net/DTD/sodipodi-0.dtd"
   xmlns="http://www.w3.org/2000/svg"
   xmlns:svg="http://www.w3.org/2000/svg"><defs
     id="defs6"><clipPath
       clipPathUnits="userSpaceOnUse"
       id="clipPath18"><path
         d="m 148.819,283.465 c 0,-74.245 60.401,-134.646 134.645,-134.646 v 0 c 74.245,0 134.646,60.401 134.646,134.646 v 0 c 0,74.244 -60.401,134.645 -134.646,134.645 v 0 c -74.244,0 -134.645,-60.401 -134.645,-134.645"
         id="path16" /></clipPath></defs><sodipodi:namedview
     id="namedview4"
     pagecolor="#ffffff"
     bordercolor="#666666"
     borderopacity="1.0"
     inkscape:pageshadow="2"
     inkscape:pageopacity="0.0"
     inkscape:pagecheckerboard="0"
     inkscape:showpageshadow="2"
     inkscape:deskcolor="#d1d1d1"
     showgrid="false"
     inkscape:zoom="1.3586357"
     inkscape:cx="376.84862"
     inkscape:cy="378.32068"
     inkscape:window-width="2560"
     inkscape:window-height="1417"
     inkscape:window-x="-8"
     inkscape:window-y="-8"
     inkscape:window-maximized="1"
     inkscape:current-layer="g8" /><g
     id="g8"
     inkscape:groupmode="layer"
     inkscape:label="Lost Reveries"
     transform="matrix(1.3333333,0,0,-1.3333333,0,755.90533)"><g
       id="g12"
       transform="matrix(0.27850944,0,0,0.27850923,-41.44758,450.48155)"><g
         id="g14"
         clip-path="url(#clipPath18)"><g
           id="g20"
           transform="translate(283.4643,148.8189)"><path
             d="m 0,0 c -74.244,0 -134.645,60.402 -134.645,134.646 0,74.244 60.401,134.645 134.645,134.645 74.244,0 134.646,-60.401 134.646,-134.645 C 134.646,60.402 74.244,0 0,0"
             style="fill:#003237;fill-opacity:1;fill-rule:nonzero;stroke:none"
             id="path22" /></g><g
           id="g24"
           transform="translate(283.4643,148.8189)"><path
             d="m 0,0 c -74.244,0 -134.645,60.402 -134.645,134.646 0,74.244 60.401,134.645 134.645,134.645 74.244,0 134.646,-60.401 134.646,-134.645 C 134.646,60.402 74.244,0 0,0"
             style="fill:#003237;fill-opacity:1;fill-rule:nonzero;stroke:none"
             id="path26" /></g><g
           id="g28"
           transform="translate(283.5223,230.8933)"><path
             d="M 0,0 48.647,21.615 V 87.268 L -0.148,71.523 Z"
             style="fill:#7d7d7d;fill-opacity:1;fill-rule:nonzero;stroke:none"
             id="path30" /></g><g
           id="g32"
           transform="translate(283.5223,230.8933)"><path
             d="M 0,0 -48.762,21.605 V 87.259 L 0.032,71.523 Z"
             style="fill:#f7f8f8;fill-opacity:1;fill-rule:nonzero;stroke:none"
             id="path34" /></g><g
           id="g36"
           transform="translate(283.5179,302.4166)"><path
             d="M 0,0 -48.758,15.735 0.003,27.95 48.651,15.745 Z"
             style="fill:#bfc0c0;fill-opacity:1;fill-rule:nonzero;stroke:none"
             id="path38" /></g><g
           id="g40"
           transform="translate(283.5509,358.5827)"><path
             d="M 0,0 -74.496,-18.661 V -118.965 L 0,-155.906 l 74.323,36.941 v 100.319 z m -0.001,-6.186 68.324,-17.141 v -91.92 l -68.326,-33.96 -68.493,33.964 v 91.899 z"
             style="fill:#a8ffc9;fill-opacity:1;fill-rule:nonzero;stroke:none"
             id="path42" /></g><g
           id="g44"
           transform="translate(282.6294,311.3329)"><path
             d="m 0,0 -70.491,22.61 1.833,5.713 L 0.915,6.007 70.326,28.339 72.164,22.627 1.835,0 Z"
             style="fill:#a8ffc9;fill-opacity:1;fill-rule:nonzero;stroke:none"
             id="path46" /></g><path
           d="m 286.546,206.877 h -6 v 107.312 h 6 z"
           style="fill:#a8ffc9;fill-opacity:1;fill-rule:nonzero;stroke:none"
           id="path48" /><g
           id="g50"
           transform="translate(372.0015,74.071)"><path
             d="m 0,0 -162.946,165.547 74.495,-36.941 74.323,36.941 0.003,100.331 140.001,-140.002 z"
             style="fill:#001e24;fill-opacity:1;fill-rule:nonzero;stroke:none"
             id="path52" /></g></g></g></g></svg>
