<?xml version="1.0" encoding="UTF-8" standalone="no"?> <svg xmlns:inkscape="http://www.inkscape.org/namespaces/inkscape" xmlns:sodipodi="http://sodipodi.sourceforge.net/DTD/sodipodi-0.dtd" xmlns="http://www.w3.org/2000/svg" xmlns:svg="http://www.w3.org/2000/svg" version="1.1" id="svg2" xml:space="preserve" width="100" height="100" viewBox="0 0 99.999999 99.999999" sodipodi:docname="Music Box Suite.svg" inkscape:version="1.2.1 (9c6d41e410, 2022-07-14)"><defs id="defs6"><clipPath id="clipPath18"><path d="m 147.402,283.465 c 0,-75.146 60.917,-136.063 136.063,-136.063 v 0 c 75.145,0 136.063,60.917 136.063,136.063 v 0 c 0,75.145 -60.918,136.063 -136.063,136.063 v 0 c -75.146,0 -136.063,-60.918 -136.063,-136.063" id="path16"></path></clipPath><clipPath id="clipPath38"><path d="m 262.012,304.993 h 69.017 v -69.14 h -69.017 z" id="path36"></path></clipPath><clipPath id="clipPath54"><path d="m 285.275,281.689 h 52.99 v -53.076 h -52.99 z" id="path52"></path></clipPath><clipPath id="clipPath70"><path d="m 305.704,261.228 h 33.444 v -33.504 h -33.444 z" id="path68"></path></clipPath><clipPath id="clipPath86"><path d="m 235.944,330.917 h 69.017 v -69.14 h -69.017 z" id="path84"></path></clipPath><clipPath id="clipPath102"><path d="m 228.588,338.277 h 52.99 v -53.076 h -52.99 z" id="path100"></path></clipPath><clipPath id="clipPath118"><path d="m 227.705,339.167 h 33.444 v -33.504 h -33.444 z" id="path116"></path></clipPath><clipPath id="clipPath134"><path d="m 245.303,321.543 h 76.273 v -76.409 h -76.273 z" id="path132"></path></clipPath></defs><g id="g8" inkscape:groupmode="layer" inkscape:label="Music Box Suite" transform="matrix(1.3333333,0,0,-1.3333333,0,755.90533)"><g id="g12" transform="matrix(0.27560763,0,0,0.27560803,-40.625116,451.30384)"><g id="g14" clip-path="url(#clipPath18)"><g id="g20" transform="translate(419.5276,283.4646)"><path d="m 0,0 c 0,-75.146 -60.917,-136.063 -136.063,-136.063 -75.146,0 -136.063,60.917 -136.063,136.063 0,75.146 60.917,136.063 136.063,136.063 C -60.917,136.063 0,75.146 0,0" style="fill:#7e5641;fill-opacity:1;fill-rule:nonzero;stroke:none" id="path22"></path></g><g id="g24" transform="translate(327.1851,114.6365)"><path d="M 0,0 -106.348,106.348 18.77,231.466 125.118,125.118 Z" style="fill:#664533;fill-opacity:1;fill-rule:nonzero;stroke:none" id="path26"></path></g><g id="g28" transform="translate(354.3307,212.5984)"><path d="m 0,0 h -113.386 c -15.655,0 -28.346,12.691 -28.346,28.346 V 141.732 H -28.346 C -12.691,141.732 0,129.041 0,113.386 Z" style="fill:#f0f0e6;fill-opacity:1;fill-rule:nonzero;stroke:none" id="path30"></path></g><g id="g32"><g id="g34"></g><g id="g46"><g clip-path="url(#clipPath38)" opacity="0.350006" id="g44"><g transform="translate(264.9942,238.8404)" id="g42"><path d="M 0,0 C -7.738,7.752 0.103,28.177 17.515,45.619 34.926,63.062 55.314,70.917 63.052,63.165 70.791,55.413 62.949,34.989 45.538,17.546 28.126,0.103 7.738,-7.752 0,0" style="fill:#221714;fill-opacity:1;fill-rule:nonzero;stroke:none" id="path40"></path></g></g></g></g><g id="g48"><g id="g50"></g><g id="g62"><g clip-path="url(#clipPath54)" opacity="0.350006" id="g60"><g transform="translate(287.2466,230.5902)" id="g58"><path d="M 0,0 C -5.529,5.541 0.968,21.029 14.512,34.594 28.056,48.158 43.518,54.663 49.047,49.122 54.576,43.582 48.079,28.093 34.535,14.529 20.991,0.964 5.529,-5.541 0,0" style="fill:#221714;fill-opacity:1;fill-rule:nonzero;stroke:none" id="path56"></path></g></g></g></g><g id="g64"><g id="g66"></g><g id="g78"><g clip-path="url(#clipPath70)" opacity="0.350006" id="g76"><g transform="translate(307.2466,229.2693)" id="g74"><path d="m 0,0 c -3.869,3.876 -0.21,13.827 8.173,22.225 8.384,8.398 18.316,12.064 22.186,8.188 C 34.228,26.537 30.568,16.586 22.185,8.188 13.802,-0.21 3.869,-3.876 0,0" style="fill:#221714;fill-opacity:1;fill-rule:nonzero;stroke:none" id="path72"></path></g></g></g></g><g id="g80"><g id="g82"></g><g id="g94"><g clip-path="url(#clipPath86)" opacity="0.350006" id="g92"><g transform="translate(301.9789,327.9298)" id="g90"><path d="m 0,0 c 7.738,-7.752 -0.103,-28.177 -17.515,-45.619 -17.411,-17.443 -37.799,-25.298 -45.537,-17.546 -7.739,7.752 0.103,28.177 17.514,45.619 C -28.126,-0.103 -7.738,7.752 0,0" style="fill:#221714;fill-opacity:1;fill-rule:nonzero;stroke:none" id="path88"></path></g></g></g></g><g id="g96"><g id="g98"></g><g id="g110"><g clip-path="url(#clipPath102)" opacity="0.350006" id="g108"><g transform="translate(279.6064,336.3001)" id="g106"><path d="m 0,0 c 5.529,-5.541 -0.968,-21.029 -14.512,-34.594 -13.544,-13.564 -29.006,-20.069 -34.535,-14.528 -5.529,5.54 0.968,21.029 14.512,34.593 C -20.991,-0.964 -5.529,5.541 0,0" style="fill:#221714;fill-opacity:1;fill-rule:nonzero;stroke:none" id="path104"></path></g></g></g></g><g id="g112"><g id="g114"></g><g id="g126"><g clip-path="url(#clipPath118)" opacity="0.350006" id="g124"><g transform="translate(259.6064,337.6211)" id="g122"><path d="m 0,0 c 3.869,-3.876 0.21,-13.827 -8.173,-22.225 -8.384,-8.398 -18.316,-12.064 -22.186,-8.188 -3.869,3.876 -0.209,13.827 8.174,22.225 C -13.802,0.21 -3.869,3.876 0,0" style="fill:#221714;fill-opacity:1;fill-rule:nonzero;stroke:none" id="path120"></path></g></g></g></g><g id="g128"><g id="g130"></g><g id="g142"><g clip-path="url(#clipPath134)" opacity="0.350006" id="g140"><g transform="translate(248.9945,248.8313)" id="g138"><path d="M 0,0 C -9.028,9.044 -0.925,31.825 18.098,50.883 37.122,69.941 59.862,78.058 68.891,69.014 77.919,59.97 69.816,37.188 50.792,18.131 31.769,-0.927 9.028,-9.044 0,0" style="fill:#221714;fill-opacity:1;fill-rule:nonzero;stroke:none" id="path136"></path></g></g></g></g></g></g></g></svg> 