<?xml version="1.0" encoding="UTF-8" standalone="no"?> <svg xmlns:inkscape="http://www.inkscape.org/namespaces/inkscape" xmlns:sodipodi="http://sodipodi.sourceforge.net/DTD/sodipodi-0.dtd" xmlns="http://www.w3.org/2000/svg" xmlns:svg="http://www.w3.org/2000/svg" version="1.1" id="svg2" xml:space="preserve" width="100" height="100" viewBox="0 0 99.999999 99.999999" sodipodi:docname="Music Box Suite Free.svg" inkscape:version="1.2.1 (9c6d41e410, 2022-07-14)"><defs id="defs6"><clipPath id="clipPath18"><path d="m 147.402,283.465 c 0,-75.146 60.917,-136.063 136.063,-136.063 v 0 c 75.145,0 136.063,60.917 136.063,136.063 v 0 c 0,75.145 -60.918,136.063 -136.063,136.063 v 0 c -75.146,0 -136.063,-60.918 -136.063,-136.063" id="path16"></path></clipPath></defs><g id="g8" inkscape:groupmode="layer" inkscape:label="Music Box Suite Free" transform="matrix(1.3333333,0,0,-1.3333333,0,755.90533)"><g id="g12" transform="matrix(0.27560763,0,0,0.27560763,-40.625116,451.304)"><g id="g14" clip-path="url(#clipPath18)"><g id="g20" transform="translate(419.5276,283.4646)"><path d="m 0,0 c 0,-75.146 -60.917,-136.063 -136.063,-136.063 -75.146,0 -136.063,60.917 -136.063,136.063 0,75.146 60.917,136.063 136.063,136.063 C -60.917,136.063 0,75.146 0,0" style="fill:#7e5641;fill-opacity:1;fill-rule:nonzero;stroke:none" id="path22"></path></g><g id="g24" transform="translate(327.1851,114.6365)"><path d="M 0,0 -106.348,106.348 18.77,231.466 125.118,125.118 Z" style="fill:#664533;fill-opacity:1;fill-rule:nonzero;stroke:none" id="path26"></path></g><g id="g28" transform="translate(354.6131,212.8808)"><path d="m 0,0 h -113.386 c -15.655,0 -28.346,12.691 -28.346,28.346 V 141.732 H -28.346 C -12.691,141.732 0,129.041 0,113.386 Z" style="fill:#f0f0e6;fill-opacity:1;fill-rule:nonzero;stroke:none" id="path30"></path></g><g id="g32" transform="translate(240.4062,263.6411)"><path d="m 0,0 c -2.29,0 -4.062,0.627 -5.297,1.877 -0.485,0.491 -0.48,1.282 0.011,1.768 0.492,0.484 1.283,0.48 1.768,-0.012 1.637,-1.657 5.067,-1.195 7.654,-0.512 17.962,4.731 52.236,33.279 56.958,50.753 1.105,4.09 0.517,7.312 -1.747,9.577 C 55.361,67.436 45.771,66.115 33.034,59.827 21.777,54.271 9.067,45.243 0.653,36.829 -6.553,29.623 -9.667,23.784 -7.473,21.59 c 0.489,-0.488 0.489,-1.279 0,-1.768 -0.488,-0.488 -1.279,-0.488 -1.767,0 -1.306,1.306 -2.376,3.818 -0.06,8.37 1.526,2.998 4.279,6.499 8.185,10.405 15.662,15.661 51.182,37.668 62.229,26.621 2.944,-2.943 3.749,-6.98 2.394,-11.996 C 61.173,44.583 52.245,33.077 39.014,21.655 26.745,11.063 13.625,3.035 4.773,0.703 2.993,0.234 1.399,0 0,0" style="fill:#392e2a;fill-opacity:1;fill-rule:nonzero;stroke:none" id="path34"></path></g><g id="g36" transform="translate(234.8555,282.185)"><path d="m 0,0 c -1.512,0 -2.789,0.378 -3.689,1.278 -0.489,0.488 -0.489,1.28 0,1.768 0.488,0.488 1.279,0.488 1.767,0 C 1.401,-0.277 21.187,10.263 36.113,25.19 51.661,40.739 48.472,47.286 46.379,49.378 41.804,53.953 16.964,46 1.555,33.063 c -4.775,-4.009 -6.884,-7.46 -5.641,-9.232 0.397,-0.566 0.259,-1.346 -0.306,-1.742 -0.565,-0.398 -1.344,-0.259 -1.741,0.306 -1.505,2.147 -1.673,6.074 6.08,12.583 6.345,5.326 16.562,11.088 26.032,14.678 6.405,2.428 17.806,5.853 22.168,1.49 C 53.775,45.518 50.13,35.672 37.881,23.422 31.057,16.599 22.185,9.795 14.148,5.223 9.56,2.613 3.973,0 0,0" style="fill:#392e2a;fill-opacity:1;fill-rule:nonzero;stroke:none" id="path38"></path></g><g id="g40" transform="translate(257.0591,318.9223)"><path d="m 0,0 c -0.295,0 -0.592,0.104 -0.83,0.315 -0.516,0.459 -0.563,1.249 -0.104,1.765 2.682,3.019 6.829,8.635 4.466,12.332 -2.126,3.326 -8.59,2.465 -18.199,-2.422 -0.615,-0.314 -1.368,-0.068 -1.681,0.548 -0.313,0.615 -0.068,1.368 0.547,1.681 11.227,5.71 18.441,6.229 21.439,1.539 C 8.081,11.936 6.455,6.632 0.935,0.42 0.688,0.142 0.345,0 0,0" style="fill:#392e2a;fill-opacity:1;fill-rule:nonzero;stroke:none" id="path42"></path></g><g id="g44" transform="translate(232.0044,303.1498)"><path d="m 0,0 c -0.104,0 -0.205,0.002 -0.305,0.007 -1.667,0.083 -2.532,0.81 -2.965,1.407 -0.405,0.558 -0.281,1.34 0.277,1.746 0.559,0.404 1.341,0.28 1.746,-0.278 0.203,-0.278 0.691,-0.359 1.065,-0.378 4.509,-0.237 16.85,6.961 24.303,15.349 0.459,0.516 1.249,0.562 1.764,0.104 0.516,-0.458 0.563,-1.249 0.105,-1.765 C 18.61,7.886 5.904,0 0,0" style="fill:#392e2a;fill-opacity:1;fill-rule:nonzero;stroke:none" id="path46"></path></g><g id="g48" transform="translate(268.2246,236.434)"><path d="m 0,0 c -2.678,0 -4.877,0.702 -6.42,2.245 -0.488,0.488 -0.488,1.279 0,1.768 0.488,0.488 1.279,0.488 1.768,0 6.04,-6.04 29.318,5.822 47.902,24.405 7.262,7.262 12.511,14.369 15.18,20.553 2.928,6.786 2.6,12.041 -0.978,15.619 C 45.035,77.006 7.146,55.583 -12.47,35.966 c -4.613,-4.613 -7.99,-8.913 -9.766,-12.434 -1.735,-3.441 -1.889,-5.912 -0.456,-7.345 0.488,-0.488 0.488,-1.279 0,-1.767 -0.489,-0.488 -1.28,-0.488 -1.768,0 -1.568,1.568 -2.843,4.617 -0.008,10.238 1.894,3.755 5.431,8.277 10.23,13.075 10.441,10.442 25.197,20.754 38.509,26.913 20.716,9.583 30.439,6.221 34.949,1.711 C 63.532,62.045 64.053,55.69 60.726,47.98 57.933,41.509 52.501,34.133 45.018,26.65 30.555,12.188 11.149,0 0,0" style="fill:#392e2a;fill-opacity:1;fill-rule:nonzero;stroke:none" id="path50"></path></g><g id="g52" transform="translate(287.8486,229.0893)"><path d="m 0,0 c -1.614,0 -2.815,0.407 -3.631,1.223 -0.488,0.488 -0.488,1.279 0,1.767 0.488,0.489 1.279,0.489 1.768,0 0.263,-0.261 1.447,-1.029 5.708,0.153 14.256,3.959 40.925,22.919 44.44,37.063 1.004,4.04 0.098,7.324 -2.769,10.04 -10.997,10.411 -46.814,-8.062 -63.477,-25.187 -6.182,-6.352 -8.542,-11.474 -6.315,-13.702 0.488,-0.488 0.488,-1.279 0,-1.767 -0.489,-0.488 -1.28,-0.488 -1.768,0 -3.418,3.418 -1.184,9.531 6.291,17.212 8.399,8.632 21.909,17.811 34.42,23.388 15.145,6.751 26.71,7.418 32.567,1.871 3.531,-3.343 4.701,-7.535 3.477,-12.457 C 46.695,23.444 17.948,4.465 4.514,0.733 2.752,0.244 1.252,0 0,0" style="fill:#392e2a;fill-opacity:1;fill-rule:nonzero;stroke:none" id="path54"></path></g><g id="g56" transform="translate(285.1016,229.9457)"><path d="M 0,0 C -0.32,0 -0.64,0.122 -0.884,0.366 -1.95,1.433 -2.955,3.354 -1.687,6.452 2.681,17.125 30.704,33.821 44.443,33.938 49.56,34.01 51.649,31.713 52.469,29.803 56.814,19.678 38.331,5.032 32.563,0.784 32.007,0.376 31.225,0.493 30.814,1.05 c -0.409,0.555 -0.29,1.339 0.266,1.748 10.607,7.809 21.971,19.309 19.092,26.018 -0.747,1.741 -2.624,2.622 -5.58,2.622 -0.043,0 -0.085,0 -0.128,-10e-4 C 38.517,31.388 28.785,27.736 19.067,21.909 9.627,16.248 2.389,9.81 0.627,5.505 -0.184,3.524 0.385,2.633 0.884,2.134 1.372,1.646 1.372,0.854 0.884,0.366 0.64,0.122 0.32,0 0,0" style="fill:#392e2a;fill-opacity:1;fill-rule:nonzero;stroke:none" id="path58"></path></g><g id="g60" transform="translate(251.7114,248.0287)"><path d="m 0,0 c -3.405,0 -6.065,0.943 -7.947,2.825 -0.488,0.488 -0.488,1.279 0,1.768 0.489,0.488 1.28,0.488 1.768,0 2.931,-2.931 8.463,-2.23 12.587,-1.124 9.939,2.663 23.66,10.812 35.809,21.269 12.937,11.135 21.738,22.673 24.145,31.658 1.405,5.246 0.571,9.454 -2.481,12.505 -4.771,4.77 -13.149,3.793 -19.337,2.137 C 33.598,68.104 19.511,60.412 6.861,50.459 -5.307,40.886 -13.941,30.926 -15.672,24.467 c -0.621,-2.321 -0.346,-4.027 0.843,-5.216 0.489,-0.488 0.489,-1.279 0,-1.768 -0.488,-0.488 -1.279,-0.488 -1.767,0 -1.272,1.272 -2.563,3.628 -1.49,7.63 4.108,15.335 38.286,41.99 61.983,48.34 9.925,2.659 17.245,1.724 21.752,-2.784 C 69.377,66.94 70.43,61.92 68.777,55.749 63.312,35.355 28.26,6.735 7.055,1.054 4.431,0.351 2.077,0 0,0" style="fill:#392e2a;fill-opacity:1;fill-rule:nonzero;stroke:none" id="path62"></path></g></g></g></g></svg> 