<?xml version="1.0" encoding="UTF-8" standalone="no"?> <svg xmlns:inkscape="http://www.inkscape.org/namespaces/inkscape" xmlns:sodipodi="http://sodipodi.sourceforge.net/DTD/sodipodi-0.dtd" xmlns="http://www.w3.org/2000/svg" xmlns:svg="http://www.w3.org/2000/svg" width="100pt" height="100pt" viewBox="0 0 99.999997 99.999997" version="1.1" id="svg25" sodipodi:docname="Obelisk.svg" inkscape:version="1.2.1 (9c6d41e410, 2022-07-14)"><defs id="defs29"></defs><path style="fill:#dedede;fill-opacity:1;fill-rule:nonzero;stroke:none;stroke-width:0.391977" d="M 0,100 H 100 V 0 H 0 Z m 0,0" id="path4"></path><path style="fill:#c2c2c2;fill-opacity:1;fill-rule:nonzero;stroke:none;stroke-width:0.391977" d="M 29.070585,71.143775 57.925277,100 H 100 V 58.724545 L 70.744143,29.470217" id="path6"></path><path style="fill:#2b333f;fill-opacity:1;fill-rule:nonzero;stroke:none;stroke-width:0.391977" d="M 49.608021,91.667429 91.275453,49.998469 49.608021,8.3325667" id="path8"></path><path style="fill:#00bffa;fill-opacity:1;fill-rule:nonzero;stroke:none;stroke-width:0.391977" d="M 49.608021,8.3325667 7.94059,49.998469 49.608021,91.665901" id="path10"></path><path style="fill:#dedede;fill-opacity:1;fill-rule:nonzero;stroke:none;stroke-width:0.391977" d="m 22.102282,41.733272 27.498084,27.487367 v 5.209003 L 19.516153,44.319401 Z m 0,0" id="path12"></path><path style="fill:#dedede;fill-opacity:1;fill-rule:nonzero;stroke:none;stroke-width:0.391977" d="m 31.453071,32.38095 18.15495,18.182515 v 5.173787 L 28.868474,34.967079 Z m 0,0" id="path14"></path><path style="fill:#dedede;fill-opacity:1;fill-rule:nonzero;stroke:none;stroke-width:0.391977" d="m 40.672179,23.161842 8.935842,8.923597 v 5.239627 L 38.073801,25.747971 Z m 0,0" id="path16"></path><path style="fill:#00bffa;fill-opacity:1;fill-rule:nonzero;stroke:none;stroke-width:0.391977" d="M 53.774307,70.29092 79.718266,44.327056 77.129075,41.737866 53.774307,65.083447 Z m 0,0" id="path18"></path><path style="fill:#00bffa;fill-opacity:1;fill-rule:nonzero;stroke:none;stroke-width:0.391977" d="m 53.774307,33.215433 7.401622,-7.432247 -2.599908,-2.598374 -4.801714,4.792527 z m 0,0" id="path20"></path><path style="fill:#00bffa;fill-opacity:1;fill-rule:nonzero;stroke:none;stroke-width:0.391977" d="M 53.774307,51.592403 70.367477,34.976267 67.781348,32.390138 53.774307,46.418616 Z m 0,0" id="path22"></path></svg> 