<?xml version="1.0" encoding="UTF-8" standalone="no"?> <svg xmlns:inkscape="http://www.inkscape.org/namespaces/inkscape" xmlns:sodipodi="http://sodipodi.sourceforge.net/DTD/sodipodi-0.dtd" xmlns="http://www.w3.org/2000/svg" xmlns:svg="http://www.w3.org/2000/svg" xmlns:rdf="http://www.w3.org/1999/02/22-rdf-syntax-ns#" xmlns:cc="http://creativecommons.org/ns#" xmlns:dc="http://purl.org/dc/elements/1.1/" viewBox="0 0 99.999999 99.999999" height="100" width="100" xml:space="preserve" id="svg2" version="1.1" sodipodi:docname="Phoenix.svg" inkscape:version="1.2.1 (9c6d41e410, 2022-07-14)"><metadata id="metadata8"></metadata><defs id="defs6"><clipPath id="clipPath32"><path id="path30" d="M 127.559,283.465 283.464,127.559 439.37,283.465 283.464,439.37 Z"></path></clipPath></defs><g transform="matrix(0.3207071,0,0,-0.32070711,0,49.999837)" id="g14"><path id="path16" style="fill:#9d3a2e;fill-opacity:1;fill-rule:nonzero;stroke:none" d="M 0,0 155.905,-155.906 311.811,0 155.905,155.905 Z"></path></g><g transform="matrix(0.3207071,0,0,-0.32070711,50.003944,85.269187)" id="g18"><path id="path20" style="fill:#802d22;fill-opacity:1;fill-rule:nonzero;stroke:none" d="M 0,0 22.96,-22.96 35.842,-10.078 -0.012,23.127 Z"></path></g><g transform="matrix(0.3207071,0,0,-0.32070711,72.598977,43.369282)" id="g22"><path id="path24" style="fill:#802d22;fill-opacity:1;fill-rule:nonzero;stroke:none" d="M 0,0 -79.321,-37.273 -154.071,-50.85 -49.189,-155.304 71.624,-34.49 2.834,34.3 Z"></path></g><g id="g26" transform="matrix(0.3207071,0,0,-0.32070711,-40.909013,140.90905)"><g clip-path="url(#clipPath32)" id="g28"><g transform="translate(345.6018,263.1382)" id="g34"><path id="path36" style="fill:#ebc54d;fill-opacity:1;fill-rule:nonzero;stroke:none" d="M 0,0 C 11.691,0.689 39.182,13.81 32.295,39.629 25.891,24.71 7.207,15.82 -4.858,22.697 16.067,30.37 37.741,58.676 -4.11,89.255 15.908,57.142 5.446,32.804 -45.482,32.804 h -0.054 c -6.352,0 -9.073,6.401 -9.073,11.746 0,14.389 4.804,20.262 12.918,25.606 -6.514,1.904 -10.304,-0.424 -13.508,-3.281 -12.918,3.281 -26.422,-3.332 -33.308,-7.67 -6.301,-3.968 -0.801,-3.598 5.979,-4.234 10.249,-1.004 13.877,-7.3 13.877,-12.697 0,-3.862 -3.522,-9.47 -10.142,-9.47 -50.927,0 -61.389,24.338 -41.371,56.451 -41.851,-30.579 -20.177,-58.885 0.748,-66.558 -12.066,-6.877 -30.749,2.013 -37.154,16.932 -6.886,-25.819 20.605,-38.94 32.295,-39.629 -10.194,-6.559 -21.352,-4.867 -29.733,0.689 13.826,-30.739 65.873,-16.189 76.763,-9.101 19.005,-19.522 -10.515,-38.993 -13.666,-53.437 5.927,4.392 11.211,7.567 18.525,8.203 -5.232,-7.885 -8.969,-17.09 -10.783,-26.402 4.055,4.972 9.234,8.465 15.694,8.995 0,-11.693 1.334,-19.734 5.338,-30.74 4.003,11.006 5.39,19.047 5.39,30.74 6.407,-0.53 11.638,-4.023 15.697,-8.995 -1.817,9.312 -5.552,18.517 -10.838,26.402 7.313,-0.636 12.652,-3.811 18.577,-8.203 -3.149,14.444 -32.671,33.915 -13.719,53.437 C -36.14,-15.5 15.908,-30.05 29.733,0.689 21.353,-4.867 10.194,-6.559 0,0"></path></g></g></g></svg> 