<?xml version="1.0" encoding="UTF-8" standalone="no"?> <svg xmlns:inkscape="http://www.inkscape.org/namespaces/inkscape" xmlns:sodipodi="http://sodipodi.sourceforge.net/DTD/sodipodi-0.dtd" xmlns="http://www.w3.org/2000/svg" xmlns:svg="http://www.w3.org/2000/svg" version="1.1" id="svg2" xml:space="preserve" width="100" height="100" viewBox="0 0 99.999999 99.999999" sodipodi:docname="Phoenix.svg" inkscape:version="1.2.1 (9c6d41e410, 2022-07-14)"><defs id="defs6"><clipPath id="clipPath18"><path d="m 148.819,283.465 c 0,-74.245 60.402,-134.645 134.646,-134.645 v 0 c 74.244,0 134.645,60.4 134.645,134.645 v 0 c 0,74.244 -60.401,134.645 -134.645,134.645 v 0 c -74.244,0 -134.646,-60.401 -134.646,-134.645" id="path16"></path></clipPath></defs><g id="g8" inkscape:groupmode="layer" inkscape:label="Phoenix" transform="matrix(1.3333333,0,0,-1.3333333,0,755.90533)"><g id="g12" transform="matrix(0.27850913,0,0,0.27851016,-41.44745,450.48113)"><g id="g14" clip-path="url(#clipPath18)"><g id="g20" transform="translate(283.465,148.8191)"><path d="m 0,0 c -74.244,0 -134.646,60.402 -134.646,134.646 0,74.243 60.402,134.645 134.646,134.645 74.244,0 134.645,-60.402 134.645,-134.645 C 134.645,60.402 74.244,0 0,0" style="fill:#9d3a2e;fill-opacity:1;fill-rule:nonzero;stroke:none" id="path22"></path></g><g id="g24" transform="translate(419.3421,37.6264)"><path d="m 0,0 -135.865,135.865 -0.013,23.127 153.09,-141.78 z" style="fill:#802d22;fill-opacity:1;fill-rule:nonzero;stroke:none" id="path26"></path></g><g id="g28" transform="translate(451.2444,15.2208)"><path d="m 0,0 -255.133,254.091 77.919,14.153 82.683,38.852 2.955,35.755 217.213,-217.214 z" style="fill:#802d22;fill-opacity:1;fill-rule:nonzero;stroke:none" id="path30"></path></g><g id="g32" transform="translate(348.2361,279.6229)"><path d="M 0,0 C 12.186,0.719 40.843,14.396 33.664,41.309 26.988,25.757 7.513,16.491 -5.064,23.659 16.748,31.657 39.341,61.163 -4.285,93.039 16.582,59.564 5.676,34.194 -47.41,34.194 h -0.056 c -6.622,0 -9.458,6.673 -9.458,12.245 0,14.999 5.007,21.12 13.465,26.691 -6.79,1.985 -10.74,-0.441 -14.08,-3.419 -13.465,3.419 -27.542,-3.474 -34.721,-7.996 -6.567,-4.136 -0.834,-3.751 6.233,-4.413 10.683,-1.048 14.466,-7.61 14.466,-13.236 0,-4.026 -3.671,-9.872 -10.572,-9.872 -53.086,0 -63.992,25.37 -43.125,58.845 -43.626,-31.876 -21.033,-61.382 0.779,-69.38 -12.577,-7.168 -32.052,2.098 -38.728,17.65 -7.179,-26.913 21.478,-40.59 33.664,-41.309 -10.627,-6.838 -22.258,-5.074 -30.994,0.719 14.412,-32.043 68.666,-16.876 80.017,-9.487 19.811,-20.35 -10.96,-40.647 -14.245,-55.703 6.179,4.578 11.686,7.888 19.31,8.55 -5.453,-8.218 -9.349,-17.813 -11.24,-27.521 4.227,5.184 9.626,8.825 16.359,9.377 0,-12.188 1.391,-20.571 5.565,-32.043 4.173,11.472 5.619,19.855 5.619,32.043 6.678,-0.552 12.131,-4.193 16.361,-9.377 -1.893,9.708 -5.787,19.303 -11.297,27.521 7.624,-0.662 13.188,-3.972 19.364,-8.55 -3.282,15.056 -34.055,35.353 -14.299,55.703 11.351,-7.389 65.605,-22.556 80.017,9.487 C 22.258,-5.074 10.627,-6.838 0,0" style="fill:#ebc54d;fill-opacity:1;fill-rule:nonzero;stroke:none" id="path34"></path></g></g></g></g></svg> 