<?xml version="1.0" encoding="UTF-8" standalone="no"?> <svg xmlns:inkscape="http://www.inkscape.org/namespaces/inkscape" xmlns:sodipodi="http://sodipodi.sourceforge.net/DTD/sodipodi-0.dtd" xmlns="http://www.w3.org/2000/svg" xmlns:svg="http://www.w3.org/2000/svg" version="1.1" id="svg2" xml:space="preserve" width="100" height="100" viewBox="0 0 99.999999 99.999999" sodipodi:docname="Scenic Vibrations.svg" inkscape:version="1.2.1 (9c6d41e410, 2022-07-14)"><defs id="defs6"><clipPath id="clipPath18"><path d="m 148.819,283.465 c 0,-74.245 60.402,-134.645 134.646,-134.645 v 0 c 74.244,0 134.645,60.4 134.645,134.645 v 0 c 0,74.244 -60.401,134.645 -134.645,134.645 v 0 c -74.244,0 -134.646,-60.401 -134.646,-134.645" id="path16"></path></clipPath></defs><g id="g8" inkscape:groupmode="layer" inkscape:label="Scenic Vibrations" transform="matrix(1.3333333,0,0,-1.3333333,0,755.90533)"><g id="g12" transform="matrix(0.27850913,0,0,0.27851016,-41.44745,450.48113)"><g id="g14" clip-path="url(#clipPath18)"><g id="g20" transform="translate(283.465,148.8191)"><path d="m 0,0 c -74.244,0 -134.646,60.402 -134.646,134.646 0,74.243 60.402,134.645 134.646,134.645 74.244,0 134.645,-60.402 134.645,-134.645 C 134.645,60.402 74.244,0 0,0" style="fill:#395b73;fill-opacity:1;fill-rule:nonzero;stroke:none" id="path22"></path></g><g id="g24" transform="translate(345.1101,340.7907)"><path d="M 0,0 -9.489,-9.363 C 2.123,-21.984 9.22,-38.824 9.22,-57.326 c 0,-39.138 -31.727,-70.866 -70.866,-70.866 -18.843,0 -58.929,9.22 -58.929,9.22 l 117.384,-117.384 119.912,119.912 z" style="fill:#2e4b60;fill-opacity:1;fill-rule:nonzero;stroke:none" id="path26"></path></g><g id="g28" transform="translate(212.4012,233.903)"><path d="m 0,0 c -6.83,8.313 -11.359,17.392 -13.237,27.353 0.16,1.123 1.372,1.147 2.262,1.368 3.754,0.933 7.712,1.332 11.266,2.788 5.728,2.345 11.832,3.417 18.124,4.006 2.456,0.23 4.839,0.247 7.242,-0.268 1.977,-0.425 4.007,-0.665 6.004,-1.017 1.888,-0.332 3.625,0.151 5.272,-0.416 15.354,-1.314 29.299,-4.083 42.654,-3.92 8.682,0.106 39.24,2.279 40.598,2.752 4.355,0.22 8.564,-0.663 12.815,-1.185 6.721,-0.826 13.42,-0.526 20.129,0.085 2.253,0.205 2.36,0.058 2.172,-1.855 -1.239,-8.139 -4.288,-15.805 -8.875,-23.051 -2.55,-4.028 -5.498,-7.851 -9.004,-11.364 -5.715,0.933 -11.502,1.409 -17.294,1.842 -4.799,0.359 -9.245,2.044 -14.059,2.417 C 96.648,0.265 87.304,0.657 77.938,-1.142 71.745,-2.332 65.364,-2.637 59.009,-3.045 51.462,-3.529 43.92,-3.119 36.388,-3.396 29.248,-3.657 22.301,-2.711 15.346,-1.614 11.562,-1.017 7.741,-0.608 3.873,-0.627 2.529,-0.634 1.193,-0.626 0,0" style="fill:#d6af9c;fill-opacity:1;fill-rule:nonzero;stroke:none" id="path30"></path></g><g id="g32" transform="translate(371.0226,273.8508)"><path d="m 0,0 c -8.001,-0.869 -19.189,-1.341 -27.707,0.388 -2.987,0.607 -6.106,0.285 -9.069,1.052 -0.122,0.098 -3.919,0.846 -4.068,0.875 -9.45,1.862 -34.033,-0.346 -54.674,-0.904 -5.357,-0.144 -28.78,0.832 -29.857,1.026 -3.079,0.553 -6.208,0.925 -9.245,1.622 -4.585,1.051 -8.967,-0.178 -13.42,-0.659 -5.224,-0.564 -9.887,-2.692 -14.647,-4.463 -3.036,-1.129 -6.326,-1.179 -9.324,-2.285 -0.813,-0.3 -1.745,-0.346 -2.422,-0.931 -0.994,2.856 -1.146,5.854 -1.332,8.776 -0.644,10.116 0.806,20.036 4.317,29.689 0.125,0.344 0.318,0.669 0.479,1.003 1.699,0.593 3.36,0.007 5.033,-0.136 8.559,-0.735 17.052,-1.882 25.473,-3.425 2.53,-0.464 5.18,-0.232 7.621,-1.138 0.343,-0.479 9.223,-1.978 19.213,-1.985 8.356,-0.006 23.384,-0.32 26.071,-0.484 4.846,0.665 33.836,6.564 34.523,6.511 7.755,-0.593 15.579,-0.559 23.2,-2.336 8.896,-2.075 17.631,-4.613 26.353,-7.194 1.063,-0.315 2.198,-0.624 2.776,-1.643 C 0.451,17.271 1.349,11.176 0.397,4.978 0.06,2.782 0.863,2.169 0,0" style="fill:#e8cebc;fill-opacity:1;fill-rule:nonzero;stroke:none" id="path34"></path></g><g id="g36" transform="translate(224.5349,221.8187)"><path d="m 0,0 c 7.497,0.211 14.777,-1.073 22.095,-2.104 0.854,-0.12 1.731,-0.185 2.598,-0.187 5.792,-0.016 11.584,-0.03 17.376,-0.002 9.485,0.046 18.879,0.769 28.179,2.358 5.431,0.928 10.934,0.495 16.446,0.364 6.794,-0.162 13.078,-2.422 19.798,-2.673 3.428,-0.128 6.8,-0.553 10.166,-1.052 0.558,-0.083 1.08,-0.115 1.201,-0.67 C 105.329,-16.444 89.256,-24.135 69.567,-25.799 40.374,-28.267 17.092,-19.434 0,0" style="fill:#8095ad;fill-opacity:1;fill-rule:nonzero;stroke:none" id="path38"></path></g><g id="g40" transform="translate(365.7921,305.9438)"><path d="m 0,0 c -11.446,3.474 -23.049,6.526 -35.012,8.508 -2.881,0.478 -5.914,0.307 -8.87,0.508 C -46.749,9.21 -83.531,4.917 -86.393,5.164 -87.6,5.3 -99.04,5.907 -121.925,5.75 c -5.135,-0.189 -15.808,1.717 -20.828,2.211 -5.556,0.547 -11.031,1.557 -16.633,1.872 -1.752,0.098 -3.581,0.151 -5.269,0.721 3.266,7.943 7.941,15.225 14.668,21.546 0.923,0.546 1.975,0.57 2.931,0.23 6.714,-2.391 13.93,-2.427 21.002,-3.162 11.201,-1.163 22.422,-1.23 33.581,0.089 4.953,0.586 9.71,2.124 14.512,3.35 6.091,1.556 12.299,2.704 18.529,3.785 0.693,0.121 1.4,0.168 2.108,0.175 10.139,0.098 20.243,-0.357 30.303,-1.406 2.112,-0.221 4.245,0.039 6.339,-0.314 3.969,-3.254 7.115,-7.052 9.958,-10.98 C -5.379,16.482 -1.655,8.549 0,0" style="fill:#fff5ed;fill-opacity:1;fill-rule:nonzero;stroke:none" id="path42"></path></g><g id="g44" transform="translate(340.7826,350.4768)"><path d="m 0,0 c -2.807,-0.915 -5.607,-0.134 -8.396,0.061 -12.306,0.857 -24.603,2.097 -36.728,-1.226 -5.336,-1.463 -10.808,-2.578 -16.175,-3.966 -1.76,-0.455 -3.564,-0.591 -5.325,-0.703 -9.568,-0.613 -19.115,-0.653 -28.669,0.514 -4.786,0.585 -9.708,0.439 -14.325,1.885 -1.632,0.51 -3.231,1.061 -5.018,1 3.219,3.747 7.282,6.812 11.579,9.656 9.401,6.221 20.03,10.331 31.815,12.322 13.87,2.343 27.497,1.5 40.804,-2.479 C -18.569,13.514 -8.388,7.845 0,0" style="fill:#c5c6cf;fill-opacity:1;fill-rule:nonzero;stroke:none" id="path46"></path></g></g></g></g></svg> 