<?xml version="1.0" encoding="UTF-8" standalone="no"?> <svg xmlns:inkscape="http://www.inkscape.org/namespaces/inkscape" xmlns:sodipodi="http://sodipodi.sourceforge.net/DTD/sodipodi-0.dtd" xmlns="http://www.w3.org/2000/svg" xmlns:svg="http://www.w3.org/2000/svg" version="1.1" id="svg2" xml:space="preserve" width="100" height="100" viewBox="0 0 99.999999 99.999999" sodipodi:docname="Slow.svg" inkscape:version="1.2.1 (9c6d41e410, 2022-07-14)"><defs id="defs6"><clipPath id="clipPath18"><path d="M 0,566.929 H 566.929 V 0 H 0 Z" id="path16"></path></clipPath><clipPath id="clipPath38"><path d="M 223.937,342.992 H 342.992 V 223.937 H 223.937 Z" id="path36"></path></clipPath></defs><g id="g8" inkscape:groupmode="layer" inkscape:label="Slow" transform="matrix(1.3333333,0,0,-1.3333333,0,755.90533)"><g id="g12" transform="matrix(0.2789462,0,0,0.27894694,-41.630279,450.41643)"><g id="g14" clip-path="url(#clipPath18)"><g id="g20" transform="translate(283.4643,148.8189)"><path d="m 0,0 c -74.244,0 -134.645,60.402 -134.645,134.646 0,74.244 60.401,134.645 134.645,134.645 74.244,0 134.646,-60.401 134.646,-134.645 C 134.646,60.402 74.244,0 0,0" style="fill:#deae87;fill-opacity:1;fill-rule:nonzero;stroke:none" id="path22"></path></g><g id="g24" transform="translate(283.4643,148.8189)"><path d="m 0,0 c -74.244,0 -134.645,60.402 -134.645,134.646 0,74.244 60.401,134.645 134.645,134.645 74.244,0 134.646,-60.401 134.646,-134.645 C 134.646,60.402 74.244,0 0,0" style="fill:#ea9d64;fill-opacity:1;fill-rule:nonzero;stroke:none" id="path26"></path></g><g id="g28" transform="translate(344.8091,338.7357)"><path d="m 0,0 c -15.133,16.787 -37.032,27.36 -61.358,27.36 -68.182,0 -71.194,-72.289 -71.194,-82.631 0,-20.289 11.708,-56.326 11.708,-56.326 l 77.161,-77.161 c 60.379,7.946 108.282,56.048 115.919,116.522 z" style="fill:#cb8958;fill-opacity:1;fill-rule:nonzero;stroke:none" id="path30"></path></g><g id="g32"><g id="g34"></g><g id="g46"><g clip-path="url(#clipPath38)" opacity="0.600006" id="g44"><g transform="translate(283.4646,342.9921)" id="g42"><path d="m 0,0 c -32.876,0 -59.528,-26.651 -59.528,-59.527 0,-32.877 26.652,-59.528 59.528,-59.528 32.876,0 59.528,26.651 59.528,59.528 C 59.528,-26.651 32.876,0 0,0" style="fill:#ffffff;fill-opacity:1;fill-rule:nonzero;stroke:none" id="path40"></path></g></g></g></g><g id="g48" transform="translate(362.364,249.8975)"><path d="m 0,0 c -1.105,-2.588 -2.344,-5.105 -3.689,-7.555 4.648,-14.534 4.064,-26.036 -1.994,-32.094 -3.496,-3.496 -8.588,-5.145 -14.841,-5.145 -16.476,0.003 -40.986,11.472 -65.431,30.828 1.08,1.873 1.708,4.04 1.708,6.357 0,7.045 -5.711,12.756 -12.756,12.756 -2.906,0 -5.576,-0.983 -7.721,-2.619 -0.879,0.854 -1.755,1.714 -2.628,2.587 -15.4,15.4 -27.892,31.828 -36.536,47.077 8.11,28.253 34.164,48.993 64.988,48.993 37.285,0 67.619,-30.333 67.619,-67.618 0,-28.137 -17.285,-52.29 -41.786,-62.458 6.263,-3.299 12.269,-5.878 17.817,-7.622 12.829,8.019 38.969,27.221 38.969,70.08 0,45.555 -37.063,82.618 -82.619,82.618 -44.071,0 -65.797,-29.7 -73.783,-45.515 -6.022,16.011 -6.348,29.197 0.568,36.113 6.047,6.047 17.551,6.639 32.076,2.001 2.455,1.348 4.989,2.567 7.582,3.675 -19.59,7.603 -35.274,7.192 -43.901,-1.434 -18.334,-18.333 1.329,-66.718 44.764,-110.153 1.022,-1.021 2.047,-2.03 3.074,-3.025 -0.786,-1.656 -1.239,-3.501 -1.239,-5.456 0,-7.045 5.711,-12.756 12.756,-12.756 2.518,0 4.859,0.74 6.837,1.999 7.098,-5.684 14.176,-10.689 21.091,-14.963 -3.209,-0.47 -6.488,-0.722 -9.825,-0.722 -37.284,0 -67.617,30.333 -67.617,67.618 0,0.159 0.007,0.316 0.009,0.474 -4.742,7.052 -8.831,14.066 -12.171,20.907 -1.837,-6.823 -2.838,-13.985 -2.838,-21.381 0,-45.556 37.062,-82.618 82.617,-82.618 10.339,0 20.232,1.926 29.361,5.409 0,0.001 -10e-4,0.001 -0.002,0.001 10.718,-4.635 20.595,-7.099 28.957,-7.099 7.928,0 14.5,2.206 19.143,6.849 C 7.193,-35.257 7.606,-19.59 0,0" style="fill:#0d3641;fill-opacity:1;fill-rule:nonzero;stroke:none" id="path50"></path></g></g></g></g></svg> 