<?xml version="1.0" encoding="UTF-8" standalone="no"?> <svg xmlns:inkscape="http://www.inkscape.org/namespaces/inkscape" xmlns:sodipodi="http://sodipodi.sourceforge.net/DTD/sodipodi-0.dtd" xmlns="http://www.w3.org/2000/svg" xmlns:svg="http://www.w3.org/2000/svg" xmlns:rdf="http://www.w3.org/1999/02/22-rdf-syntax-ns#" xmlns:cc="http://creativecommons.org/ns#" xmlns:dc="http://purl.org/dc/elements/1.1/" viewBox="0 0 99.999999 99.999999" height="100" width="100" xml:space="preserve" id="svg2" version="1.1" sodipodi:docname="Slow.svg" inkscape:version="1.2.1 (9c6d41e410, 2022-07-14)"><metadata id="metadata8"></metadata><defs id="defs6"><clipPath id="clipPath24"><path id="path22" d="M 127.559,283.465 283.464,127.559 439.37,283.465 283.464,439.37 Z"></path></clipPath><clipPath id="clipPath36"><path id="path34" d="M 232.184,334.765 H 334.762 V 232.187 H 232.184 Z"></path></clipPath></defs><g transform="matrix(0.3207071,0,0,-0.32070709,0,49.999841)" id="g14"><path id="path16" style="fill:#ea9d64;fill-opacity:1;fill-rule:nonzero;stroke:none" d="M 0,0 155.905,-155.906 311.811,0 155.905,155.905 Z"></path></g><g id="g18" transform="matrix(0.3207071,0,0,-0.32070709,-40.909013,140.90904)"><g clip-path="url(#clipPath24)" id="g20"><g transform="translate(336.1526,331.1464)" id="g26"><path id="path28" style="fill:#cb8958;fill-opacity:1;fill-rule:nonzero;stroke:none" d="m 0,0 c -13.038,14.463 -31.906,23.573 -52.865,23.573 -58.745,0 -61.341,-62.285 -61.341,-71.195 0,-17.481 10.088,-48.531 10.088,-48.531 l 91.348,-91.348 99.875,100.395 z"></path></g><g id="g30"><g id="g32"></g><g id="g44"><g style="opacity:0.600006" id="g42" clip-path="url(#clipPath36)"><g id="g40" transform="translate(283.4728,334.7646)"><path id="path38" style="fill:#ffffff;fill-opacity:1;fill-rule:nonzero;stroke:none" d="m 0,0 c -28.326,0 -51.289,-22.963 -51.289,-51.289 0,-28.326 22.963,-51.289 51.289,-51.289 28.326,0 51.289,22.963 51.289,51.289 C 51.289,-22.963 28.326,0 0,0"></path></g></g></g></g><g transform="translate(351.4524,254.5545)" id="g46"><path id="path48" style="fill:#0d3641;fill-opacity:1;fill-rule:nonzero;stroke:none" d="m 0,0 c -0.952,-2.23 -2.019,-4.398 -3.178,-6.51 4.005,-12.522 3.501,-22.432 -1.719,-27.651 -3.012,-3.013 -7.399,-4.434 -12.787,-4.433 -14.195,0.002 -35.313,9.884 -56.374,26.561 0.93,1.614 1.471,3.481 1.471,5.477 0,6.07 -4.921,10.991 -10.991,10.991 -2.503,0 -4.804,-0.847 -6.652,-2.257 -0.757,0.736 -1.512,1.477 -2.264,2.229 -13.269,13.268 -24.032,27.423 -31.48,40.561 6.988,24.343 29.436,42.213 55.994,42.213 32.125,0 58.26,-26.135 58.26,-58.26 0,-24.242 -14.893,-45.053 -36.003,-53.814 5.397,-2.842 10.571,-5.064 15.352,-6.566 11.053,6.909 33.575,23.453 33.575,60.38 0,39.251 -31.933,71.184 -71.184,71.184 -37.972,0 -56.691,-25.589 -63.571,-39.216 -5.189,13.795 -5.47,25.156 0.489,31.115 5.211,5.21 15.122,5.72 27.636,1.724 2.116,1.161 4.299,2.212 6.533,3.166 -16.879,6.552 -30.392,6.197 -37.824,-1.235 -15.797,-15.796 1.144,-57.484 38.568,-94.907 0.88,-0.881 1.763,-1.75 2.648,-2.607 -0.677,-1.427 -1.067,-3.017 -1.067,-4.701 0,-6.07 4.92,-10.99 10.99,-10.99 2.17,0 4.187,0.637 5.891,1.722 6.116,-4.897 12.214,-9.21 18.172,-12.892 -2.765,-0.405 -5.59,-0.623 -8.465,-0.623 -32.124,0 -58.259,26.135 -58.259,58.26 0,0.137 0.007,0.272 0.008,0.409 -4.085,6.076 -7.609,12.119 -10.487,18.013 -1.582,-5.879 -2.445,-12.049 -2.445,-18.422 0,-39.251 31.933,-71.184 71.183,-71.184 8.908,0 17.431,1.66 25.298,4.662 -10e-4,0 -0.002,0 -0.002,0 9.234,-3.993 17.745,-6.117 24.949,-6.116 6.831,0 12.493,1.9 16.493,5.9 C 6.198,-30.377 6.553,-16.878 0,0"></path></g></g></g></svg> 