<?xml version="1.0" encoding="UTF-8" standalone="no"?> <svg xmlns:inkscape="http://www.inkscape.org/namespaces/inkscape" xmlns:sodipodi="http://sodipodi.sourceforge.net/DTD/sodipodi-0.dtd" xmlns="http://www.w3.org/2000/svg" xmlns:svg="http://www.w3.org/2000/svg" version="1.1" id="svg2" xml:space="preserve" width="100" height="100" viewBox="0 0 99.999999 99.999999" sodipodi:docname="Squeaky Gate.svg" inkscape:version="1.2.1 (9c6d41e410, 2022-07-14)"><defs id="defs6"><clipPath id="clipPath18"><path d="m 148.819,283.465 c 0,-74.245 60.402,-134.646 134.646,-134.646 v 0 c 74.244,0 134.645,60.401 134.645,134.646 v 0 c 0,74.244 -60.401,134.645 -134.645,134.645 v 0 c -74.244,0 -134.646,-60.401 -134.646,-134.645" id="path16"></path></clipPath></defs><g id="g8" inkscape:groupmode="layer" inkscape:label="Squeaky Gate" transform="matrix(1.3333333,0,0,-1.3333333,0,755.90533)"><g id="g12" transform="matrix(0.27850913,0,0,0.27850923,-41.44745,450.48155)"><g id="g14" clip-path="url(#clipPath18)"><g id="g20" transform="translate(283.465,148.8189)"><path d="m 0,0 c -74.244,0 -134.646,60.402 -134.646,134.646 0,74.244 60.402,134.645 134.646,134.645 74.244,0 134.645,-60.401 134.645,-134.645 C 134.645,60.402 74.244,0 0,0" style="fill:#bfa670;fill-opacity:1;fill-rule:nonzero;stroke:none" id="path22"></path></g><g id="g24" transform="translate(387.7889,39.0163)"><path d="M 0,0 -193.505,192.204 -23.936,304.9 130.565,130.565 Z" style="fill:#a28d5f;fill-opacity:1;fill-rule:nonzero;stroke:none" id="path26"></path></g><g id="g28" transform="translate(198.8308,324.0377)"><path d="M 0,0 158.189,14.263 159.27,-106.324 0,-89.684 Z" style="fill:#f6f6f6;fill-opacity:1;fill-rule:nonzero;stroke:none" id="path30"></path></g><g id="g32" transform="translate(202.7616,316.5022)"><path d="m 0,0 c -0.448,-0.161 -0.306,-0.486 -0.306,-0.736 -0.007,-5.03 0,-10.061 -0.013,-15.091 -0.002,-0.66 -0.024,-1.155 0.914,-1.122 7.538,0.266 15.078,0.491 22.617,0.736 0.125,0.004 0.247,0.096 0.561,0.225 C 15.762,-10.6 7.864,-5.288 0,0 m 146.492,-64.705 c 0.006,1.005 -0.21,1.357 -1.275,1.401 -7.77,0.315 -15.537,0.694 -23.305,1.062 -5.117,0.242 -10.232,0.499 -15.348,0.752 -0.598,0.029 -1.196,0.074 -1.919,-0.153 13.843,-9.107 27.687,-18.214 41.759,-27.472 0.17,8.171 -0.01,16.248 0.088,24.41 M 37.977,-25.516 c -0.694,0.468 -1.366,0.668 -2.198,0.652 -11.646,-0.228 -23.293,-0.44 -34.941,-0.617 -0.906,-0.014 -1.177,-0.24 -1.171,-1.172 0.041,-6.71 0.035,-13.42 0.005,-20.13 -0.004,-0.82 0.184,-1.129 1.064,-1.154 24.443,-0.76 48.887,-1.525 73.333,-2.185 0.042,0.081 0.085,0.162 0.127,0.243 -12.06,8.139 -24.159,16.222 -36.219,24.363 m 48.812,-24.411 c 0.687,-0.454 1.37,-0.67 2.201,-0.694 18.808,-0.565 37.616,-1.146 56.425,-1.685 0.911,-0.031 1.072,0.272 1.07,1.098 -0.027,8.944 -0.042,17.888 0.013,26.831 0.008,1.211 -0.611,1.071 -1.373,1.061 -32.024,-0.338 -64.045,-1.013 -96.068,-1.291 -0.017,-0.148 -0.035,-0.297 -0.052,-0.445 12.587,-8.303 25.198,-16.57 37.784,-24.875 m 45.7,-39.131 c -13.597,9.15 -27.204,18.284 -40.793,27.445 -0.88,0.593 -1.75,0.907 -2.825,0.954 -29.35,1.276 -58.69,2.77 -88.03,4.242 -0.939,0.055 -1.178,-0.203 -1.173,-1.129 0.039,-6.334 0.056,-12.669 -0.011,-19.003 -0.013,-1.197 0.446,-1.483 1.489,-1.568 44.135,-3.93 88.255,-7.963 132.388,-11.926 -0.189,0.618 -0.683,0.742 -1.045,0.985 M 5.372,3.64 c 9.523,-6.275 19.058,-12.533 28.575,-18.817 0.658,-0.434 1.293,-0.616 2.077,-0.589 23.042,0.808 46.088,1.511 69.133,2.201 13.362,0.422 26.723,0.877 40.086,1.284 0.952,0.029 1.253,0.282 1.248,1.275 -0.041,8.339 -0.044,16.678 0.003,25.017 0.006,1.083 -0.282,1.31 -1.333,1.228 C 98.24,11.581 51.256,8.349 4.357,4.593 4.486,3.984 5.006,3.881 5.372,3.64 m -14.137,6.942 c -0.006,1.074 0.064,1.578 1.43,1.636 29.126,2.584 58.241,5.51 87.376,8.061 26.407,2.476 52.824,4.835 79.23,7.311 1.975,0.189 1.971,0.234 1.971,-1.782 0.035,-31.301 -0.068,-62.604 0.039,-93.903 -0.101,-11.458 -0.01,-22.918 -0.034,-34.377 0,-0.823 0.129,-1.541 -1.188,-1.378 -4.939,0.613 -9.888,1.134 -14.837,1.664 -33.94,3.584 -67.859,7.368 -101.8,10.946 -11.269,1.254 -22.545,2.439 -33.822,3.624 -5.589,0.6 -11.172,1.265 -16.767,1.817 -1.233,0.122 -1.626,0.517 -1.612,1.782 0.058,5.216 -0.002,10.433 -0.019,15.649 0.125,26.314 0.039,52.634 0.033,78.95" style="fill:#353e42;fill-opacity:1;fill-rule:nonzero;stroke:none" id="path34"></path></g></g></g></g></svg> 