<?xml version="1.0" encoding="UTF-8" standalone="no"?> <svg xmlns:inkscape="http://www.inkscape.org/namespaces/inkscape" xmlns:sodipodi="http://sodipodi.sourceforge.net/DTD/sodipodi-0.dtd" xmlns="http://www.w3.org/2000/svg" xmlns:svg="http://www.w3.org/2000/svg" version="1.1" id="svg2" xml:space="preserve" width="100" height="100" viewBox="0 0 99.999999 99.999999" sodipodi:docname="Terracotta.svg" inkscape:version="1.2.1 (9c6d41e410, 2022-07-14)"><defs id="defs6"><clipPath id="clipPath18"><path d="M 0,566.929 H 566.929 V 0 H 0 Z" id="path16"></path></clipPath></defs><g id="g8" inkscape:groupmode="layer" inkscape:label="Terracotta" transform="matrix(1.3333333,0,0,-1.3333333,0,755.90533)"><g id="g12" transform="matrix(0.27850913,0,0,0.27850912,-41.44745,450.48159)"><g id="g14" clip-path="url(#clipPath18)"><g id="g20" transform="translate(283.465,148.8189)"><path d="m 0,0 c -74.244,0 -134.646,60.402 -134.646,134.646 0,74.244 60.402,134.645 134.646,134.645 74.244,0 134.645,-60.401 134.645,-134.645 C 134.645,60.402 74.244,0 0,0" style="fill:#e5833f;fill-opacity:1;fill-rule:nonzero;stroke:none" id="path22"></path></g><g id="g24" transform="translate(288.6856,148.9297)"><path d="M 0,0 C 66.751,2.559 121.195,53.936 128.565,119.366 L 20.142,227.789 19.375,225.743 13.306,231.812 -47.963,47.963 Z" style="fill:#c67336;fill-opacity:1;fill-rule:nonzero;stroke:none" id="path26"></path></g><g id="g28" transform="translate(343.7697,274.3797)"><path d="m 0,0 v -14.345 c 0,1.763 5.831,1.763 4.761,-6.223 -5.745,-29.697 -6.797,-41.312 -12.87,-38.533 -7.506,-46.291 -96.202,-46.434 -103.884,0 -6.01,-2.784 -7.628,8.877 -13.366,38.533 -1.113,7.986 4.649,7.986 4.649,6.223 V 0 l -1.34,25.211 c 0,0 12.118,36.365 60.295,36.365 51.847,0 63.108,-36.365 63.108,-36.365 z" style="fill:#e5833f;fill-opacity:1;fill-rule:nonzero;stroke:none" id="path30"></path></g><g id="g32" transform="translate(348.5303,253.8117)"><path d="m 0,0 c -5.744,-29.697 -6.796,-41.312 -12.87,-38.533 -7.505,-46.291 -96.201,-46.434 -103.884,0 -6.01,-2.784 -7.628,8.877 -13.366,38.533 -1.113,7.986 4.65,7.986 4.65,6.223 v 14.345 l 13.749,-28.264 h 20.52 l -10.911,-12.4 -2.507,-25.912 c 16.195,-27.919 62.792,-28.141 79.018,-0.163 l -2.507,26.156 -10.908,12.319 h 20.473 L -4.761,20.568 V 6.223 C -4.761,7.986 1.07,7.986 0,0" style="fill:#472510;fill-opacity:1;fill-rule:nonzero;stroke:none" id="path34"></path></g><g id="g36" transform="translate(235.1654,289.3143)"><path d="M 0,0 C 1.612,2.553 9.088,20.089 40.417,6.098 L 37.667,-5.679 C 35.605,-2.002 22.332,8.698 0,0" style="fill:#472510;fill-opacity:1;fill-rule:nonzero;stroke:none" id="path38"></path></g><g id="g40" transform="translate(267.1247,270.4014)"><path d="M 0,0 C -7.381,5.368 -24.574,3.627 -33.567,1.378 -27.885,5.093 -3.79,24.102 0,0" style="fill:#472510;fill-opacity:1;fill-rule:nonzero;stroke:none" id="path42"></path></g><g id="g44" transform="translate(312.5769,218.7604)"><path d="m 0,0 -1.625,-1.439 c -12.575,10.196 -42.68,10.117 -55.062,0 L -58.313,0 c 3.158,6.638 16.019,14.81 25.025,16.852 l 4.133,-2.552 4.132,2.552 C -16.016,14.81 -3.156,6.638 0,0" style="fill:#472510;fill-opacity:1;fill-rule:nonzero;stroke:none" id="path46"></path></g><g id="g48" transform="translate(345.123,299.5904)"><path d="m 0,0 c -20.346,48.508 -103.064,48.501 -123.403,0 -0.372,39.601 23.306,57.179 50.002,61.218 l -6.878,19.945 h 37.142 L -50.002,61.218 C -23.354,57.179 0.372,39.601 0,0" style="fill:#472510;fill-opacity:1;fill-rule:nonzero;stroke:none" id="path50"></path></g><g id="g52" transform="translate(258.0027,376.7201)"><path d="m 0,0 -8.478,-18.108 c 3.06,2.256 10.718,4.815 15.297,5.223 z" style="fill:#472510;fill-opacity:1;fill-rule:nonzero;stroke:none" id="path54"></path></g><g id="g56" transform="translate(302.1309,247.0339)"><path d="m 0,0 c -5.781,-6.302 -31.592,-6.352 -37.42,0 -1.068,1.161 1.625,2.648 4.921,3.25 6.082,8.542 8.961,33.288 8.961,33.288 0.651,-9.333 -0.557,-20.241 -2.693,-32.313 4.708,3.009 13.021,2.362 16.111,-0.836 C -5.432,4.225 1.58,1.763 0,0" style="fill:#472510;fill-opacity:1;fill-rule:nonzero;stroke:none" id="path58"></path></g><g id="g60" transform="translate(331.6644,289.3143)"><path d="m 0,0 c -1.612,2.553 -9.088,20.089 -40.417,6.098 l 2.75,-11.777 C -35.605,-2.002 -22.332,8.698 0,0" style="fill:#472510;fill-opacity:1;fill-rule:nonzero;stroke:none" id="path62"></path></g><g id="g64" transform="translate(299.7051,270.4014)"><path d="M 0,0 C 7.381,5.368 24.574,3.627 33.567,1.378 27.885,5.093 3.79,24.102 0,0" style="fill:#472510;fill-opacity:1;fill-rule:nonzero;stroke:none" id="path66"></path></g><g id="g68" transform="translate(301.4823,216.2984)"><path d="m 0,0 c -3.02,-4.13 -10.446,-4.874 -13.094,-5.384 l -4.966,-20.382 -4.97,20.382 C -25.675,-4.874 -33.104,-4.13 -36.121,0 -27.317,2.909 -10.734,3.548 0,0" style="fill:#472510;fill-opacity:1;fill-rule:nonzero;stroke:none" id="path70"></path></g><g id="g72" transform="translate(308.8271,376.7201)"><path d="m 0,0 8.478,-18.108 c -3.06,2.256 -10.718,4.815 -15.297,5.223 z" style="fill:#472510;fill-opacity:1;fill-rule:nonzero;stroke:none" id="path74"></path></g></g></g></g></svg> 