<?xml version="1.0" encoding="UTF-8" standalone="no"?> <svg xmlns:inkscape="http://www.inkscape.org/namespaces/inkscape" xmlns:sodipodi="http://sodipodi.sourceforge.net/DTD/sodipodi-0.dtd" xmlns="http://www.w3.org/2000/svg" xmlns:svg="http://www.w3.org/2000/svg" xmlns:rdf="http://www.w3.org/1999/02/22-rdf-syntax-ns#" xmlns:cc="http://creativecommons.org/ns#" xmlns:dc="http://purl.org/dc/elements/1.1/" viewBox="0 0 99.999999 99.999999" height="100" width="100" xml:space="preserve" id="svg2" version="1.1" sodipodi:docname="Victorian-Music-Box.svg" inkscape:version="1.2.1 (9c6d41e410, 2022-07-14)"><metadata id="metadata8"></metadata><defs id="defs6"><clipPath id="clipPath28"><path id="path26" d="M 127.559,283.465 283.464,127.559 439.37,283.465 283.464,439.37 Z"></path></clipPath></defs><g transform="matrix(0.3207071,0,0,-0.3207071,0,49.999839)" id="g14"><path id="path16" style="fill:#7e5641;fill-opacity:1;fill-rule:nonzero;stroke:none" d="M 0,0 155.905,-155.906 311.811,0 155.905,155.905 Z"></path></g><g transform="matrix(0.3207071,0,0,-0.3207071,31.808884,69.806646)" id="g18"><path id="path20" style="fill:#664533;fill-opacity:1;fill-rule:nonzero;stroke:none" d="M 0,0 75.434,-75.434 193.941,43.073 118.507,118.508 Z"></path></g><g id="g22" transform="matrix(0.3207071,0,0,-0.3207071,-40.909015,140.90904)"><g clip-path="url(#clipPath28)" id="g24"><g transform="translate(352.942,214.5372)" id="g30"><path id="path32" style="fill:#f0f0e6;fill-opacity:1;fill-rule:nonzero;stroke:none" d="m 0,0 h -106.583 c -14.716,0 -26.645,11.93 -26.645,26.646 V 133.228 H -26.646 C -11.93,133.228 0,121.299 0,106.583 Z"></path></g><g transform="translate(245.5876,262.2514)" id="g34"><path id="path36" style="fill:#392e2a;fill-opacity:1;fill-rule:nonzero;stroke:none" d="m 0,0 c -2.152,0 -3.819,0.589 -4.979,1.764 -0.456,0.462 -0.451,1.206 0.011,1.662 0.46,0.455 1.203,0.452 1.661,-0.011 1.541,-1.559 4.764,-1.124 7.196,-0.481 16.883,4.446 49.101,31.282 53.539,47.708 1.039,3.844 0.487,6.873 -1.642,9.002 -8.316,8.317 -39.337,-9.189 -55.172,-25.025 -3.448,-3.447 -5.958,-6.623 -7.262,-9.184 -1.235,-2.426 -1.361,-4.156 -0.376,-5.141 0.459,-0.459 0.459,-1.202 0,-1.661 -0.459,-0.459 -1.203,-0.459 -1.662,0 -1.227,1.227 -2.233,3.588 -0.056,7.868 1.434,2.818 4.023,6.109 7.695,9.781 14.721,14.722 48.111,35.408 58.494,25.024 2.767,-2.767 3.524,-6.561 2.25,-11.277 C 57.502,41.908 49.11,31.093 36.673,20.356 25.139,10.399 12.807,2.853 4.487,0.661 2.813,0.22 1.315,0 0,0"></path></g><g transform="translate(240.3699,279.6827)" id="g38"><path id="path40" style="fill:#392e2a;fill-opacity:1;fill-rule:nonzero;stroke:none" d="m 0,0 c -1.421,0 -2.622,0.355 -3.468,1.202 -0.459,0.459 -0.459,1.202 0,1.661 0.459,0.459 1.202,0.459 1.661,0 3.129,-3.129 21.722,6.784 35.752,20.815 4.827,4.827 8.303,9.423 10.051,13.29 1.869,4.136 1.735,7.314 -0.399,9.448 -4.303,4.305 -27.649,-3.173 -42.135,-15.335 -4.489,-3.769 -6.47,-7.014 -5.303,-8.68 0.373,-0.531 0.244,-1.264 -0.287,-1.637 -0.531,-0.373 -1.263,-0.244 -1.637,0.288 -1.415,2.018 -1.572,5.71 5.716,11.828 5.963,5.007 15.568,10.422 24.47,13.798 6.021,2.283 16.735,5.5 20.838,1.4 1.991,-1.991 3.76,-5.703 0.878,-12.077 C 44.274,31.877 40.632,27.042 35.606,22.016 29.192,15.602 20.853,9.206 13.298,4.909 8.986,2.456 3.734,0 0,0"></path></g><g transform="translate(261.2417,314.2158)" id="g42"><path id="path44" style="fill:#392e2a;fill-opacity:1;fill-rule:nonzero;stroke:none" d="m 0,0 c -0.278,0 -0.556,0.097 -0.78,0.297 -0.486,0.431 -0.529,1.174 -0.099,1.658 2.522,2.839 6.42,8.118 4.198,11.591 -2.001,3.129 -8.074,2.32 -17.107,-2.274 -0.577,-0.293 -1.285,-0.065 -1.58,0.515 -0.293,0.578 -0.063,1.285 0.515,1.58 10.552,5.368 17.332,5.854 20.152,1.445 C 7.596,11.221 6.068,6.236 0.879,0.395 0.646,0.133 0.324,0 0,0"></path></g><g transform="translate(237.6894,299.3906)" id="g46"><path id="path48" style="fill:#392e2a;fill-opacity:1;fill-rule:nonzero;stroke:none" d="m 0,0 c -0.097,0 -0.192,0.002 -0.285,0.006 -1.567,0.078 -2.382,0.762 -2.788,1.322 -0.381,0.525 -0.265,1.261 0.26,1.642 0.524,0.382 1.259,0.265 1.642,-0.261 0.19,-0.263 0.649,-0.338 1.001,-0.355 4.212,-0.181 15.84,6.542 22.844,14.426 0.431,0.487 1.173,0.531 1.659,0.099 0.485,-0.432 0.528,-1.174 0.098,-1.659 C 17.495,7.413 5.551,0 0,0"></path></g><g transform="translate(271.7369,236.6768)" id="g50"><path id="path52" style="fill:#392e2a;fill-opacity:1;fill-rule:nonzero;stroke:none" d="m 0,0 c -2.517,0 -4.584,0.66 -6.035,2.11 -0.459,0.459 -0.459,1.203 0,1.662 0.459,0.459 1.203,0.459 1.662,0 5.675,-5.676 27.557,5.472 45.027,22.941 6.827,6.826 11.761,13.507 14.27,19.319 2.753,6.38 2.444,11.32 -0.919,14.683 C 42.337,72.38 6.717,52.247 -11.722,33.809 c -4.336,-4.337 -7.51,-8.379 -9.18,-11.689 -1.631,-3.234 -1.776,-5.557 -0.429,-6.904 0.459,-0.459 0.459,-1.202 0,-1.661 -0.459,-0.459 -1.202,-0.459 -1.661,0 -1.475,1.474 -2.673,4.34 -0.008,9.624 1.78,3.53 5.106,7.78 9.617,12.291 9.815,9.815 23.685,19.509 36.198,25.299 19.474,9.009 28.613,5.847 32.852,1.608 C 59.72,58.323 60.21,52.349 57.082,45.102 54.457,39.019 49.351,32.086 42.317,25.051 28.721,11.456 10.48,0 0,0"></path></g><g transform="translate(290.1834,229.7728)" id="g54"><path id="path56" style="fill:#392e2a;fill-opacity:1;fill-rule:nonzero;stroke:none" d="m 0,0 c -1.517,0 -2.646,0.383 -3.413,1.149 -0.459,0.459 -0.459,1.203 0,1.662 0.459,0.459 1.203,0.459 1.662,0 0.246,-0.246 1.361,-0.969 5.365,0.143 13.401,3.721 38.469,21.546 41.774,34.841 0.944,3.797 0.092,6.883 -2.603,9.436 -10.336,9.787 -44.004,-7.578 -59.668,-23.675 -5.811,-5.971 -8.031,-10.786 -5.937,-12.88 0.459,-0.459 0.459,-1.203 0,-1.662 -0.459,-0.459 -1.202,-0.459 -1.661,0 -3.214,3.213 -1.113,8.96 5.914,16.181 7.895,8.114 20.595,16.743 32.355,21.985 14.237,6.346 25.109,6.969 30.612,1.757 3.319,-3.142 4.419,-7.081 3.268,-11.709 C 43.894,22.039 16.871,4.197 4.243,0.689 2.587,0.23 1.177,0 0,0"></path></g><g transform="translate(287.6012,230.5778)" id="g58"><path id="path60" style="fill:#392e2a;fill-opacity:1;fill-rule:nonzero;stroke:none" d="m 0,0 c -0.301,0 -0.601,0.115 -0.831,0.344 -1.002,1.003 -1.947,2.808 -0.755,5.721 4.106,10.033 30.448,25.727 43.362,25.836 0.046,0.001 0.092,0.001 0.137,0.001 4.739,0 6.645,-2.108 7.408,-3.887 C 53.406,18.497 36.031,4.73 30.609,0.737 30.086,0.353 29.351,0.464 28.966,0.987 c -0.385,0.522 -0.273,1.258 0.249,1.643 9.97,7.341 20.653,18.151 17.947,24.457 -0.703,1.636 -2.467,2.465 -5.246,2.465 -0.04,0 -0.08,0 -0.12,-0.001 C 36.206,29.504 27.058,26.072 17.923,20.595 9.049,15.273 2.244,9.221 0.589,5.175 -0.173,3.313 0.362,2.475 0.831,2.006 1.29,1.547 1.29,0.803 0.831,0.344 0.601,0.115 0.301,0 0,0"></path></g><g transform="translate(256.2489,247.6061)" id="g62"><path id="path64" style="fill:#392e2a;fill-opacity:1;fill-rule:nonzero;stroke:none" d="m 0,0 c -3.21,0 -5.75,0.871 -7.504,2.625 -0.459,0.459 -0.459,1.203 0,1.662 0.459,0.459 1.202,0.459 1.661,0 C 0.413,-1.964 24.604,7.68 46.417,29.492 61.709,44.784 66.791,57.96 60.014,64.738 48.745,76.008 14.042,56.261 -3.965,38.254 -13.277,28.941 -17.113,21.205 -13.973,18.066 c 0.459,-0.459 0.459,-1.203 0,-1.662 -0.459,-0.459 -1.203,-0.459 -1.662,0 -4.29,4.291 -0.642,12.86 10.009,23.511 9.701,9.702 23.313,19.238 35.524,24.886 18.861,8.726 27.693,5.686 31.778,1.598 C 69.494,58.581 64.411,44.163 48.079,27.831 38.945,18.697 27.358,10.193 17.085,5.084 10.293,1.705 4.491,0 0,0"></path></g></g></g></svg> 