<?xml version="1.0" encoding="UTF-8"?> <svg xmlns="http://www.w3.org/2000/svg" xml:space="preserve" height="100" width="100"><defs><clipPath id="a"></clipPath></defs><g transform="matrix(1.33333 0 0 -1.33333 -198.4 557.5)"><circle cx="186.3" cy="-380.6" r="37.5" transform="scale(1 -1)" fill="#4d748d"></circle><path d="M186.3 407.2a26.6 26.6 0 0 1-26.6-26.6 26.6 26.6 0 0 1 26.6-26.6 26.6 26.6 0 0 1 26.7 26.6 26.6 26.6 0 0 1-26.7 26.6zm-.8-2.5h2.6l.1-.6a79.4 79.4 0 0 0 2-9.2l.9-5.5c.2-.9.1-1-.5-2-.7-1-2.7-3-2.8-2.8 0 0 0 .4.2.7.3.6.3.7.3 4.4v3.9l-.5.9c-.6 1-1 1.1-1.2.8-.3-.2-.2-.4.6-1.6l.3-.5V386.5l-.5-.8c-.5-1-1.2-1.8-1.5-1.8-.1 0-.3.4-.5 1.6l-.5 1.3c-.4 1-.7 2.2-.9 3.6 0 .7-.2 1.4-.3 1.6l-.5 2c-.3 1.7-.3 2-.2 2.7l.3 1.3.4 1.3a81.1 81.1 0 0 0 1.2 5.3l1 .1zm7-.8 1.5-.5c1.8-.6 3-1.1 4.6-2 1.7-1 2.6-1.8 2.6-2.2 0-.6-.2-.9-1-1.4a23 23 0 0 1-4.4-3.2 8.4 8.4 0 0 0-1.3-1.2l-.3 1.5a59.1 59.1 0 0 1-1.5 7.8l-.3 1.1v.1zm-18.6-2.6c.1 0 0-.9-.4-1.5l-.4-1.2-.6-1.4a5 5 0 0 1-.3-1l-.5-1.2-.5-1.1c0-.3-.5-1.3-.6-1.3l-1 2.3-.7 2.4.7.7a26 26 0 0 0 4.3 3.3zm29.8-4.1.4-.4.4-.4-.3-.2c-.4-.3-.7-.3-.6 0l.1.6zm-2.9-.9c.4 0 0-3-1.3-7.8l-1.2-5a47 47 0 0 0-1.6-5.2l-.4-1.2v.6l-.2 2.4c-.2 3-.8 8.7-1.1 10.1l-.2.9.4.6a17.2 17.2 0 0 0 5.6 4.6zm4.6-1a18 18 0 0 0 2.4-3.8l.8-1.5-.6-1-1-1.7a16 16 0 0 0-3.3-4.4l-2-1.8-1-.9c-.2-.3-.4-.4-.4-.3 0 .2.3 2 1.8 7.8a134.8 134.8 0 0 1 1.5 6.2 20.8 20.8 0 0 0 1.8 1.3zm-40.8-4.3.2-.5c.2-1.6.7-3.7 1-4.6l.3-3.8.1-1.7c.1-1.1 0-2.4-.3-2.3l-.8 1.2-1.7 2.4c-.7.7-1.1 1.3-1.1 1.5a24.4 24.4 0 0 0 2.3 7.8zm16.2-.8.2-.9c.2-1.2.7-2.8 1-3.4.3-.7.8-3 .8-3.9v-.8l-.6-.3-1.5-.6c-.5-.1-1.2-.4-1.6-.7-.8-.6-1.2-.8-1.3-.7l.2 1.2.4 2c.1.8.6 2.4 1 3.7a49.6 49.6 0 0 1 1.4 4.4zm28.4-2.3c.1 0 .6-1.7.9-3.2a24 24 0 0 0-12-25l-.2.5v.5l1.1.5c2.2 1 4.1 2.8 6.1 6.2 1 1.6 1.6 3 2.1 5.2l.7 2.5c.2 1 .2 1 0 1.2-.5.5-.8-.1-1.5-3.1-.5-2.6-1.2-4.2-2.8-6.5-1.7-2.6-3-3.8-5-4.3l-1-.3-.6 3-.3 1.6.4 1.7c.2 1 .5 2.2.8 2.8l1.4 4.5c0 .2.6.9 1.3 1.6a79.6 79.6 0 0 1 7.1 8.4 21.9 21.9 0 0 1 1.5 2.2zm-17.7-2c.2 0 .3-2.7.1-5.2-.4-7-.6-13.5-.6-14.7.1-1.8.4-5.5.6-6.5l.3-1.5c0-.4.1-.8 0-.8l-2.4-.5c-.5 0-.5 0-.6.3l-.6 1.5c-.8 2-1 2.7-1 6.3-.2 2-.3 3.9-.5 4.8l-.4 5a56.5 56.5 0 0 1-.5 5.7v1l1 .6c.9.5 1.6 1 2.8 2.3l1.8 1.7zm-8.2-6.3c.2-.7.2-1.6.2-2.4l-.1-14.6c-.2-2 .2-4 .9-5.8-.5-.3-1.6 0-2.2 0-.6.5-.9 1.3-1.1 2-.2 1-.7 2-1 3-.3 1-.8 1.8-1 2.8l-1 2.9c0 .8-.3 1.6-.4 2.5-.3 1.8-.5 3.7.3 5.4.7 1.7 2.3 2.7 3.8 3.5.5.2 1 .6 1.6.7zm-21-.2 1-1.8 1.5-2.6.6-1v-2a19.5 19.5 0 0 1 0-3.5s-1.2 2.3-1.7 3.7a24 24 0 0 0-1.5 7.2z" fill="#fff"></path><path d="M205.1 399.4a26.6 26.6 0 0 0 7.9-18.8 26.6 26.6 0 0 0-26.7-26.6 26.6 26.6 0 0 0-19 8l18.8-18.9a37.5 37.5 0 0 1 .2 0 37.5 37.5 0 0 1 37.5 37.5 37.5 37.5 0 0 1 0 .2z" fill="#3c5d72"></path></g></svg> 