<svg width="511" height="466" viewBox="0 0 511 466" fill="none" xmlns="http://www.w3.org/2000/svg">
<path d="M488.032 76.3991C489.671 51.0943 489.436 25.6801 484.878 0.666054H481.558C477 25.6801 476.765 51.0943 478.404 76.3991C479.004 84.7334 479.879 93.0444 481.551 101.359H484.886C486.557 93.0444 487.432 84.7334 488.032 76.3991Z" stroke="white" stroke-opacity="0.3"/>
<path d="M407.302 126.652C409.056 85.8048 408.849 44.8622 403.838 4.22894H400.213C395.201 44.8622 394.995 85.8048 396.748 126.652C397.403 140.17 398.365 153.669 400.207 167.163H403.844C405.685 153.669 406.648 140.17 407.302 126.652Z" stroke="white" stroke-opacity="0.3"/>
<path d="M437.795 39.2664L437.795 39.2696C436.809 56.8802 436.748 78.7183 437.063 96.4635C437.608 115.46 438.474 134.318 441.09 153.198H444.557C446.316 140.65 447.247 128.088 447.871 115.526C449.492 77.8434 449.356 39.017 444.551 1.58261H441.09C439.341 14.1411 438.419 26.6942 437.795 39.2664Z" stroke="white" stroke-opacity="0.3"/>
<path d="M366.016 131.557C367.831 90.4555 367.624 49.269 362.411 8.40227H358.599C353.386 49.269 353.179 90.4555 354.994 131.557C355.678 145.147 356.681 158.727 358.593 172.303H362.417C364.328 158.727 365.331 145.147 366.016 131.557Z" stroke="white" stroke-opacity="0.3"/>
<path d="M2.492 354.414L2.49201 354.414C3.38293 383.581 4.70676 412.753 7.23456 441.922H12.4553C14.9831 412.753 16.3069 383.582 17.1978 354.414C19.5853 266.555 19.3153 178.624 12.4514 90.9509H7.23488C4.72711 120.12 3.40328 149.281 2.51237 178.459L2.0126 178.444L2.51236 178.459C0.700911 237.107 0.680561 295.755 2.492 354.414Z" stroke="white" stroke-opacity="0.3"/>
<path d="M324.323 151.488C326.21 105.613 325.993 59.6517 320.572 14.0001H316.585C311.174 59.6518 310.947 105.613 312.844 151.488C313.549 166.675 314.594 181.843 316.579 197.016H320.578C322.563 181.843 323.608 166.675 324.323 151.488Z" stroke="white" stroke-opacity="0.3"/>
<path d="M282.007 211.557C283.896 148.593 283.748 83.7767 278.111 21.0238H273.973C271.906 42.0907 270.828 63.1508 270.09 84.2278C268.655 125.286 268.635 170.498 270.07 211.556C270.807 232.633 271.896 253.693 273.972 274.76H278.115C280.191 253.693 281.28 232.634 282.007 211.557Z" stroke="white" stroke-opacity="0.3"/>
<path d="M226.902 225.724L226.902 225.725C227.66 247.433 228.789 269.134 230.937 290.832H235.263C237.41 269.134 238.54 247.433 239.297 225.726C241.247 160.868 241.099 94.108 235.259 29.4722H230.937C228.799 51.1703 227.68 72.8716 226.912 94.5798C225.427 136.87 225.406 183.435 226.902 225.724Z" stroke="white" stroke-opacity="0.3"/>
<path d="M195.98 232.085C198 168.123 197.842 102.259 191.8 38.5298H187.291C185.084 59.9327 183.924 81.329 183.136 102.742L182.637 102.724L183.136 102.742C181.6 144.452 181.579 190.375 183.116 232.084L182.616 232.102L183.116 232.084C183.904 253.497 185.073 274.904 187.291 296.297H191.805C194.022 274.904 195.191 253.498 195.98 232.085Z" stroke="white" stroke-opacity="0.3"/>
<path d="M152.147 247.791C154.228 182.394 154.071 115.074 147.826 49.9304H143.133C140.854 71.8118 139.654 93.6866 138.836 115.578C137.248 158.214 137.228 205.155 138.815 247.79C139.634 269.671 140.844 291.556 143.132 313.428H147.83C150.128 291.557 151.328 269.673 152.147 247.791Z" stroke="white" stroke-opacity="0.3"/>
<path d="M93.9206 310.209L93.9206 310.209C94.7606 337.667 96.003 365.128 98.3882 392.577H103.243C105.618 365.128 106.87 337.667 107.71 310.21C109.945 227.48 109.695 144.689 103.239 62.146H98.3885C96.0234 89.6049 94.7809 117.057 93.9409 144.524L93.9409 144.524C92.2312 199.753 92.2109 254.981 93.9206 310.209Z" stroke="white" stroke-opacity="0.3"/>
<path d="M48.5027 333.424L48.5027 333.424C49.3732 361.96 50.6565 390.491 53.1131 419.018H58.1502C60.6068 390.491 61.89 361.961 62.7606 333.425C65.0667 247.468 64.8068 161.451 58.1462 75.6811H53.1135C50.6768 104.209 49.3936 132.739 48.523 161.286L48.0233 161.27L48.523 161.286C46.7625 218.662 46.7421 276.038 48.5027 333.424Z" stroke="white" stroke-opacity="0.3"/>
<path d="M212.752 416.367C211.704 432.593 211.857 448.887 214.757 464.924H216.6C219.5 448.887 219.652 432.592 218.594 416.367C218.218 411.056 217.659 405.758 216.607 400.466H214.749C213.698 405.758 213.139 411.056 212.752 416.367Z" stroke="white" stroke-opacity="0.3"/>
<path d="M281.787 380.743C280.624 408.062 280.759 435.417 284.091 462.584H286.23C289.562 435.417 289.698 408.062 288.534 380.743C288.094 371.743 287.456 362.754 286.236 353.768H284.085C282.865 362.754 282.228 371.743 281.787 380.743Z" stroke="white" stroke-opacity="0.3"/>
<path d="M253.177 440.838L253.178 440.834C253.797 429.789 253.838 416.073 253.635 404.944C253.293 393.072 252.753 381.299 251.124 369.502H249.277C248.189 377.327 247.614 385.147 247.224 392.976C246.203 416.571 246.288 440.873 249.282 464.312H251.125C252.213 456.496 252.788 448.667 253.177 440.838Z" stroke="white" stroke-opacity="0.3"/>
<path d="M317.321 377.403C316.107 404.886 316.242 432.413 319.715 459.732H321.979C325.452 432.413 325.587 404.886 324.373 377.403C323.923 368.353 323.246 359.303 321.985 350.265H319.709C318.438 359.302 317.771 368.353 317.321 377.403Z" stroke="white" stroke-opacity="0.3"/>
<path d="M353.173 364.037C351.907 394.716 352.053 425.44 355.662 455.966H358.041C361.65 425.44 361.796 394.716 360.53 364.037C360.059 353.91 359.36 343.8 358.046 333.695H355.656C354.332 343.8 353.644 353.909 353.173 364.037Z" stroke="white" stroke-opacity="0.3"/>
<path d="M396.791 327.636L396.791 327.636C396.318 313.999 395.617 300.369 394.283 286.733H391.902C390.568 300.369 389.856 313.999 389.383 327.635C388.167 368.502 388.254 410.559 391.906 451.285H394.283C395.606 437.658 396.308 424.019 396.781 410.382L396.781 410.382C397.717 383.696 397.727 354.322 396.791 327.636Z" stroke="white" stroke-opacity="0.3"/>
<path d="M431.517 268.94C432.993 283.709 433.766 298.478 434.275 313.247C435.283 341.828 435.273 373.29 434.265 401.871C433.746 416.65 432.983 431.419 431.517 446.188M431.517 268.94V269.44H431.064M431.517 268.94H427.985M431.517 268.94L431.019 268.99C431.034 269.14 431.049 269.29 431.064 269.44M431.064 269.44C432.509 284.044 433.272 298.651 433.775 313.264L433.775 313.265C434.783 341.834 434.773 373.284 433.765 401.853L433.765 401.853C433.252 416.477 432.499 431.084 431.064 445.688M431.064 269.44H428.438M431.064 445.688H431.517V446.188M431.064 445.688C431.049 445.838 431.034 445.988 431.019 446.138L431.517 446.188M431.064 445.688H428.442M431.517 446.188H427.985M427.985 446.188L428.483 446.142C428.469 445.991 428.455 445.839 428.442 445.688M427.985 446.188C424.005 402.41 423.903 357.177 425.227 313.247M427.985 446.188V445.688H428.442M428.442 445.688C424.505 402.081 424.408 357.031 425.726 313.263M425.227 313.247L425.726 313.264C425.726 313.264 425.726 313.264 425.726 313.263M425.227 313.247L425.726 313.262C425.726 313.262 425.726 313.263 425.726 313.263M425.227 313.247C425.746 298.478 426.509 283.709 427.985 268.94M425.726 313.263C426.24 298.65 426.993 284.043 428.438 269.44M427.985 268.94V269.44H428.438M427.985 268.94L428.482 268.99C428.467 269.14 428.452 269.29 428.438 269.44" stroke="white" stroke-opacity="0.3"/>
<path d="M462.74 302.861C461.32 348.044 461.427 394.558 465.688 439.579H468.609C470.165 424.497 470.978 409.412 471.543 394.319C472.621 364.824 472.642 332.357 471.553 302.862L472.053 302.843L471.553 302.862C470.999 287.769 470.175 272.684 468.61 257.601H465.684C464.118 272.683 463.304 287.768 462.74 302.861Z" stroke="white" stroke-opacity="0.3"/>
<path d="M500.657 293.841C499.207 339.493 499.314 386.475 503.665 431.944H506.669C508.255 416.71 509.089 401.471 509.663 386.215C510.772 356.435 510.782 323.633 509.673 293.843L510.173 293.824L509.673 293.843C509.109 278.597 508.265 263.359 506.669 248.124H503.661C502.065 263.358 501.231 278.596 500.657 293.841Z" stroke="white" stroke-opacity="0.3"/>
</svg>
