<svg width="18" height="11" viewBox="0 0 18 11" fill="none" xmlns="http://www.w3.org/2000/svg">
<path d="M8.79969 7.57426C9.51193 7.00796 10.0228 6.24816 10.263 5.39789C10.5033 4.54762 10.4612 3.64803 10.1427 2.82112C9.82406 1.99422 9.24433 1.28 8.48206 0.775344C7.7198 0.270684 6.81189 0 5.88148 0C4.95106 0 4.04316 0.270684 3.2809 0.775344C2.51863 1.28 1.93889 1.99422 1.6203 2.82112C1.30171 3.64803 1.25968 4.54762 1.49992 5.39789C1.74016 6.24816 2.25103 7.00796 2.96326 7.57426C1.8511 8.04996 0.887289 8.78874 0.16481 9.71934C0.0313693 9.89135 -0.0243719 10.1065 0.00984916 10.3173C0.0440702 10.5282 0.16545 10.7176 0.347288 10.8438C0.529125 10.9701 0.756523 11.0228 0.979459 10.9904C1.20239 10.958 1.4026 10.8432 1.53605 10.6712C2.03617 10.0251 2.69027 9.49961 3.44527 9.13737C4.20027 8.77513 5.03491 8.58636 5.88148 8.58636C6.72804 8.58636 7.56269 8.77513 8.31769 9.13737C9.07269 9.49961 9.72679 10.0251 10.2269 10.6712C10.3604 10.8433 10.5606 10.9582 10.7836 10.9906C11.0066 11.0231 11.2341 10.9704 11.416 10.8442C11.598 10.7179 11.7194 10.5285 11.7537 10.3176C11.788 10.1066 11.7323 9.89143 11.5989 9.71934C10.8759 8.78886 9.91195 8.05012 8.79969 7.57426ZM3.04688 4.29363C3.04688 3.76331 3.21313 3.2449 3.5246 2.80396C3.83607 2.36301 4.27877 2.01934 4.79673 1.81639C5.31468 1.61345 5.88462 1.56035 6.43448 1.66381C6.98434 1.76727 7.48942 2.02264 7.88584 2.39764C8.28227 2.77263 8.55223 3.2504 8.66161 3.77053C8.77098 4.29066 8.71485 4.82979 8.5003 5.31974C8.28576 5.80969 7.92244 6.22846 7.4563 6.52309C6.99015 6.81772 6.44211 6.97498 5.88148 6.97498C5.1297 6.97498 4.40871 6.69248 3.87712 6.18963C3.34553 5.68678 3.04688 5.00477 3.04688 4.29363ZM17.6521 10.8408C17.5621 10.9034 17.4599 10.9486 17.3514 10.9738C17.243 10.999 17.1303 11.0037 17.0198 10.9877C16.9094 10.9717 16.8034 10.9353 16.7079 10.8805C16.6123 10.8258 16.5291 10.7537 16.463 10.6685C15.9617 10.0237 15.3073 9.49907 14.5526 9.13699C13.7979 8.7749 12.9638 8.58542 12.1176 8.58379C11.8921 8.58379 11.6758 8.49904 11.5163 8.34818C11.3568 8.19733 11.2672 7.99273 11.2672 7.77938C11.2672 7.56604 11.3568 7.36144 11.5163 7.21059C11.6758 7.05973 11.8921 6.97498 12.1176 6.97498C12.535 6.97452 12.9471 6.88688 13.3245 6.71832C13.7019 6.54976 14.0353 6.30444 14.3009 5.99989C14.5665 5.69533 14.7577 5.33906 14.8609 4.95651C14.9641 4.57396 14.9767 4.17458 14.8978 3.78689C14.8189 3.3992 14.6505 3.03277 14.4046 2.71378C14.1587 2.39478 13.8413 2.13109 13.4752 1.94154C13.1091 1.75199 12.7032 1.64126 12.2866 1.61725C11.87 1.59324 11.453 1.65656 11.0652 1.80266C10.9614 1.84289 10.8501 1.86327 10.7379 1.86264C10.6257 1.862 10.5147 1.84035 10.4113 1.79894C10.308 1.75753 10.2143 1.69718 10.1358 1.62137C10.0572 1.54556 9.99527 1.45578 9.95356 1.35722C9.91184 1.25867 9.89116 1.15327 9.89272 1.04712C9.89427 0.94096 9.91802 0.836146 9.9626 0.738716C10.0072 0.641286 10.0717 0.553168 10.1525 0.479442C10.2332 0.405716 10.3286 0.347841 10.4331 0.309154C11.434 -0.0698921 12.5448 -0.0993016 13.5665 0.226198C14.5882 0.551699 15.4539 1.21082 16.0084 2.08538C16.5628 2.95994 16.7699 3.99274 16.5923 4.9986C16.4147 6.00446 15.8642 6.91759 15.0393 7.57426C16.1515 8.04996 17.1153 8.78874 17.8378 9.71934C17.9699 9.8915 18.0246 10.1062 17.9898 10.3163C17.955 10.5265 17.8336 10.7151 17.6521 10.8408Z" fill="#2B82CF"/>
</svg>
