<svg width="18" height="20" viewBox="0 0 18 20" fill="none" xmlns="http://www.w3.org/2000/svg">
<path d="M14.0411 12.4057C13.0769 12.4042 12.1456 12.742 11.4236 13.355L7.75154 11.094C7.97946 10.3738 7.97946 9.6049 7.75154 8.88471L11.4236 6.62368C12.1384 7.22613 13.0561 7.56042 14.0077 7.56491C14.9592 7.5694 15.8804 7.24379 16.6013 6.64812C17.3222 6.05244 17.7942 5.22687 17.9303 4.32364C18.0665 3.42041 17.8575 2.50043 17.342 1.73333C16.8265 0.96624 16.0392 0.403764 15.1253 0.149623C14.2114 -0.104517 13.2325 -0.0331843 12.3691 0.350469C11.5058 0.734123 10.8161 1.40422 10.4274 2.23721C10.0386 3.0702 9.97702 4.0099 10.2539 4.88303L6.58089 7.14147C6.00971 6.65734 5.30495 6.34165 4.55125 6.2323C3.79756 6.12296 3.02697 6.22462 2.33205 6.52507C1.63713 6.82553 1.04741 7.312 0.633733 7.92606C0.220054 8.54012 0 9.25566 0 9.98674C0 10.7178 0.220054 11.4334 0.633733 12.0474C1.04741 12.6615 1.63713 13.148 2.33205 13.4484C3.02697 13.7489 3.79756 13.8505 4.55125 13.7412C5.30495 13.6318 6.00971 13.3161 6.58089 12.832L10.253 15.0982C10.0107 15.8625 10.0259 16.6805 10.2964 17.436C10.5668 18.1915 11.0788 18.846 11.7595 19.3062C12.4402 19.7665 13.2549 20.0092 14.0877 19.9997C14.9206 19.9903 15.729 19.7292 16.3982 19.2536C17.0673 18.778 17.563 18.1121 17.8148 17.3507C18.0665 16.5892 18.0615 15.7711 17.8004 15.0125C17.5394 14.254 17.0355 13.5938 16.3606 13.1257C15.6856 12.6577 14.874 12.4058 14.0411 12.4057ZM14.0411 2.04984C14.3971 2.04984 14.745 2.15107 15.0409 2.34072C15.3369 2.53037 15.5676 2.79993 15.7038 3.11531C15.84 3.4307 15.8756 3.77773 15.8062 4.11254C15.7367 4.44735 15.5653 4.75488 15.3137 4.99627C15.062 5.23765 14.7413 5.40203 14.3922 5.46863C14.0431 5.53523 13.6813 5.50105 13.3525 5.37041C13.0236 5.23978 12.7426 5.01855 12.5448 4.73472C12.3471 4.45088 12.2415 4.11718 12.2415 3.77582C12.2415 3.31806 12.4311 2.87905 12.7686 2.55537C13.1061 2.23168 13.5639 2.04984 14.0411 2.04984ZM3.96337 11.7153C3.60745 11.7153 3.25951 11.6141 2.96357 11.4244C2.66763 11.2348 2.43697 10.9652 2.30076 10.6498C2.16455 10.3345 2.12891 9.98742 2.19835 9.65261C2.26779 9.31781 2.43919 9.01027 2.69086 8.76888C2.94254 8.5275 3.2632 8.36312 3.61229 8.29652C3.96138 8.22992 4.32322 8.2641 4.65205 8.39474C4.98089 8.52537 5.26195 8.7466 5.45969 9.03043C5.65743 9.31427 5.76298 9.64797 5.76298 9.98933C5.76298 10.4471 5.57338 10.8861 5.23589 11.2098C4.89839 11.5335 4.44066 11.7153 3.96337 11.7153ZM14.0411 17.9288C13.6852 17.9288 13.3373 17.8276 13.0413 17.6379C12.7454 17.4483 12.5147 17.1787 12.3785 16.8634C12.2423 16.548 12.2067 16.2009 12.2761 15.8661C12.3456 15.5313 12.517 15.2238 12.7686 14.9824C13.0203 14.741 13.341 14.5766 13.6901 14.51C14.0391 14.4434 14.401 14.4776 14.7298 14.6083C15.0587 14.7389 15.3397 14.9601 15.5375 15.2439C15.7352 15.5278 15.8407 15.8615 15.8407 16.2029C15.8407 16.6606 15.6511 17.0996 15.3137 17.4233C14.9762 17.747 14.5184 17.9288 14.0411 17.9288Z" fill="#2B82CF"/>
</svg>
