<svg width="20" height="20" viewBox="0 0 20 20" fill="none" xmlns="http://www.w3.org/2000/svg">
<path d="M19.7508 3.95624C19.6502 3.83581 19.5245 3.73892 19.3824 3.67243C19.2403 3.60593 19.0853 3.57145 18.9284 3.57142H4.8214L4.44015 1.46607C4.36529 1.05462 4.1484 0.682495 3.82729 0.414575C3.50618 0.146655 3.10122 -6.30967e-05 2.68302 2.03558e-08H1.07142C0.787263 2.03558e-08 0.514742 0.112882 0.313812 0.313814C0.112882 0.514745 0 0.787267 0 1.07143C0 1.35559 0.112882 1.62811 0.313812 1.82904C0.514742 2.02997 0.787263 2.14285 1.07142 2.14285H2.3848L4.6089 14.375C4.66861 14.6999 4.79212 15.0097 4.97229 15.2866C4.65331 15.6598 4.4359 16.1089 4.341 16.5906C4.24611 17.0723 4.27695 17.5704 4.43054 18.0367C4.58413 18.503 4.8553 18.9219 5.21788 19.2529C5.58046 19.5839 6.02222 19.8159 6.50055 19.9265C6.97889 20.0372 7.47766 20.0226 7.94875 19.8844C8.41984 19.7462 8.84737 19.4888 9.19008 19.1373C9.5328 18.7858 9.77914 18.3518 9.90535 17.8774C10.0316 17.4029 10.0334 16.9039 9.91065 16.4286H12.9463C12.7974 17.0054 12.8325 17.6145 13.0468 18.1704C13.2611 18.7263 13.6438 19.2014 14.1414 19.5291C14.639 19.8567 15.2266 20.0207 15.822 19.9979C16.4173 19.9751 16.9907 19.7668 17.4618 19.402C17.9329 19.0373 18.2782 18.5344 18.4494 17.9637C18.6206 17.393 18.6091 16.7831 18.4165 16.2193C18.2239 15.6555 17.8599 15.166 17.3753 14.8193C16.8908 14.4725 16.31 14.286 15.7142 14.2857H7.0687C6.9852 14.2856 6.90438 14.2562 6.84028 14.2027C6.77617 14.1492 6.73284 14.075 6.71781 13.9928L6.51067 12.8571H16.4374C17.023 12.8571 17.59 12.6516 18.0396 12.2763C18.4891 11.901 18.7926 11.3798 18.8972 10.8036L19.9829 4.83392C20.0108 4.67955 20.0045 4.52094 19.9644 4.36928C19.9243 4.21762 19.8513 4.07662 19.7508 3.95624ZM7.85709 17.1428C7.85709 17.2841 7.8152 17.4222 7.73671 17.5397C7.65822 17.6571 7.54667 17.7487 7.41615 17.8027C7.28563 17.8568 7.14202 17.871 7.00346 17.8434C6.8649 17.8158 6.73763 17.7478 6.63774 17.6479C6.53784 17.548 6.46981 17.4207 6.44225 17.2822C6.41469 17.1436 6.42884 17 6.4829 16.8695C6.53696 16.739 6.62851 16.6274 6.74598 16.5489C6.86344 16.4704 7.00154 16.4286 7.14281 16.4286C7.33225 16.4286 7.51393 16.5038 7.64788 16.6378C7.78183 16.7717 7.85709 16.9534 7.85709 17.1428ZM15.7142 17.8571C15.5729 17.8571 15.4348 17.8152 15.3173 17.7367C15.1999 17.6583 15.1083 17.5467 15.0543 17.4162C15.0002 17.2857 14.9861 17.142 15.0136 17.0035C15.0412 16.8649 15.1092 16.7377 15.2091 16.6378C15.309 16.5379 15.4363 16.4698 15.5748 16.4423C15.7134 16.4147 15.857 16.4289 15.9875 16.4829C16.118 16.537 16.2296 16.6285 16.3081 16.746C16.3866 16.8635 16.4285 17.0016 16.4285 17.1428C16.4285 17.3323 16.3532 17.514 16.2193 17.6479C16.0853 17.7819 15.9036 17.8571 15.7142 17.8571ZM16.7856 10.4214C16.7707 10.5031 16.7277 10.577 16.6642 10.6305C16.6006 10.6839 16.5204 10.7136 16.4374 10.7143H6.12139L5.21246 5.71428H17.6445L16.7856 10.4214Z" fill="white"/>
</svg>
