<svg width="33" height="25" viewBox="0 0 33 25" fill="none" xmlns="http://www.w3.org/2000/svg">
<path d="M26 5H2C1.46957 5 0.960859 5.21071 0.585786 5.58579C0.210714 5.96086 0 6.46957 0 7V23C0 23.5304 0.210714 24.0391 0.585786 24.4142C0.960859 24.7893 1.46957 25 2 25H26C26.5304 25 27.0391 24.7893 27.4142 24.4142C27.7893 24.0391 28 23.5304 28 23V7C28 6.46957 27.7893 5.96086 27.4142 5.58579C27.0391 5.21071 26.5304 5 26 5ZM15 21H13C12.7348 21 12.4804 20.8946 12.2929 20.7071C12.1054 20.5196 12 20.2652 12 20C12 19.7348 12.1054 19.4804 12.2929 19.2929C12.4804 19.1054 12.7348 19 13 19H15C15.2652 19 15.5196 19.1054 15.7071 19.2929C15.8946 19.4804 16 19.7348 16 20C16 20.2652 15.8946 20.5196 15.7071 20.7071C15.5196 20.8946 15.2652 21 15 21ZM23 21H19C18.7348 21 18.4804 20.8946 18.2929 20.7071C18.1054 20.5196 18 20.2652 18 20C18 19.7348 18.1054 19.4804 18.2929 19.2929C18.4804 19.1054 18.7348 19 19 19H23C23.2652 19 23.5196 19.1054 23.7071 19.2929C23.8946 19.4804 24 19.7348 24 20C24 20.2652 23.8946 20.5196 23.7071 20.7071C23.5196 20.8946 23.2652 21 23 21ZM2 10V7H26V10H2Z" fill="white"/>
<circle cx="25" cy="8" r="7.75" fill="white" stroke="#313339" stroke-width="0.5"/>
<path d="M22.7461 5.63477V10H22.2305V6.19141H22.2012L21.1406 6.90039V6.36133L22.2305 5.63477H22.7461ZM23.1434 10V9.61914L24.5848 8.03711C24.7527 7.85352 24.8904 7.69336 24.9979 7.55664C25.1072 7.41992 25.1883 7.29102 25.241 7.16992C25.2957 7.04883 25.323 6.92188 25.323 6.78906C25.323 6.63477 25.2859 6.50195 25.2117 6.39062C25.1395 6.27734 25.0408 6.19043 24.9158 6.12988C24.7908 6.06934 24.6492 6.03906 24.491 6.03906C24.323 6.03906 24.1766 6.07324 24.0516 6.1416C23.9285 6.20996 23.8328 6.30664 23.7645 6.43164C23.698 6.55469 23.6648 6.69922 23.6648 6.86523H23.1609C23.1609 6.60938 23.2195 6.38477 23.3367 6.19141C23.4559 5.99805 23.617 5.84766 23.8201 5.74023C24.0252 5.63086 24.2547 5.57617 24.5086 5.57617C24.7645 5.57617 24.991 5.63086 25.1883 5.74023C25.3855 5.84766 25.5398 5.99316 25.6512 6.17676C25.7645 6.3584 25.8211 6.5625 25.8211 6.78906C25.8211 6.94922 25.7918 7.10547 25.7332 7.25781C25.6766 7.4082 25.577 7.57715 25.4344 7.76465C25.2938 7.95215 25.0984 8.17969 24.8484 8.44727L23.8699 9.49609V9.53125H25.8973V10H23.1434ZM27.6715 10.0586C27.3883 10.0586 27.1373 10.0107 26.9186 9.91504C26.6998 9.81934 26.526 9.68555 26.3971 9.51367C26.2682 9.33984 26.1988 9.13867 26.1891 8.91016H26.7223C26.734 9.05078 26.7818 9.17188 26.8658 9.27344C26.9518 9.375 27.0631 9.45312 27.1998 9.50781C27.3385 9.5625 27.4918 9.58984 27.6598 9.58984C27.8473 9.58984 28.0133 9.55762 28.1578 9.49316C28.3043 9.42676 28.4186 9.33594 28.5006 9.2207C28.5846 9.10352 28.6266 8.96875 28.6266 8.81641C28.6266 8.6543 28.5865 8.51172 28.5064 8.38867C28.4264 8.26562 28.3092 8.16992 28.1549 8.10156C28.0025 8.03125 27.816 7.99609 27.5953 7.99609H27.2438V7.52734H27.5953C27.7672 7.52734 27.9186 7.49609 28.0494 7.43359C28.1803 7.37109 28.2828 7.2832 28.357 7.16992C28.4313 7.05664 28.4684 6.92383 28.4684 6.77148C28.4684 6.62305 28.4361 6.49414 28.3717 6.38477C28.3072 6.27539 28.2154 6.19043 28.0963 6.12988C27.9791 6.06934 27.8395 6.03906 27.6773 6.03906C27.527 6.03906 27.3854 6.06641 27.2525 6.12109C27.1197 6.17578 27.0113 6.25391 26.9273 6.35547C26.8434 6.45703 26.7984 6.58008 26.7926 6.72461H26.2828C26.2906 6.49609 26.359 6.2959 26.4879 6.12402C26.6168 5.95215 26.7857 5.81836 26.9947 5.72266C27.2057 5.625 27.4371 5.57617 27.6891 5.57617C27.9586 5.57617 28.19 5.63086 28.3834 5.74023C28.5768 5.84766 28.7252 5.99023 28.8287 6.16797C28.9322 6.3457 28.984 6.53711 28.984 6.74219C28.984 6.99023 28.9195 7.2002 28.7906 7.37207C28.6637 7.54395 28.4898 7.66406 28.2691 7.73242V7.76758C28.5426 7.8125 28.7564 7.92969 28.9107 8.11914C29.065 8.30664 29.1422 8.53906 29.1422 8.81641C29.1422 9.05273 29.0777 9.26465 28.9488 9.45215C28.8219 9.63965 28.6471 9.78809 28.4244 9.89746C28.2037 10.0049 27.9527 10.0586 27.6715 10.0586Z" fill="black"/>
</svg>
