<svg width="16" height="18" viewBox="0 0 16 18" fill="none" xmlns="http://www.w3.org/2000/svg">
    <path id="Vector"
        d="M15.6948 4.96L10.8252 0.293333C10.7283 0.200348 10.6132 0.126581 10.4866 0.0762485C10.3599 0.0259161 10.2241 6.12714e-06 10.087 0H1.73913C1.27788 0 0.83553 0.175595 0.50938 0.488155C0.183229 0.800716 0 1.22464 0 1.66667V16.3333C0 16.7754 0.183229 17.1993 0.50938 17.5118C0.83553 17.8244 1.27788 18 1.73913 18H14.2609C14.7221 18 15.1645 17.8244 15.4906 17.5118C15.8168 17.1993 16 16.7754 16 16.3333V5.66667C16 5.40166 15.8902 5.14749 15.6948 4.96ZM10.7826 3.08333L12.7826 5H10.7826V3.08333ZM2.08696 16V2H8.69565V6C8.69565 6.26522 8.80559 6.51957 9.00128 6.70711C9.19697 6.89464 9.46238 7 9.73913 7H13.913V16H2.08696ZM10.8252 10.9592C10.9225 11.0521 10.9997 11.1625 11.0524 11.284C11.105 11.4056 11.1321 11.5359 11.1321 11.6675C11.1321 11.7991 11.105 11.9294 11.0524 12.051C10.9997 12.1725 10.9225 12.2829 10.8252 12.3758L8.73826 14.3758C8.64132 14.4691 8.52613 14.543 8.39929 14.5935C8.27245 14.644 8.13647 14.67 7.99913 14.67C7.86179 14.67 7.72581 14.644 7.59897 14.5935C7.47214 14.543 7.35694 14.4691 7.26 14.3758L5.17304 12.3758C4.97701 12.188 4.86689 11.9332 4.86689 11.6675C4.86689 11.4018 4.97701 11.147 5.17304 10.9592C5.36907 10.7713 5.63495 10.6658 5.91217 10.6658C6.1894 10.6658 6.45527 10.7713 6.6513 10.9592L6.95652 11.25V8.66667C6.95652 8.40145 7.06646 8.1471 7.26215 7.95956C7.45784 7.77202 7.72325 7.66667 8 7.66667C8.27675 7.66667 8.54216 7.77202 8.73785 7.95956C8.93354 8.1471 9.04348 8.40145 9.04348 8.66667V11.25L9.3487 10.9567C9.44578 10.8639 9.561 10.7903 9.68777 10.7402C9.81454 10.6901 9.95037 10.6644 10.0875 10.6646C10.2246 10.6649 10.3604 10.691 10.4869 10.7415C10.6135 10.7921 10.7285 10.866 10.8252 10.9592Z"
         />
</svg>