<svg width="19" height="13" viewBox="0 0 19 13" fill="none" xmlns="http://www.w3.org/2000/svg"
    class="hover:fill-card/50 fill-card w-5 box-content">
    <path
        d="M17.3496 0H1.34961C1.08439 0 0.830039 0.0978312 0.642503 0.271972C0.454966 0.446113 0.349609 0.682299 0.349609 0.928571V11.4524C0.349609 11.8628 0.525204 12.2565 0.837765 12.5467C1.15033 12.8369 1.57425 13 2.01628 13H16.6829C17.125 13 17.5489 12.8369 17.8615 12.5467C18.174 12.2565 18.3496 11.8628 18.3496 11.4524V0.928571C18.3496 0.682299 18.2443 0.446113 18.0567 0.271972C17.8692 0.0978312 17.6148 0 17.3496 0ZM9.34961 6.47833L3.92044 1.85714H14.7788L9.34961 6.47833ZM6.41544 6.5L2.34961 9.96048V3.03952L6.41544 6.5ZM7.89544 7.75976L8.67378 8.42292C8.85822 8.57996 9.09937 8.66708 9.34961 8.66708C9.59985 8.66708 9.841 8.57996 10.0254 8.42292L10.8038 7.75976L14.7788 11.1429H3.92044L7.89544 7.75976ZM12.2838 6.5L16.3496 3.03952V9.96048L12.2838 6.5Z"
        fill="white" />
</svg>