<svg width="20" height="15" viewBox="0 0 20 15" fill="none" xmlns="http://www.w3.org/2000/svg">
<path id="Vector" d="M18.8889 0H1.11111C0.816426 0 0.533811 0.112882 0.325437 0.313814C0.117063 0.514746 0 0.787268 0 1.07143V13.2143C0 13.6879 0.195105 14.1421 0.542395 14.477C0.889684 14.8119 1.36071 15 1.85185 15H18.1481C18.6393 15 19.1103 14.8119 19.4576 14.477C19.8049 14.1421 20 13.6879 20 13.2143V1.07143C20 0.787268 19.8829 0.514746 19.6746 0.313814C19.4662 0.112882 19.1836 0 18.8889 0ZM10 7.475L3.96759 2.14286H16.0324L10 7.475ZM6.73981 7.5L2.22222 11.4929V3.50714L6.73981 7.5ZM8.38426 8.95357L9.24907 9.71875C9.45401 9.89995 9.72195 10.0005 10 10.0005C10.278 10.0005 10.546 9.89995 10.7509 9.71875L11.6157 8.95357L16.0324 12.8571H3.96759L8.38426 8.95357ZM13.2602 7.5L17.7778 3.50714V11.4929L13.2602 7.5Z" fill="white" fill-opacity="0.8"/>
</svg>
