<svg width="32" height="32" viewBox="0 0 32 32" fill="none" xmlns="http://www.w3.org/2000/svg">
<circle cx="16" cy="16" r="16" fill="#0860C6" fill-opacity="0.3"/>
<path d="M20.4 17.25L20.9891 13.6367H17.3734V11.2734C17.3734 10.7786 17.5258 10.3294 17.8305 9.92578C18.1352 9.52213 18.687 9.32031 19.4859 9.32031H21.1313V6.25391C21.1313 6.25391 20.8232 6.21159 20.207 6.12695C19.5909 6.04232 18.9307 6 18.2266 6C17.4818 6 16.8047 6.10417 16.1953 6.3125C15.5859 6.53385 15.068 6.84961 14.6414 7.25977C14.2148 7.66992 13.8865 8.18099 13.6563 8.79297C13.426 9.39193 13.3109 10.082 13.3109 10.8633V13.6367H10V17.25H13.3109V26H17.3734V17.25H20.4Z" fill="white"/>
</svg>
