<svg width="11" height="18" viewBox="0 0 11 18" xmlns="http://www.w3.org/2000/svg">
<path d="M9.36 10.125L9.89016 6.87305H6.63609V4.74609C6.63609 4.30078 6.7732 3.89648 7.04742 3.5332C7.32164 3.16992 7.81828 2.98828 8.53734 2.98828H10.0181V0.228516C10.0181 0.228516 9.74086 0.19043 9.18633 0.114258C8.6318 0.0380859 8.03766 0 7.40391 0C6.73359 0 6.12422 0.09375 5.57578 0.28125C5.02734 0.480469 4.56117 0.764648 4.17727 1.13379C3.79336 1.50293 3.49781 1.96289 3.29063 2.51367C3.08344 3.05273 2.97984 3.67383 2.97984 4.37695V6.87305H0V10.125H2.97984V18H6.63609V10.125H9.36Z"/>
</svg>
