<svg width="24" height="24" viewBox="0 0 24 24" fill="none" xmlns="http://www.w3.org/2000/svg">
<g clip-path="url(#clip0_218_762)">
<g clip-path="url(#clip1_218_762)">
<g clip-path="url(#clip2_218_762)">
<mask id="mask0_218_762" style="mask-type:luminance" maskUnits="userSpaceOnUse" x="-1" y="0" width="25" height="25">
<path d="M-0.5 12.4099C-0.5 19.0269 4.8832 24.4099 11.5 24.4099C18.1169 24.4099 23.5 19.0269 23.5 12.4099C23.5 5.79305 18.1169 0.409916 11.5 0.409916C4.8832 0.409916 -0.5 5.79305 -0.5 12.4099Z" fill="white"/>
</mask>
<g mask="url(#mask0_218_762)">
<path d="M11.5 24.41C4.8832 24.41 -0.5 19.0268 -0.5 12.4099C-0.5 5.79312 4.8832 0.409901 11.5 0.409901C18.1169 0.409901 23.5 5.79312 23.5 12.4099C23.5 19.0268 18.1169 24.41 11.5 24.41Z" fill="#9D3A2E"/>
<path d="M23.6098 34.3199L11.5012 22.2111L11.5 20.15L25.1438 32.7859L23.6098 34.3199Z" fill="#802D22"/>
<path d="M26.453 36.3167L3.71484 13.6713L10.6592 12.4099L18.0282 8.94732L18.2915 5.76072L37.6502 25.1195L26.453 36.3167Z" fill="#802D22"/>
<path d="M17.2726 12.7523C18.3587 12.6883 20.9127 11.4693 20.2729 9.07075C19.6779 10.4568 17.9422 11.2826 16.8213 10.6438C18.7653 9.93097 20.7788 7.3013 16.8907 4.4604C18.7505 7.4438 17.7785 9.70486 13.0473 9.70486H13.0423C12.4522 9.70486 12.1994 9.11014 12.1994 8.61355C12.1994 7.27679 12.6456 6.73126 13.3994 6.23476C12.7943 6.05785 12.4423 6.27406 12.1446 6.53947C10.9446 6.23476 9.68997 6.84908 9.05015 7.2521C8.46488 7.62071 8.97583 7.5864 9.60566 7.6454C10.5578 7.7388 10.8949 8.32363 10.8949 8.82504C10.8949 9.18385 10.5677 9.70486 9.9527 9.70486C5.22152 9.70486 4.24955 7.4438 6.10928 4.4604C2.2212 7.3013 4.23476 9.93097 6.1787 10.6438C5.05781 11.2826 3.32214 10.4568 2.72715 9.07075C2.08734 11.4693 4.64133 12.6883 5.72739 12.7523C4.78028 13.3618 3.74369 13.2046 2.96511 12.6883C4.24955 15.544 9.08482 14.1923 10.0965 13.5338C11.8621 15.3474 9.11967 17.1564 8.8269 18.4982C9.37759 18.0902 9.86839 17.7952 10.5479 17.7362C10.0619 18.4686 9.71466 19.3238 9.54612 20.189C9.92285 19.7269 10.404 19.4025 11.0041 19.3533C11.0041 20.4395 11.1281 21.1866 11.5001 22.209C11.872 21.1866 12.0008 20.4395 12.0008 19.3533C12.596 19.4025 13.082 19.7269 13.459 20.189C13.2903 19.3238 12.9432 18.4686 12.4522 17.7362C13.1316 17.7952 13.6275 18.0902 14.1779 18.4982C13.8854 17.1564 11.1429 15.3474 12.9036 13.5338C13.9152 14.1923 18.7505 15.544 20.0349 12.6883C19.2563 13.2046 18.2197 13.3618 17.2726 12.7523Z" fill="#EBC54D"/>
</g>
</g>
</g>
</g>
<defs>
<clipPath id="clip0_218_762">
<rect width="24" height="24" fill="white"/>
</clipPath>
<clipPath id="clip1_218_762">
<rect width="24" height="24" fill="white" transform="translate(-0.5 0.409912)"/>
</clipPath>
<clipPath id="clip2_218_762">
<rect width="24" height="24" fill="white" transform="translate(-0.5 0.409912)"/>
</clipPath>
</defs>
</svg>
