<svg width="24" height="24" viewBox="0 0 24 24" fill="none" xmlns="http://www.w3.org/2000/svg">
<g clip-path="url(#clip0_218_708)">
<g clip-path="url(#clip1_218_708)">
<g clip-path="url(#clip2_218_708)">
<mask id="mask0_218_708" style="mask-type:luminance" maskUnits="userSpaceOnUse" x="0" y="0" width="24" height="24">
<path d="M0 12C0 18.6274 5.37254 24 12 24C18.6274 24 24 18.6274 24 12C24 5.3726 18.6274 -3.62396e-05 12 -3.62396e-05C5.37254 -3.62396e-05 0 5.3726 0 12Z" fill="white"/>
</mask>
<g mask="url(#mask0_218_708)">
<path d="M24 12C24 18.6275 18.6275 24 12 24C5.37254 24 0 18.6275 0 12C0 5.37254 5.37254 -1.90735e-06 12 -1.90735e-06C18.6275 -1.90735e-06 24 5.37254 24 12Z" fill="#7E5641"/>
<path d="M15.8559 26.8897L6.47656 17.5104L17.5113 6.47569L26.8906 15.855L15.8559 26.8897Z" fill="#664533"/>
<path d="M18.2749 18.2251H8.27486C6.89418 18.2251 5.7749 17.1058 5.7749 15.7251V5.72512H15.7749C17.1556 5.72512 18.2749 6.8444 18.2749 8.22508V18.2251Z" fill="#F0F0E6"/>
<path d="M8.2026 13.7483C8.00063 13.7483 7.84435 13.693 7.73543 13.5828C7.69266 13.5395 7.6931 13.4697 7.7364 13.4269C7.77979 13.3842 7.84956 13.3845 7.89233 13.4279C8.0367 13.574 8.33921 13.5333 8.56737 13.4731C10.1515 13.0558 13.1743 10.538 13.5908 8.99693C13.6882 8.63622 13.6363 8.35206 13.4367 8.1523C13.0851 7.80084 12.2393 7.91735 11.116 8.47191C10.1232 8.96192 9.00226 9.75814 8.26019 10.5002C7.62466 11.1357 7.35002 11.6507 7.54352 11.8442C7.58665 11.8872 7.58665 11.957 7.54352 12.0001C7.50048 12.0432 7.43072 12.0432 7.38768 12.0001C7.2725 11.8849 7.17813 11.6634 7.38239 11.2619C7.51698 10.9975 7.75977 10.6888 8.10426 10.3443C9.48556 8.96307 12.6182 7.02217 13.5925 7.99646C13.8522 8.25601 13.9232 8.61205 13.8037 9.05444C13.5977 9.81635 12.8103 10.8311 11.6434 11.8385C10.5614 12.7726 9.40425 13.4807 8.62355 13.6863C8.46656 13.7277 8.32598 13.7483 8.2026 13.7483Z" fill="#392E2A"/>
<path d="M7.71293 12.1129C7.57958 12.1129 7.46696 12.0795 7.38758 12.0001C7.34446 11.9571 7.34446 11.8873 7.38758 11.8442C7.43062 11.8012 7.50039 11.8012 7.54342 11.8442C7.83649 12.1373 9.58151 11.2077 10.8979 9.89124C12.2691 8.5199 11.9879 7.94249 11.8033 7.75799C11.3998 7.3545 9.20906 8.05591 7.85008 9.19688C7.42895 9.55045 7.24295 9.85481 7.35257 10.0111C7.38758 10.061 7.37541 10.1298 7.32558 10.1647C7.27575 10.1998 7.20705 10.1876 7.17204 10.1377C7.0393 9.94839 7.02449 9.60205 7.70826 9.02799C8.26785 8.55827 9.16894 8.05009 10.0041 7.73347C10.569 7.51934 11.5745 7.21727 11.9592 7.60206C12.4556 8.09842 12.1341 8.96678 11.0538 10.0472C10.452 10.6489 9.66953 11.249 8.96071 11.6522C8.55607 11.8824 8.06333 12.1129 7.71293 12.1129Z" fill="#392E2A"/>
<path d="M9.6711 8.87283C9.64508 8.87283 9.61888 8.86366 9.59789 8.84505C9.55239 8.80457 9.54824 8.7349 9.58872 8.68939C9.82526 8.42313 10.191 7.92783 9.9826 7.60178C9.7951 7.30844 9.22501 7.38438 8.37755 7.81538C8.32331 7.84308 8.2569 7.82138 8.22929 7.76705C8.20169 7.71281 8.2233 7.6464 8.27754 7.6188C9.26769 7.11521 9.90393 7.06943 10.1683 7.48307C10.3838 7.82014 10.2404 8.28793 9.75356 8.83579C9.73177 8.86031 9.70152 8.87283 9.6711 8.87283Z" fill="#392E2A"/>
<path d="M7.4615 10.2639C7.45233 10.2639 7.44342 10.2637 7.4346 10.2633C7.28758 10.2559 7.21129 10.1918 7.17311 10.1392C7.13739 10.09 7.14832 10.021 7.19754 9.98518C7.24684 9.94955 7.3158 9.96048 7.35152 10.0097C7.36943 10.0342 7.41246 10.0414 7.44545 10.043C7.84312 10.0639 8.93153 9.42911 9.58884 8.68933C9.62932 8.64383 9.69899 8.63977 9.74441 8.68016C9.78992 8.72056 9.79407 8.79032 9.75367 8.83583C9.1028 9.56837 7.9822 10.2639 7.4615 10.2639Z" fill="#392E2A"/>
<path d="M10.656 16.1478C10.4198 16.1478 10.2259 16.0859 10.0898 15.9498C10.0468 15.9068 10.0468 15.837 10.0898 15.7939C10.1329 15.7509 10.2026 15.7509 10.2458 15.7939C10.7784 16.3266 12.8314 15.2804 14.4704 13.6415C15.1109 13.001 15.5738 12.3743 15.8092 11.8289C16.0675 11.2304 16.0385 10.7669 15.723 10.4513C14.6279 9.35633 11.2863 11.2457 9.55625 12.9758C9.14941 13.3827 8.85158 13.7619 8.69494 14.0724C8.54193 14.3759 8.52834 14.5938 8.65473 14.7202C8.69776 14.7633 8.69776 14.833 8.65473 14.8761C8.6116 14.9191 8.54184 14.9191 8.4988 14.8761C8.36051 14.7378 8.24806 14.4689 8.49809 13.9731C8.66513 13.642 8.97708 13.2431 9.40032 12.82C10.3212 11.8991 11.6226 10.9896 12.7966 10.4464C14.6236 9.60124 15.4812 9.89775 15.8789 10.2955C16.2592 10.6758 16.3052 11.2363 16.0117 11.9163C15.7654 12.487 15.2863 13.1375 14.6264 13.7974C13.3508 15.0729 11.6393 16.1478 10.656 16.1478Z" fill="#392E2A"/>
<path d="M12.3866 16.7956C12.2442 16.7956 12.1383 16.7597 12.0663 16.6877C12.0233 16.6447 12.0233 16.5749 12.0663 16.5319C12.1094 16.4888 12.1792 16.4888 12.2223 16.5319C12.2455 16.5549 12.3499 16.6227 12.7257 16.5184C13.983 16.1693 16.335 14.4971 16.6451 13.2497C16.7336 12.8934 16.6537 12.6037 16.4008 12.3642C15.431 11.446 12.2721 13.0752 10.8025 14.5855C10.2573 15.1458 10.0492 15.5975 10.2456 15.794C10.2886 15.837 10.2886 15.9068 10.2456 15.9498C10.2024 15.9929 10.1327 15.9929 10.0896 15.9498C9.7882 15.6484 9.98522 15.1092 10.6445 14.4318C11.3852 13.6705 12.5767 12.861 13.6801 12.3691C15.0158 11.7737 16.0358 11.7149 16.5524 12.2041C16.8638 12.499 16.967 12.8687 16.859 13.3028C16.5048 14.728 13.9695 16.4018 12.7847 16.731C12.6293 16.7741 12.497 16.7956 12.3866 16.7956Z" fill="#392E2A"/>
<path d="M12.1444 16.7201C12.1162 16.7201 12.0879 16.7093 12.0664 16.6878C11.9724 16.5937 11.8838 16.4243 11.9956 16.151C12.3808 15.2097 14.8523 13.7373 16.064 13.7269C16.5153 13.7206 16.6995 13.9232 16.7719 14.0916C17.1551 14.9846 15.525 16.2763 15.0163 16.6509C14.9672 16.6869 14.8982 16.6766 14.862 16.6275C14.8259 16.5785 14.8364 16.5094 14.8855 16.4733C15.8209 15.7846 16.8232 14.7704 16.5693 14.1787C16.5034 14.0251 16.3378 13.9474 16.0771 13.9474C16.0734 13.9474 16.0696 13.9474 16.0659 13.9475C15.5414 13.9518 14.6831 14.2739 13.826 14.7878C12.9934 15.2871 12.3551 15.8549 12.1997 16.2346C12.1281 16.4093 12.1783 16.4879 12.2223 16.5319C12.2654 16.5749 12.2654 16.6448 12.2223 16.6878C12.2008 16.7093 12.1726 16.7201 12.1444 16.7201Z" fill="#392E2A"/>
<path d="M9.19965 15.1253C8.89934 15.1253 8.66475 15.0421 8.49877 14.8761C8.45573 14.8331 8.45573 14.7633 8.49877 14.7202C8.54189 14.6771 8.61165 14.6771 8.65469 14.7202C8.91319 14.9787 9.40108 14.9169 9.7648 14.8193C10.6414 14.5845 11.8515 13.8658 12.923 12.9435C14.0639 11.9615 14.8401 10.9439 15.0524 10.1514C15.1763 9.68878 15.1028 9.31765 14.8336 9.04857C14.4128 8.62789 13.6739 8.71405 13.1282 8.8601C12.1628 9.11886 10.9204 9.79726 9.80475 10.6751C8.7316 11.5193 7.97013 12.3978 7.81746 12.9674C7.76269 13.1721 7.78695 13.3226 7.89181 13.4274C7.93494 13.4705 7.93494 13.5402 7.89181 13.5834C7.84877 13.6264 7.77901 13.6264 7.73597 13.5834C7.62379 13.4712 7.50993 13.2634 7.60456 12.9104C7.96686 11.558 10.9812 9.20715 13.0711 8.64711C13.9464 8.4126 14.592 8.49507 14.9895 8.89265C15.3183 9.22152 15.4112 9.66426 15.2654 10.2085C14.7834 12.0071 11.692 14.5313 9.82186 15.0323C9.59044 15.0943 9.38283 15.1253 9.19965 15.1253Z" fill="#392E2A"/>
</g>
</g>
</g>
</g>
<defs>
<clipPath id="clip0_218_708">
<rect width="24" height="24" fill="white"/>
</clipPath>
<clipPath id="clip1_218_708">
<rect width="24" height="24" fill="white"/>
</clipPath>
<clipPath id="clip2_218_708">
<rect width="24" height="24" fill="white"/>
</clipPath>
</defs>
</svg>
