<svg width="24" height="24" viewBox="0 0 24 24" fill="none" xmlns="http://www.w3.org/2000/svg">
	<g id="Cart">
		<path
			d="M19.7508 3.95624C19.6502 3.83581 19.5245 3.73892 19.3824 3.67243C19.2403 3.60593 19.0853 3.57145 18.9284 3.57142H4.8214L4.44015 1.46607C4.36529 1.05462 4.1484 0.682495 3.82729 0.414575C3.50618 0.146655 3.10122 -6.30967e-05 2.68302 2.03558e-08H1.07142C0.787263 2.03558e-08 0.514742 0.112882 0.313812 0.313814C0.112882 0.514745 0 0.787267 0 1.07143C0 1.35559 0.112882 1.62811 0.313812 1.82904C0.514742 2.02997 0.787263 2.14285 1.07142 2.14285H2.3848L4.6089 14.375C4.66861 14.6999 4.79212 15.0097 4.97229 15.2866C4.65331 15.6598 4.4359 16.1089 4.341 16.5906C4.24611 17.0723 4.27695 17.5704 4.43054 18.0367C4.58413 18.503 4.8553 18.9219 5.21788 19.2529C5.58046 19.5839 6.02222 19.8159 6.50055 19.9265C6.97889 20.0372 7.47766 20.0226 7.94875 19.8844C8.41984 19.7462 8.84737 19.4888 9.19008 19.1373C9.5328 18.7858 9.77914 18.3518 9.90535 17.8774C10.0316 17.4029 10.0334 16.9039 9.91065 16.4286H12.9463C12.7974 17.0054 12.8325 17.6145 13.0468 18.1704C13.2611 18.7263 13.6438 19.2014 14.1414 19.5291C14.639 19.8567 15.2266 20.0207 15.822 19.9979C16.4173 19.9751 16.9907 19.7668 17.4618 19.402C17.9329 19.0373 18.2782 18.5344 18.4494 17.9637C18.6206 17.393 18.6091 16.7831 18.4165 16.2193C18.2239 15.6555 17.8599 15.166 17.3753 14.8193C16.8908 14.4725 16.31 14.286 15.7142 14.2857H7.0687C6.9852 14.2856 6.90438 14.2562 6.84028 14.2027C6.77617 14.1492 6.73284 14.075 6.71781 13.9928L6.51067 12.8571H16.4374C17.023 12.8571 17.59 12.6516 18.0396 12.2763C18.4891 11.901 18.7926 11.3798 18.8972 10.8036L19.9829 4.83392C20.0108 4.67955 20.0045 4.52094 19.9644 4.36928C19.9243 4.21762 19.8513 4.07662 19.7508 3.95624ZM7.85709 17.1428C7.85709 17.2841 7.8152 17.4222 7.73671 17.5397C7.65822 17.6571 7.54667 17.7487 7.41615 17.8027C7.28563 17.8568 7.14202 17.871 7.00346 17.8434C6.8649 17.8158 6.73763 17.7478 6.63774 17.6479C6.53784 17.548 6.46981 17.4207 6.44225 17.2822C6.41469 17.1436 6.42884 17 6.4829 16.8695C6.53696 16.739 6.62851 16.6274 6.74598 16.5489C6.86344 16.4704 7.00154 16.4286 7.14281 16.4286C7.33225 16.4286 7.51393 16.5038 7.64788 16.6378C7.78183 16.7717 7.85709 16.9534 7.85709 17.1428ZM15.7142 17.8571C15.5729 17.8571 15.4348 17.8152 15.3173 17.7367C15.1999 17.6583 15.1083 17.5467 15.0543 17.4162C15.0002 17.2857 14.9861 17.142 15.0136 17.0035C15.0412 16.8649 15.1092 16.7377 15.2091 16.6378C15.309 16.5379 15.4363 16.4698 15.5748 16.4423C15.7134 16.4147 15.857 16.4289 15.9875 16.4829C16.118 16.537 16.2296 16.6285 16.3081 16.746C16.3866 16.8635 16.4285 17.0016 16.4285 17.1428C16.4285 17.3323 16.3532 17.514 16.2193 17.6479C16.0853 17.7819 15.9036 17.8571 15.7142 17.8571ZM16.7856 10.4214C16.7707 10.5031 16.7277 10.577 16.6642 10.6305C16.6006 10.6839 16.5204 10.7136 16.4374 10.7143H6.12139L5.21246 5.71428H17.6445L16.7856 10.4214Z" />
	</g>

	<g id="Basket">
		<path
			d="M20.6793 4.97305C20.5077 4.79037 20.2972 4.64408 20.0617 4.54376C19.8262 4.44344 19.571 4.39136 19.3128 4.39093H15.289C15.1928 3.26797 14.6537 2.22041 13.7788 1.45661C12.9039 0.69281 11.7574 0.268738 10.5673 0.268738C9.3772 0.268738 8.23069 0.69281 7.35582 1.45661C6.48095 2.22041 5.94182 3.26797 5.84567 4.39093H1.82913C1.57119 4.38997 1.31598 4.44087 1.08038 4.54026C0.844775 4.63965 0.634148 4.78526 0.462431 4.96747C0.290714 5.14968 0.161821 5.36432 0.0842792 5.59721C0.00673718 5.8301 -0.0176868 6.07592 0.0126229 6.31841L1.31078 16.6673C1.36449 17.0874 1.57901 17.4744 1.91375 17.7549C2.2485 18.0354 2.68024 18.19 3.12729 18.1894H18.0073C18.4544 18.19 18.8861 18.0354 19.2209 17.7549C19.5556 17.4744 19.7701 17.0874 19.8238 16.6673L21.122 6.31841C21.1524 6.07729 21.1287 5.83282 21.0524 5.60098C20.9761 5.36914 20.8489 5.15516 20.6793 4.97305ZM10.5673 2.32115C11.1806 2.32121 11.7734 2.53047 12.237 2.9106C12.7006 3.29073 13.004 3.81626 13.0917 4.39093H8.04297C8.13059 3.81626 8.434 3.29073 8.89761 2.9106C9.36122 2.53047 9.95399 2.32121 10.5673 2.32115ZM17.6903 16.1197H3.44431L2.23179 6.46071H5.83018V8.18552C5.83018 8.45999 5.94536 8.72322 6.15037 8.9173C6.35538 9.11138 6.63344 9.22041 6.92337 9.22041C7.2133 9.22041 7.49135 9.11138 7.69636 8.9173C7.90138 8.72322 8.01655 8.45999 8.01655 8.18552V6.46071H13.1181V8.18552C13.1181 8.45999 13.2332 8.72322 13.4383 8.9173C13.6433 9.11138 13.9213 9.22041 14.2113 9.22041C14.5012 9.22041 14.7792 9.11138 14.9843 8.9173C15.1893 8.72322 15.3044 8.45999 15.3044 8.18552V6.46071H18.9028L17.6903 16.1197Z" />
		<path
			d="M9.24681 14.1498C9.19033 14.1115 9.14353 14.0562 9.11119 13.9896C9.07885 13.9229 9.06215 13.8474 9.06279 13.7706L9.06279 10.661C9.06215 10.5843 9.07885 10.5087 9.11119 10.4421C9.14353 10.3754 9.19033 10.3201 9.24681 10.2818C9.30114 10.2444 9.36293 10.2247 9.42585 10.2247C9.48877 10.2247 9.55056 10.2444 9.60489 10.2818L11.8975 11.8362C11.9537 11.8751 12.0003 11.9306 12.0326 11.9971C12.065 12.0637 12.082 12.1391 12.082 12.2158C12.082 12.2925 12.065 12.3679 12.0326 12.4345C12.0003 12.5011 11.9537 12.5566 11.8975 12.5954L9.60489 14.1502C9.55053 14.1875 9.48873 14.2072 9.42581 14.2071C9.36289 14.207 9.30111 14.1873 9.24681 14.1498Z" />
	</g>
	<g id="List">
		<path id="Vector"
			d="M24.9375 14C24.9375 14.3481 24.7992 14.6819 24.5531 14.9281C24.3069 15.1742 23.9731 15.3125 23.625 15.3125H4.375C4.0269 15.3125 3.69306 15.1742 3.44692 14.9281C3.20078 14.6819 3.0625 14.3481 3.0625 14C3.0625 13.6519 3.20078 13.3181 3.44692 13.0719C3.69306 12.8258 4.0269 12.6875 4.375 12.6875H23.625C23.9731 12.6875 24.3069 12.8258 24.5531 13.0719C24.7992 13.3181 24.9375 13.6519 24.9375 14ZM4.375 8.3125H23.625C23.9731 8.3125 24.3069 8.17422 24.5531 7.92808C24.7992 7.68194 24.9375 7.3481 24.9375 7C24.9375 6.6519 24.7992 6.31806 24.5531 6.07192C24.3069 5.82578 23.9731 5.6875 23.625 5.6875H4.375C4.0269 5.6875 3.69306 5.82578 3.44692 6.07192C3.20078 6.31806 3.0625 6.6519 3.0625 7C3.0625 7.3481 3.20078 7.68194 3.44692 7.92808C3.69306 8.17422 4.0269 8.3125 4.375 8.3125ZM23.625 19.6875H4.375C4.0269 19.6875 3.69306 19.8258 3.44692 20.0719C3.20078 20.3181 3.0625 20.6519 3.0625 21C3.0625 21.3481 3.20078 21.6819 3.44692 21.9281C3.69306 22.1742 4.0269 22.3125 4.375 22.3125H23.625C23.9731 22.3125 24.3069 22.1742 24.5531 21.9281C24.7992 21.6819 24.9375 21.3481 24.9375 21C24.9375 20.6519 24.7992 20.3181 24.5531 20.0719C24.3069 19.8258 23.9731 19.6875 23.625 19.6875Z"
			fill="#EEEDEE" fill-opacity="0.52" />
	</g>
	<g id="Mail">
		<path id="Vector"
			d="M18.8889 0H1.11111C0.816426 0 0.533811 0.112882 0.325437 0.313814C0.117063 0.514746 0 0.787268 0 1.07143V13.2143C0 13.6879 0.195105 14.1421 0.542395 14.477C0.889684 14.8119 1.36071 15 1.85185 15H18.1481C18.6393 15 19.1103 14.8119 19.4576 14.477C19.8049 14.1421 20 13.6879 20 13.2143V1.07143C20 0.787268 19.8829 0.514746 19.6746 0.313814C19.4662 0.112882 19.1836 0 18.8889 0ZM10 7.475L3.96759 2.14286H16.0324L10 7.475ZM6.73981 7.5L2.22222 11.4929V3.50714L6.73981 7.5ZM8.38426 8.95357L9.24907 9.71875C9.45401 9.89995 9.72195 10.0005 10 10.0005C10.278 10.0005 10.546 9.89995 10.7509 9.71875L11.6157 8.95357L16.0324 12.8571H3.96759L8.38426 8.95357ZM13.2602 7.5L17.7778 3.50714V11.4929L13.2602 7.5Z" />
	</g>

	<g id="Download">
		<path id="Vector"
			d="M15.6948 4.96L10.8252 0.293333C10.7283 0.200348 10.6132 0.126581 10.4866 0.0762485C10.3599 0.0259161 10.2241 6.12714e-06 10.087 0H1.73913C1.27788 0 0.83553 0.175595 0.50938 0.488155C0.183229 0.800716 0 1.22464 0 1.66667V16.3333C0 16.7754 0.183229 17.1993 0.50938 17.5118C0.83553 17.8244 1.27788 18 1.73913 18H14.2609C14.7221 18 15.1645 17.8244 15.4906 17.5118C15.8168 17.1993 16 16.7754 16 16.3333V5.66667C16 5.40166 15.8902 5.14749 15.6948 4.96ZM10.7826 3.08333L12.7826 5H10.7826V3.08333ZM2.08696 16V2H8.69565V6C8.69565 6.26522 8.80559 6.51957 9.00128 6.70711C9.19697 6.89464 9.46238 7 9.73913 7H13.913V16H2.08696ZM10.8252 10.9592C10.9225 11.0521 10.9997 11.1625 11.0524 11.284C11.105 11.4056 11.1321 11.5359 11.1321 11.6675C11.1321 11.7991 11.105 11.9294 11.0524 12.051C10.9997 12.1725 10.9225 12.2829 10.8252 12.3758L8.73826 14.3758C8.64132 14.4691 8.52613 14.543 8.39929 14.5935C8.27245 14.644 8.13647 14.67 7.99913 14.67C7.86179 14.67 7.72581 14.644 7.59897 14.5935C7.47214 14.543 7.35694 14.4691 7.26 14.3758L5.17304 12.3758C4.97701 12.188 4.86689 11.9332 4.86689 11.6675C4.86689 11.4018 4.97701 11.147 5.17304 10.9592C5.36907 10.7713 5.63495 10.6658 5.91217 10.6658C6.1894 10.6658 6.45527 10.7713 6.6513 10.9592L6.95652 11.25V8.66667C6.95652 8.40145 7.06646 8.1471 7.26215 7.95956C7.45784 7.77202 7.72325 7.66667 8 7.66667C8.27675 7.66667 8.54216 7.77202 8.73785 7.95956C8.93354 8.1471 9.04348 8.40145 9.04348 8.66667V11.25L9.3487 10.9567C9.44578 10.8639 9.561 10.7903 9.68777 10.7402C9.81454 10.6901 9.95037 10.6644 10.0875 10.6646C10.2246 10.6649 10.3604 10.691 10.4869 10.7415C10.6135 10.7921 10.7285 10.866 10.8252 10.9592Z" />
	</g>

	<g id="Settings">
		<path id="Vector"
			d="M15.1724 7.17241H14.291C14.2193 6.62225 14.0751 6.08401 13.8621 5.57172L14.6262 5.13034C14.7224 5.07711 14.807 5.00523 14.8751 4.91892C14.9433 4.83261 14.9935 4.73359 15.0229 4.62764C15.0523 4.5217 15.0603 4.41096 15.0465 4.30189C15.0326 4.19281 14.9971 4.0876 14.9422 3.99238C14.8872 3.89717 14.8138 3.81386 14.7262 3.74734C14.6387 3.68081 14.5388 3.6324 14.4323 3.60492C14.3258 3.57744 14.215 3.57145 14.1062 3.5873C13.9974 3.60316 13.8928 3.64053 13.7986 3.69724L13.0345 4.13793C12.6961 3.69797 12.302 3.30386 11.8621 2.96552L12.3041 2.19931C12.3609 2.10511 12.3982 2.00056 12.4141 1.89176C12.4299 1.78296 12.4239 1.67209 12.3965 1.56563C12.369 1.45917 12.3206 1.35925 12.254 1.27171C12.1875 1.18417 12.1042 1.11076 12.009 1.05578C11.9138 1.00079 11.8086 0.965331 11.6995 0.951466C11.5904 0.937602 11.4797 0.94561 11.3737 0.975025C11.2678 1.00444 11.1688 1.05467 11.0825 1.12278C10.9961 1.19089 10.9243 1.27552 10.871 1.37172L10.4283 2.13793C9.91599 1.92489 9.37775 1.78065 8.82759 1.70897V0.827586C8.82759 0.608097 8.74039 0.397597 8.58519 0.242394C8.42999 0.0871919 8.21949 0 8 0C7.78051 0 7.57001 0.0871919 7.41481 0.242394C7.25961 0.397597 7.17241 0.608097 7.17241 0.827586V1.70897C6.62225 1.78065 6.08401 1.92489 5.57172 2.13793L5.13034 1.37379C5.01848 1.18799 4.83815 1.05353 4.62816 0.99933C4.41817 0.945132 4.19529 0.975531 4.00748 1.08399C3.81967 1.19244 3.68194 1.37029 3.62392 1.57926C3.5659 1.78823 3.59223 2.01162 3.69724 2.20138L4.13793 2.96552C3.69797 3.30386 3.30386 3.69797 2.96552 4.13793L2.20207 3.69724C2.01231 3.59223 1.78892 3.5659 1.57995 3.62392C1.37098 3.68194 1.19313 3.81967 1.08468 4.00748C0.97622 4.19529 0.945821 4.41817 1.00002 4.62816C1.05422 4.83815 1.18868 5.01848 1.37448 5.13034L2.13793 5.57172C1.92489 6.08401 1.78065 6.62225 1.70897 7.17241H0.827586C0.608097 7.17241 0.397597 7.25961 0.242394 7.41481C0.0871919 7.57001 0 7.78051 0 8C0 8.21949 0.0871919 8.42999 0.242394 8.58519C0.397597 8.74039 0.608097 8.82759 0.827586 8.82759H1.70897C1.78065 9.37775 1.92489 9.91599 2.13793 10.4283L1.37379 10.8697C1.27759 10.9229 1.19296 10.9948 1.12485 11.0811C1.05674 11.1674 1.00651 11.2664 0.977094 11.3724C0.947679 11.4783 0.939671 11.589 0.953535 11.6981C0.9674 11.8072 1.00286 11.9124 1.05784 12.0076C1.11283 12.1028 1.18623 12.1861 1.27377 12.2527C1.36132 12.3192 1.46123 12.3676 1.5677 12.3951C1.67416 12.4226 1.78503 12.4285 1.89383 12.4127C2.00263 12.3968 2.10718 12.3595 2.20138 12.3028L2.96552 11.8621C3.30386 12.302 3.69797 12.6961 4.13793 13.0345L3.69586 13.8007C3.63915 13.8949 3.60178 13.9994 3.58593 14.1082C3.57007 14.217 3.57606 14.3279 3.60354 14.4344C3.63102 14.5408 3.67943 14.6408 3.74596 14.7283C3.81249 14.8158 3.89579 14.8892 3.991 14.9442C4.08622 14.9992 4.19143 15.0347 4.30051 15.0485C4.40958 15.0624 4.52032 15.0544 4.62627 15.025C4.73221 14.9956 4.83123 14.9453 4.91754 14.8772C5.00385 14.8091 5.07573 14.7245 5.12897 14.6283L5.57172 13.8621C6.08401 14.0751 6.62225 14.2193 7.17241 14.291V15.1724C7.17241 15.3919 7.25961 15.6024 7.41481 15.7576C7.57001 15.9128 7.78051 16 8 16C8.21949 16 8.42999 15.9128 8.58519 15.7576C8.74039 15.6024 8.82759 15.3919 8.82759 15.1724V14.291C9.37775 14.2193 9.91599 14.0751 10.4283 13.8621L10.8697 14.6262C10.9815 14.812 11.1618 14.9465 11.3718 15.0007C11.5818 15.0549 11.8047 15.0245 11.9925 14.916C12.1803 14.8076 12.3181 14.6297 12.3761 14.4207C12.4341 14.2118 12.4078 13.9884 12.3028 13.7986L11.8621 13.0345C12.302 12.6961 12.6961 12.302 13.0345 11.8621L13.8007 12.3041C13.8949 12.3609 13.9994 12.3982 14.1082 12.4141C14.217 12.4299 14.3279 12.4239 14.4344 12.3965C14.5408 12.369 14.6408 12.3206 14.7283 12.254C14.8158 12.1875 14.8892 12.1042 14.9442 12.009C14.9992 11.9138 15.0347 11.8086 15.0485 11.6995C15.0624 11.5904 15.0544 11.4797 15.025 11.3737C14.9956 11.2678 14.9453 11.1688 14.8772 11.0825C14.8091 10.9961 14.7245 10.9243 14.6283 10.871L13.8621 10.4283C14.0751 9.91599 14.2193 9.37775 14.291 8.82759H15.1724C15.3919 8.82759 15.6024 8.74039 15.7576 8.58519C15.9128 8.42999 16 8.21949 16 8C16 7.78051 15.9128 7.57001 15.7576 7.41481C15.6024 7.25961 15.3919 7.17241 15.1724 7.17241ZM8 3.31034C9.09972 3.3119 10.164 3.69932 11.0074 4.40509C11.8508 5.11085 12.4198 6.09019 12.6152 7.17241H8.47724L6.40828 3.58621C6.91876 3.40234 7.45742 3.30899 8 3.31034ZM3.31034 8C3.31039 7.3177 3.45954 6.64365 3.74735 6.02503C4.03516 5.4064 4.45468 4.85815 4.97655 4.41862L7.04552 8L4.97655 11.5814C4.45468 11.1419 4.03516 10.5936 3.74735 9.97497C3.45954 9.35635 3.31039 8.6823 3.31034 8ZM8 12.6897C7.45765 12.6909 6.91923 12.5976 6.40897 12.4138L8.47793 8.82759H12.6159C12.4204 9.90993 11.8514 10.8894 11.0078 11.5951C10.1643 12.3009 9.09984 12.6883 8 12.6897Z" />
	</g>

	<g id="Orders">
		<path id="Vector"
			d="M14.5185 3.45036H11.8393C11.7611 2.51042 11.3227 1.63359 10.6113 0.994273C9.89995 0.354957 8.9677 0 8 0C7.0323 0 6.10005 0.354957 5.38868 0.994273C4.6773 1.63359 4.23893 2.51042 4.16074 3.45036H1.48148C1.08857 3.45036 0.711748 3.60246 0.433916 3.87321C0.156084 4.14396 0 4.51117 0 4.89406V13.5563C0 13.9392 0.156084 14.3064 0.433916 14.5771C0.711748 14.8479 1.08857 15 1.48148 15H14.5185C14.9114 15 15.2883 14.8479 15.5661 14.5771C15.8439 14.3064 16 13.9392 16 13.5563V4.89406C16 4.51117 15.8439 4.14396 15.5661 3.87321C15.2883 3.60246 14.9114 3.45036 14.5185 3.45036ZM8 1.71791C8.49871 1.71796 8.9807 1.89312 9.35767 2.21129C9.73464 2.52947 9.98135 2.96935 10.0526 3.45036H5.94741C6.01865 2.96935 6.26536 2.52947 6.64233 2.21129C7.0193 1.89312 7.50129 1.71796 8 1.71791ZM14.2222 13.2676H1.77778V5.18281H4.14815V6.04903C4.14815 6.27877 4.2418 6.49909 4.4085 6.66154C4.5752 6.82399 4.80129 6.91525 5.03704 6.91525C5.27279 6.91525 5.49888 6.82399 5.66558 6.66154C5.83228 6.49909 5.92593 6.27877 5.92593 6.04903V5.18281H10.0741V6.04903C10.0741 6.27877 10.1677 6.49909 10.3344 6.66154C10.5011 6.82399 10.7272 6.91525 10.963 6.91525C11.1987 6.91525 11.4248 6.82399 11.5915 6.66154C11.7582 6.49909 11.8519 6.27877 11.8519 6.04903V5.18281H14.2222V13.2676Z" />
	</g>
	<g id="Logout">
		<path id="Vector"
			d="M10.3508 8.47578L7.22578 11.6008C7.04966 11.7769 6.81079 11.8758 6.56172 11.8758C6.31265 11.8758 6.07378 11.7769 5.89766 11.6008C5.72154 11.4247 5.62259 11.1858 5.62259 10.9367C5.62259 10.6876 5.72154 10.4488 5.89766 10.2727L7.42188 8.75L0.9375 8.75C0.68886 8.75 0.450403 8.65123 0.274587 8.47541C0.0987721 8.2996 0 8.06114 0 7.8125C0 7.56386 0.0987721 7.3254 0.274587 7.14959C0.450403 6.97377 0.68886 6.875 0.9375 6.875L7.42188 6.875L5.89922 5.35078C5.81201 5.26358 5.74284 5.16005 5.69564 5.04611C5.64845 4.93217 5.62416 4.81005 5.62416 4.68672C5.62416 4.43765 5.7231 4.19878 5.89922 4.02266C6.07534 3.84654 6.31421 3.74759 6.56328 3.74759C6.81235 3.74759 7.05122 3.84654 7.22734 4.02266L10.3523 7.14766C10.4396 7.23486 10.5089 7.33843 10.5561 7.45244C10.6032 7.56645 10.6274 7.68865 10.6273 7.81204C10.6272 7.93543 10.6027 8.05758 10.5552 8.17148C10.5078 8.28538 10.4383 8.38879 10.3508 8.47578ZM14.0625 0L9.6875 0C9.43886 0 9.2004 0.0987721 9.02459 0.274587C8.84877 0.450403 8.75 0.68886 8.75 0.9375C8.75 1.18614 8.84877 1.4246 9.02459 1.60041C9.2004 1.77623 9.43886 1.875 9.6875 1.875L13.75 1.875L13.75 13.75H9.6875C9.43886 13.75 9.2004 13.8488 9.02459 14.0246C8.84877 14.2004 8.75 14.4389 8.75 14.6875C8.75 14.9361 8.84877 15.1746 9.02459 15.3504C9.2004 15.5262 9.43886 15.625 9.6875 15.625H14.0625C14.4769 15.625 14.8743 15.4604 15.1674 15.1674C15.4604 14.8743 15.625 14.4769 15.625 14.0625L15.625 1.5625C15.625 1.1481 15.4604 0.750671 15.1674 0.457646C14.8743 0.16462 14.4769 0 14.0625 0Z" />
	</g>

	<g id="CaretDown">
		<path id="Vector"
			d="M13.5306 6.53073L8.5306 11.5307C8.46092 11.6007 8.37813 11.6561 8.28696 11.694C8.1958 11.7318 8.09806 11.7513 7.99935 11.7513C7.90064 11.7513 7.8029 11.7318 7.71173 11.694C7.62057 11.6561 7.53778 11.6007 7.4681 11.5307L2.4681 6.53073C2.3272 6.38984 2.24805 6.19874 2.24805 5.99948C2.24805 5.80023 2.3272 5.60913 2.4681 5.46823C2.60899 5.32734 2.80009 5.24818 2.99935 5.24818C3.19861 5.24818 3.3897 5.32734 3.5306 5.46823L7.99997 9.93761L12.4693 5.46761C12.6102 5.32671 12.8013 5.24756 13.0006 5.24756C13.1999 5.24756 13.391 5.32671 13.5318 5.46761C13.6727 5.60851 13.7519 5.7996 13.7519 5.99886C13.7519 6.19812 13.6727 6.38921 13.5318 6.53011L13.5306 6.53073Z" />
	</g>

	<g id="CaretUp">
		<path id="Vector"
			d="M13.5306 10.5307C13.4609 10.6006 13.3781 10.656 13.287 10.6939C13.1958 10.7318 13.0981 10.7512 12.9993 10.7512C12.9006 10.7512 12.8029 10.7318 12.7117 10.6939C12.6206 10.656 12.5378 10.6006 12.4681 10.5307L7.99997 6.06252L3.5306 10.5307C3.3897 10.6715 3.19861 10.7507 2.99935 10.7507C2.80009 10.7507 2.60899 10.6715 2.4681 10.5307C2.3272 10.3898 2.24805 10.1987 2.24805 9.9994C2.24805 9.80014 2.3272 9.60905 2.4681 9.46815L7.4681 4.46815C7.53778 4.39823 7.62057 4.34275 7.71173 4.3049C7.8029 4.26704 7.90064 4.24756 7.99935 4.24756C8.09806 4.24756 8.1958 4.26704 8.28696 4.3049C8.37813 4.34275 8.46092 4.39823 8.5306 4.46815L13.5306 9.46815C13.6005 9.53783 13.656 9.62062 13.6938 9.71179C13.7317 9.80295 13.7512 9.90069 13.7512 9.9994C13.7512 10.0981 13.7317 10.1959 13.6938 10.287C13.656 10.3782 13.6005 10.461 13.5306 10.5307Z" />
	</g>
	<g id="CaretLeft">
		<path id="Vector"
			d="M10.5307 12.4693C10.6715 12.6102 10.7507 12.8013 10.7507 13.0006C10.7507 13.1998 10.6715 13.3909 10.5307 13.5318C10.3898 13.6727 10.1987 13.7519 9.9994 13.7519C9.80014 13.7519 9.60905 13.6727 9.46815 13.5318L4.46815 8.53182C4.39823 8.46214 4.34275 8.37935 4.3049 8.28818C4.26704 8.19702 4.24756 8.09928 4.24756 8.00057C4.24756 7.90186 4.26704 7.80412 4.3049 7.71295C4.34275 7.62179 4.39823 7.539 4.46815 7.46932L9.46815 2.46932C9.60905 2.32842 9.80014 2.24927 9.9994 2.24927C10.1987 2.24927 10.3898 2.32842 10.5307 2.46932C10.6715 2.61021 10.7507 2.80131 10.7507 3.00057C10.7507 3.19983 10.6715 3.39092 10.5307 3.53182L6.06252 7.99994L10.5307 12.4693Z" />
	</g>

	<g id="CaretRight">
		<path id="Vector"
			d="M11.5306 8.5306L6.5306 13.5306C6.3897 13.6715 6.19861 13.7506 5.99935 13.7506C5.80009 13.7506 5.60899 13.6715 5.4681 13.5306C5.3272 13.3897 5.24805 13.1986 5.24805 12.9993C5.24805 12.8001 5.3272 12.609 5.4681 12.4681L9.93747 7.99997L5.46935 3.5306C5.39958 3.46083 5.34424 3.37801 5.30649 3.28686C5.26873 3.19571 5.2493 3.09801 5.2493 2.99935C5.2493 2.90069 5.26873 2.80299 5.30649 2.71184C5.34424 2.62069 5.39958 2.53786 5.46935 2.4681C5.53911 2.39833 5.62194 2.34299 5.71309 2.30524C5.80424 2.26748 5.90194 2.24805 6.0006 2.24805C6.09926 2.24805 6.19696 2.26748 6.28811 2.30524C6.37926 2.34299 6.46208 2.39833 6.53185 2.4681L11.5318 7.4681C11.6017 7.53786 11.6571 7.62072 11.6948 7.71193C11.7326 7.80313 11.7519 7.9009 11.7518 7.99961C11.7517 8.09832 11.7321 8.19603 11.6941 8.28715C11.6562 8.37827 11.6006 8.461 11.5306 8.5306Z" />
	</g>

	<g id="XCircle">
		<circle cx="9" cy="9" r="8.5" stroke="white" />
		<path
			d="M13 12.1943L12.1943 13L9 9.80571L5.80571 13L5 12.1943L8.19429 9L5 5.80571L5.80571 5L9 8.19429L12.1943 5L13 5.80571L9.80571 9L13 12.1943Z"
			fill="white" />
	</g>
	<g id="Success">
		<path id="Vector"
			d="M11.0306 5.96938C11.1005 6.03905 11.156 6.12185 11.1939 6.21301C11.2317 6.30417 11.2512 6.40191 11.2512 6.50063C11.2512 6.59934 11.2317 6.69708 11.1939 6.78824C11.156 6.8794 11.1005 6.9622 11.0306 7.03188L7.53063 10.5319C7.46095 10.6018 7.37816 10.6573 7.28699 10.6951C7.19583 10.733 7.09809 10.7525 6.99938 10.7525C6.90067 10.7525 6.80293 10.733 6.71176 10.6951C6.6206 10.6573 6.53781 10.6018 6.46813 10.5319L4.96813 9.03187C4.89836 8.96211 4.84302 8.87929 4.80527 8.78814C4.76751 8.69698 4.74808 8.59929 4.74808 8.50062C4.74808 8.40196 4.76751 8.30427 4.80527 8.21311C4.84302 8.12196 4.89836 8.03914 4.96813 7.96938C5.03789 7.89961 5.12072 7.84427 5.21187 7.80651C5.30302 7.76876 5.40072 7.74932 5.49938 7.74932C5.59804 7.74932 5.69574 7.76876 5.78689 7.80651C5.87804 7.84427 5.96086 7.89961 6.03063 7.96938L7 8.9375L9.96938 5.9675C10.0392 5.89789 10.122 5.84272 10.2131 5.80513C10.3042 5.76755 10.4018 5.7483 10.5004 5.74847C10.599 5.74865 10.6965 5.76825 10.7875 5.80615C10.8785 5.84405 10.9611 5.89952 11.0306 5.96938ZM14.75 8C14.75 9.33502 14.3541 10.6401 13.6124 11.7501C12.8707 12.8601 11.8165 13.7253 10.5831 14.2362C9.34971 14.7471 7.99252 14.8808 6.68314 14.6203C5.37377 14.3598 4.17104 13.717 3.22703 12.773C2.28303 11.829 1.64015 10.6262 1.3797 9.31686C1.11925 8.00749 1.25292 6.65029 1.76382 5.41689C2.27471 4.18349 3.13987 3.12928 4.2499 2.38758C5.35994 1.64588 6.66498 1.25 8 1.25C9.78961 1.25199 11.5053 1.96378 12.7708 3.22922C14.0362 4.49466 14.748 6.2104 14.75 8ZM13.25 8C13.25 6.96165 12.9421 5.94661 12.3652 5.08326C11.7883 4.2199 10.9684 3.54699 10.0091 3.14963C9.04978 2.75227 7.99418 2.6483 6.97578 2.85088C5.95738 3.05345 5.02192 3.55346 4.28769 4.28769C3.55347 5.02191 3.05345 5.95738 2.85088 6.97578C2.64831 7.99418 2.75228 9.04978 3.14964 10.0091C3.547 10.9684 4.2199 11.7883 5.08326 12.3652C5.94662 12.9421 6.96165 13.25 8 13.25C9.39193 13.2485 10.7264 12.6949 11.7107 11.7107C12.6949 10.7264 13.2485 9.39193 13.25 8Z" />
	</g>
	<g id="Info">
		<path id="Vector"
			d="M6.75 5.25C6.75 5.05222 6.80865 4.85888 6.91853 4.69443C7.02841 4.52998 7.18459 4.40181 7.36732 4.32612C7.55005 4.25043 7.75111 4.23063 7.94509 4.26921C8.13907 4.3078 8.31726 4.40304 8.45711 4.54289C8.59696 4.68275 8.6922 4.86093 8.73079 5.05491C8.76937 5.24889 8.74957 5.44996 8.67388 5.63268C8.5982 5.81541 8.47002 5.97159 8.30557 6.08147C8.14112 6.19135 7.94778 6.25 7.75 6.25C7.48479 6.25 7.23043 6.14464 7.0429 5.95711C6.85536 5.76957 6.75 5.51522 6.75 5.25ZM14.75 8C14.75 9.33502 14.3541 10.6401 13.6124 11.7501C12.8707 12.8601 11.8165 13.7253 10.5831 14.2362C9.34971 14.7471 7.99252 14.8808 6.68314 14.6203C5.37377 14.3598 4.17104 13.717 3.22703 12.773C2.28303 11.829 1.64015 10.6262 1.3797 9.31686C1.11925 8.00749 1.25292 6.65029 1.76382 5.41689C2.27471 4.18349 3.13987 3.12928 4.2499 2.38758C5.35994 1.64588 6.66498 1.25 8 1.25C9.78961 1.25199 11.5053 1.96378 12.7708 3.22922C14.0362 4.49466 14.748 6.2104 14.75 8ZM13.25 8C13.25 6.96165 12.9421 5.94661 12.3652 5.08326C11.7883 4.2199 10.9684 3.54699 10.0091 3.14963C9.04978 2.75227 7.99418 2.6483 6.97578 2.85088C5.95738 3.05345 5.02192 3.55346 4.28769 4.28769C3.55347 5.02191 3.05345 5.95738 2.85088 6.97578C2.64831 7.99418 2.75228 9.04978 3.14964 10.0091C3.547 10.9684 4.2199 11.7883 5.08326 12.3652C5.94662 12.9421 6.96165 13.25 8 13.25C9.39193 13.2485 10.7264 12.6949 11.7107 11.7107C12.6949 10.7264 13.2485 9.39193 13.25 8ZM8.75 10.2925V8.25C8.75 7.91848 8.61831 7.60054 8.38389 7.36612C8.14947 7.1317 7.83152 7 7.5 7C7.32288 6.99974 7.15139 7.06217 7.01588 7.17623C6.88038 7.2903 6.78962 7.44864 6.75968 7.62321C6.72974 7.79778 6.76254 7.97731 6.85229 8.13001C6.94203 8.28271 7.08292 8.39872 7.25 8.4575V10.5C7.25 10.8315 7.3817 11.1495 7.61612 11.3839C7.85054 11.6183 8.16848 11.75 8.5 11.75C8.67712 11.7503 8.84862 11.6878 8.98412 11.5738C9.11962 11.4597 9.21038 11.3014 9.24032 11.1268C9.27027 10.9522 9.23746 10.7727 9.14772 10.62C9.05798 10.4673 8.91709 10.3513 8.75 10.2925Z"
			fill="#B130FF" />
	</g>
	<g id="Warning">
		<path id="Vector"
			d="M15.0161 11.6314L9.55047 2.13957C9.39216 1.86882 9.16572 1.64425 8.89368 1.48818C8.62164 1.33212 8.31347 1.25 7.99984 1.25C7.68621 1.25 7.37805 1.33212 7.10601 1.48818C6.83397 1.64425 6.60753 1.86882 6.44922 2.13957L0.983594 11.6314C0.829982 11.8942 0.749023 12.193 0.749023 12.4974C0.749023 12.8017 0.829982 13.1006 0.983594 13.3633C1.14015 13.6354 1.36628 13.8609 1.63877 14.0168C1.91126 14.1727 2.22032 14.2532 2.53422 14.2502H13.4655C13.7792 14.253 14.088 14.1723 14.3602 14.0165C14.6325 13.8606 14.8584 13.6352 15.0148 13.3633C15.1686 13.1007 15.2498 12.8019 15.25 12.4975C15.2503 12.1932 15.1695 11.8943 15.0161 11.6314ZM13.7161 12.6127C13.6907 12.656 13.654 12.6916 13.61 12.7159C13.566 12.7401 13.5163 12.7519 13.4661 12.7502H2.53422C2.48403 12.7519 2.4343 12.7401 2.39029 12.7159C2.34629 12.6916 2.30964 12.656 2.28422 12.6127C2.26266 12.5776 2.25124 12.5373 2.25124 12.4961C2.25124 12.455 2.26266 12.4146 2.28422 12.3796L7.74984 2.88769C7.77691 2.84603 7.81395 2.8118 7.85761 2.7881C7.90127 2.76439 7.95017 2.75198 7.99984 2.75198C8.04952 2.75198 8.09841 2.76439 8.14207 2.7881C8.18573 2.8118 8.22278 2.84603 8.24984 2.88769L13.7148 12.3796C13.7366 12.4145 13.7482 12.4548 13.7484 12.496C13.7487 12.5371 13.7375 12.5775 13.7161 12.6127ZM7.24984 8.50019V6.50019C7.24984 6.30128 7.32886 6.11051 7.46951 5.96986C7.61017 5.82921 7.80093 5.75019 7.99984 5.75019C8.19876 5.75019 8.38952 5.82921 8.53017 5.96986C8.67083 6.11051 8.74984 6.30128 8.74984 6.50019V8.50019C8.74984 8.6991 8.67083 8.88987 8.53017 9.03052C8.38952 9.17117 8.19876 9.25019 7.99984 9.25019C7.80093 9.25019 7.61017 9.17117 7.46951 9.03052C7.32886 8.88987 7.24984 8.6991 7.24984 8.50019ZM8.99984 11.0002C8.99984 11.198 8.9412 11.3913 8.83131 11.5558C8.72143 11.7202 8.56525 11.8484 8.38253 11.9241C8.1998 11.9998 7.99874 12.0196 7.80475 11.981C7.61077 11.9424 7.43259 11.8471 7.29274 11.7073C7.15289 11.5674 7.05764 11.3893 7.01906 11.1953C6.98047 11.0013 7.00028 10.8002 7.07596 10.6175C7.15165 10.4348 7.27982 10.2786 7.44427 10.1687C7.60872 10.0588 7.80206 10.0002 7.99984 10.0002C8.26506 10.0002 8.51941 10.1055 8.70695 10.2931C8.89449 10.4806 8.99984 10.735 8.99984 11.0002Z" />
	</g>

	<g id="Thumb">
		<path
			d="M4.28724 10.3535H1.08076C0.485877 10.3535 0 10.8394 0 11.4343V20.3233C0 20.9182 0.485877 21.4041 1.08076 21.4041H4.28724C4.88213 21.4041 5.368 20.9182 5.368 20.3233V11.4343C5.368 10.8394 4.88213 10.3535 4.28724 10.3535Z" />
		<path
			d="M18.773 11.3987H18.5814C19.5205 11.3987 20.2898 10.6293 20.2898 9.69029C20.2898 8.75124 19.5205 7.98194 18.5814 7.98194H13.1013C13.7772 6.9183 14.6944 5.21929 14.6944 3.8333C14.6944 1.63751 13.4922 0.416587 12.7073 0.277987C11.9224 0.137831 11.3478 0.556744 11.1204 1.2186C10.8931 1.88045 11.2949 3.13719 11.1391 3.58413C10.8993 4.27401 9.69084 5.19905 8.05256 7.3014C6.5887 9.1795 6.79738 11.3971 6.79738 11.3971V14.4307V17.4643V18.8768C6.79738 19.4623 7.27547 19.9404 7.86101 19.9404H18.0411C18.7216 19.9404 19.2791 19.3829 19.2791 18.7024C19.2791 18.0218 18.7216 17.4643 18.0411 17.4643H18.2155C19.0502 17.4643 19.7323 16.7822 19.7323 15.9475C19.7323 15.1128 19.0502 14.4307 18.2155 14.4307H18.773C19.6077 14.4307 20.2898 13.7486 20.2898 12.9139C20.2898 12.0823 19.6062 11.3987 18.773 11.3987Z" />
	</g>
</svg>