<svg xmlns="http://www.w3.org/2000/svg" width="198.6" height="198.6" viewBox="80.7 55.3 198.6 198.6"><rect width="198.6" height="198.6" x="-253.8" y="80.7" fill="#2a2f36" rx="24" ry="24" transform="rotate(-90)"/><path fill="#c4d700" d="M246.8 85.2a88.3 88.3 0 0 1 0 29h-1.1a88.4 88.4 0 0 1 0-29z" clip-path="url(#clipPath9704)" transform="translate(-17 -10) scale(1.086)"/><path fill="#accf39" d="M223.7 86.2a210.9 210.9 0 0 1 0 46.8h-1.3a210.9 210.9 0 0 1 0-46.7z" clip-path="url(#clipPath9698)" transform="translate(-17 -10) scale(1.086)"/><path fill="#b9d31e" d="M235.3 85.5a192.2 192.2 0 0 1 0 43.5h-1.2c-.8-5.4-1-10.9-1.2-16.3a238.5 238.5 0 0 1 1.2-27.2z" clip-path="url(#clipPath9692)" transform="translate(-17 -10) scale(1.086)"/><path fill="#a0cb4b" d="M212 87.4a205.3 205.3 0 0 1 0 47h-1.4a205.5 205.5 0 0 1 0-47z" clip-path="url(#clipPath9686)" transform="translate(-17 -10) scale(1.086)"/><path fill="#00ada9" d="M112.1 111a713.4 713.4 0 0 1 0 100.3h-1.7a813 813 0 0 1 0-100.4z" clip-path="url(#clipPath9680)" transform="translate(-17 -10) scale(1.086)"/><path fill="#92c75a" d="M200 89a246.2 246.2 0 0 1 0 52.5h-1.4a246.2 246.2 0 0 1 0-52.5z" clip-path="url(#clipPath9674)" transform="translate(-17 -10) scale(1.086)"/><path fill="#84c368" d="M187.9 91a458.7 458.7 0 0 1 0 72.7h-1.5a537 537 0 0 1 0-72.6z" clip-path="url(#clipPath9668)" transform="translate(-17 -10) scale(1.086)"/><path fill="#74bf73" d="M175.7 93.4a470 470 0 0 1 0 74.8h-1.5a548.3 548.3 0 0 1 0-74.8z" clip-path="url(#clipPath9662)" transform="translate(-17 -10) scale(1.086)"/><path fill="#62bb7f" d="M163.3 96a441.7 441.7 0 0 1 0 73.8h-1.6a518.1 518.1 0 0 1 0-73.8z" clip-path="url(#clipPath9656)" transform="translate(-17 -10) scale(1.086)"/><path fill="#4db88a" d="M150.7 99.3a447.2 447.2 0 0 1 0 75.4h-1.6a523.4 523.4 0 0 1 0-75.4z" clip-path="url(#clipPath9650)" transform="translate(-17 -10) scale(1.086)"/><path fill="#2eb495" d="M138 102.7a673 673 0 0 1 0 94.6h-1.6a763.7 763.7 0 0 1 0-94.5z" clip-path="url(#clipPath9644)" transform="translate(-17 -10) scale(1.086)"/><path fill="#00b09f" d="M125.2 106.6a704.4 704.4 0 0 1 0 98.2h-1.7c-.7-8.2-1.1-16.4-1.4-24.6a800.5 800.5 0 0 1 1.4-73.6z" clip-path="url(#clipPath9638)" transform="translate(-17 -10) scale(1.086)"/><path fill="#c4d700" d="M169.6 217.9a57 57 0 0 1 0-18.7h.7a56.8 56.8 0 0 1 0 18.7z" clip-path="url(#clipPath9632)" transform="translate(-17 -10) scale(1.086)"/><path fill="#accf39" d="M189.3 217.2a141.8 141.8 0 0 1 0-31.3h.9c.4 2.6.5 5.2.7 7.8.3 7.9.3 15.7-.7 23.5z" clip-path="url(#clipPath9626)" transform="translate(-17 -10) scale(1.086)"/><path fill="#b9d31e" d="M179.4 217.7a120.5 120.5 0 0 1 0-27.3h.8a148.9 148.9 0 0 1 0 27.3z" clip-path="url(#clipPath9620)" transform="translate(-17 -10) scale(1.086)"/><path fill="#a0cb4b" d="M199.5 216.4a137.5 137.5 0 0 1 0-31.5h.9a137.6 137.6 0 0 1 0 31.5z" clip-path="url(#clipPath9614)" transform="translate(-17 -10) scale(1.086)"/><path fill="#92c75a" d="M209.7 215.3a164.9 164.9 0 0 1 0-35.1h1a164.9 164.9 0 0 1 0 35.2z" clip-path="url(#clipPath9608)" transform="translate(-17 -10) scale(1.086)"/><path fill="#84c368" d="M220 214a298.4 298.4 0 0 1 0-47.2h1a348 348 0 0 1 0 47.2z" clip-path="url(#clipPath9602)" transform="translate(-17 -10) scale(1.086)"/><path fill="#74bf73" d="M230.5 212.4a317.2 317.2 0 0 1 0-50.5h1c.4 4.2.6 8.4.8 12.6a371 371 0 0 1-.8 37.9z" clip-path="url(#clipPath9596)" transform="translate(-17 -10) scale(1.086)"/><path fill="#62bb7f" d="M241.1 210.7a313 313 0 0 1 0-52.2h1.1c.5 4.3.7 8.7.9 13a366.7 366.7 0 0 1-.9 39.2z" clip-path="url(#clipPath9590)" transform="translate(-17 -10) scale(1.086)"/><path fill="#4db88a" d="M252 208.5a312.4 312.4 0 0 1 0-52.7h1c.5 4.4.8 8.8 1 13.2a365.2 365.2 0 0 1-1 39.5z" clip-path="url(#clipPath9584)" transform="translate(-17 -10) scale(1.086)"/></svg>