<svg width="16" height="16" viewBox="0 0 16 16" xmlns="http://www.w3.org/2000/svg" class="hover:fill-card/50 fill-card w-5 box-content">
<path d="M8.83264 6.73751C9.05456 6.4876 9.2365 6.2357 9.46441 6.02177C10.1642 5.36202 10.9919 5.03014 11.9595 5.03814C12.4913 5.04213 13.0151 5.08012 13.5269 5.22807C14.6985 5.56594 15.3782 6.37365 15.7041 7.51723C15.948 8.37491 15.992 9.25659 15.994 10.1403C15.998 12.0036 15.988 13.8689 15.992 15.7322C15.992 15.9062 15.944 15.9521 15.7721 15.9521C14.8125 15.9441 13.8508 15.9441 12.8912 15.9521C12.7212 15.9541 12.6852 15.9022 12.6852 15.7422C12.6912 13.9689 12.6912 12.1955 12.6852 10.4202C12.6832 9.97633 12.6552 9.53049 12.5313 9.09865C12.3014 8.30294 11.7316 7.89709 10.8979 7.94107C9.75831 8.00105 9.16652 8.56484 9.02058 9.72242C8.98659 9.99832 8.9686 10.2762 8.97059 10.5541C8.97259 12.2795 8.96859 14.0049 8.97459 15.7302C8.97459 15.9022 8.93261 15.9521 8.75667 15.9521C7.78903 15.9441 6.82138 15.9441 5.85374 15.9521C5.69779 15.9541 5.65381 15.9122 5.65381 15.7542C5.65781 12.3395 5.65781 8.92271 5.65381 5.50796C5.65381 5.33803 5.70979 5.30004 5.86973 5.30004C6.78739 5.30604 7.70706 5.30804 8.62472 5.30004C8.79466 5.29804 8.83664 5.35402 8.83464 5.51396C8.82665 5.92181 8.83264 6.32966 8.83264 6.73751Z"/>
<path d="M3.57069 10.6401C3.57069 12.3295 3.56869 14.0189 3.57469 15.7082C3.57469 15.8962 3.52871 15.9521 3.33478 15.9501C2.37513 15.9401 1.41548 15.9421 0.453833 15.9481C0.299889 15.9501 0.253906 15.9102 0.253906 15.7522C0.257905 12.3315 0.257905 8.91072 0.253906 5.48798C0.253906 5.34603 0.287894 5.29605 0.437839 5.29605C1.41148 5.30204 2.38513 5.30404 3.35877 5.29405C3.5467 5.29205 3.57069 5.36402 3.57069 5.52596C3.56869 7.23334 3.57069 8.93671 3.57069 10.6401Z"/>
<path d="M3.83661 1.9093C3.83861 2.97091 2.97692 3.8346 1.91731 3.8346C0.871694 3.8346 0.0040123 2.97091 1.37647e-05 1.92529C-0.00398477 0.869682 0.863697 0 1.92131 0C2.97093 0.00399854 3.83461 0.865683 3.83661 1.9093Z"/>
</svg>
