<svg width="16" height="16" viewBox="0 0 16 16" fill="none" xmlns="http://www.w3.org/2000/svg">
    <path id="Vector"
        d="M10.3508 8.47578L7.22578 11.6008C7.04966 11.7769 6.81079 11.8758 6.56172 11.8758C6.31265 11.8758 6.07378 11.7769 5.89766 11.6008C5.72154 11.4247 5.62259 11.1858 5.62259 10.9367C5.62259 10.6876 5.72154 10.4488 5.89766 10.2727L7.42188 8.75L0.9375 8.75C0.68886 8.75 0.450403 8.65123 0.274587 8.47541C0.0987721 8.2996 0 8.06114 0 7.8125C0 7.56386 0.0987721 7.3254 0.274587 7.14959C0.450403 6.97377 0.68886 6.875 0.9375 6.875L7.42188 6.875L5.89922 5.35078C5.81201 5.26358 5.74284 5.16005 5.69564 5.04611C5.64845 4.93217 5.62416 4.81005 5.62416 4.68672C5.62416 4.43765 5.7231 4.19878 5.89922 4.02266C6.07534 3.84654 6.31421 3.74759 6.56328 3.74759C6.81235 3.74759 7.05122 3.84654 7.22734 4.02266L10.3523 7.14766C10.4396 7.23486 10.5089 7.33843 10.5561 7.45244C10.6032 7.56645 10.6274 7.68865 10.6273 7.81204C10.6272 7.93543 10.6027 8.05758 10.5552 8.17148C10.5078 8.28538 10.4383 8.38879 10.3508 8.47578ZM14.0625 0L9.6875 0C9.43886 0 9.2004 0.0987721 9.02459 0.274587C8.84877 0.450403 8.75 0.68886 8.75 0.9375C8.75 1.18614 8.84877 1.4246 9.02459 1.60041C9.2004 1.77623 9.43886 1.875 9.6875 1.875L13.75 1.875L13.75 13.75H9.6875C9.43886 13.75 9.2004 13.8488 9.02459 14.0246C8.84877 14.2004 8.75 14.4389 8.75 14.6875C8.75 14.9361 8.84877 15.1746 9.02459 15.3504C9.2004 15.5262 9.43886 15.625 9.6875 15.625H14.0625C14.4769 15.625 14.8743 15.4604 15.1674 15.1674C15.4604 14.8743 15.625 14.4769 15.625 14.0625L15.625 1.5625C15.625 1.1481 15.4604 0.750671 15.1674 0.457646C14.8743 0.16462 14.4769 0 14.0625 0Z"
         />
</svg>