<?xml version="1.0" encoding="UTF-8"?>
<svg width="261.76" height="24.316" version="1.1" viewBox="0 0 261.76 24.316" xmlns="http://www.w3.org/2000/svg">
 <g transform="translate(-11.956 -18.992)" stroke-width="6.9374">
  <g transform="matrix(.90434 0 0 -.53196 37.699 18.992)" clip-path="url(#clipPath9704)">
   <path d="m0 0c0.456-2.476 0.48-4.991 0.318-7.493-0.06-0.833-0.148-1.665-0.318-2.498h-0.408c-0.17 0.833-0.258 1.665-0.318 2.498-0.162 2.502-0.138 5.017 0.318 7.493z" fill="#c4d700" stroke-width="6.9374"/>
  </g>
  <g transform="matrix(.90434 0 0 -.53196 33.471 19.178)" clip-path="url(#clipPath9698)">
   <path d="m0 0c0.498-4.01 0.519-8.05 0.346-12.079-0.065-1.343-0.161-2.685-0.346-4.027h-0.443c-0.185 1.342-0.281 2.684-0.346 4.027-0.173 4.029-0.152 8.069 0.346 12.079z" fill="#accf39" stroke-width="6.9374"/>
  </g>
  <g transform="matrix(.90434 0 0 -.53196 35.595 19.04)" clip-path="url(#clipPath9692)">
   <path d="m0 0c0.478-3.695 0.492-7.528 0.332-11.246-0.062-1.249-0.155-2.499-0.332-3.748h-0.426c-0.262 1.872-0.348 3.741-0.402 5.622-0.031 1.744-0.025 3.891 0.072 5.623 0.062 1.25 0.154 2.499 0.33 3.749z" fill="#b9d31e" stroke-width="6.9374"/>
  </g>
  <g transform="matrix(.90434 0 0 -.53196 31.309 19.396)" clip-path="url(#clipPath9686)">
   <path d="m0 0c0.518-4.033 0.539-8.097 0.36-12.151-0.068-1.35-0.168-2.7-0.36-4.05h-0.461c-0.192 1.35-0.292 2.7-0.36 4.05-0.179 4.054-0.158 8.118 0.36 12.151z" fill="#a0cb4b" stroke-width="6.9374"/>
  </g>
  <g transform="matrix(.90434 0 0 -.53196 13.046 23.71)" clip-path="url(#clipPath9680)">
   <path d="m0 0c0.678-8.631 0.705-17.287 0.47-25.935-0.088-2.881-0.219-5.763-0.47-8.645h-0.603c-0.251 2.882-0.382 5.764-0.47 8.645-0.178 5.764-0.176 11.527 2e-3 17.29 0.088 2.882 0.219 5.763 0.468 8.645z" fill="#00ada9" stroke-width="6.9374"/>
  </g>
  <g transform="matrix(.90434 0 0 -.53196 29.126 19.689)" clip-path="url(#clipPath9674)">
   <path d="m0 0c0.538-4.503 0.56-9.036 0.374-13.559-0.071-1.507-0.175-3.013-0.374-4.52h-0.479c-0.199 1.507-0.303 3.013-0.373 4.52-0.187 4.523-0.164 9.056 0.373 13.559z" fill="#92c75a" stroke-width="6.9374"/>
  </g>
  <g transform="matrix(.90434 0 0 -.53196 26.911 20.056)" clip-path="url(#clipPath9668)">
   <path d="m0 0c0.558-6.182 0.573-12.568 0.387-18.77-0.072-2.086-0.18-4.171-0.387-6.257h-0.496c-0.207 2.086-0.315 4.171-0.388 6.257-0.141 4.035-0.139 8.478 2e-3 12.513 0.073 2.086 0.18 4.171 0.386 6.257z" fill="#84c368" stroke-width="6.9374"/>
  </g>
  <g transform="matrix(.90434 0 0 -.53196 24.675 20.497)" clip-path="url(#clipPath9662)">
   <path d="m0 0c0.578-6.367 0.593-12.944 0.401-19.332-0.075-2.148-0.187-4.296-0.401-6.444h-0.514c-0.214 2.148-0.326 4.296-0.401 6.444-0.147 4.156-0.145 8.732 1e-3 12.888 0.076 2.148 0.187 4.296 0.4 6.444z" fill="#74bf73" stroke-width="6.9374"/>
  </g>
  <g transform="matrix(.90434 0 0 -.53196 22.406 20.971)" clip-path="url(#clipPath9656)">
   <path d="m0 0c0.598-6.278 0.614-12.767 0.415-19.067-0.078-2.119-0.194-4.238-0.415-6.356h-0.532c-0.221 2.118-0.337 4.237-0.415 6.356-0.151 4.099-0.149 8.612 2e-3 12.711 0.078 2.119 0.193 4.237 0.413 6.356z" fill="#62bb7f" stroke-width="6.9374"/>
  </g>
  <g transform="matrix(.90434 0 0 -.53196 20.111 21.567)" clip-path="url(#clipPath9650)">
   <path d="m0 0c0.618-6.417 0.634-13.049 0.429-19.49-0.081-2.165-0.2-4.331-0.429-6.496h-0.55c-0.228 2.165-0.348 4.331-0.429 6.496-0.156 4.19-0.154 8.803 2e-3 12.993 0.081 2.166 0.2 4.331 0.427 6.497z" fill="#4db88a" stroke-width="6.9374"/>
  </g>
  <g transform="matrix(.90434 0 0 -.53196 17.785 22.205)" clip-path="url(#clipPath9644)">
   <path d="m0 0c0.638-8.127 0.663-16.278 0.443-24.422-0.083-2.713-0.207-5.427-0.443-8.14h-0.567c-0.237 2.713-0.36 5.427-0.443 8.14-0.168 5.427-0.166 10.854 2e-3 16.281 0.083 2.714 0.206 5.427 0.441 8.141z" fill="#2eb495" stroke-width="6.9374"/>
  </g>
  <g transform="matrix(.90434 0 0 -.53196 15.432 22.912)" clip-path="url(#clipPath9638)">
   <path d="m0 0c0.658-8.444 0.684-16.912 0.457-25.373-0.086-2.819-0.213-5.638-0.457-8.457h-0.585c-0.244 2.819-0.371 5.638-0.457 8.457-0.173 5.639-0.171 11.277 2e-3 16.915 0.086 2.82 0.213 5.639 0.455 8.458z" fill="#00b09f" stroke-width="6.9374"/>
  </g>
  <g transform="matrix(.90434 0 0 -.53196 23.413 43.308)" clip-path="url(#clipPath9632)">
   <path d="m0 0c-0.293 1.594-0.309 3.213-0.205 4.823 0.039 0.536 0.096 1.072 0.205 1.608h0.263c0.109-0.536 0.166-1.072 0.204-1.608 0.105-1.61 0.089-3.229-0.204-4.823z" fill="#c4d700" stroke-width="6.9374"/>
  </g>
  <g transform="matrix(.90434 0 0 -.53196 27.029 43.186)" clip-path="url(#clipPath9626)">
   <path d="m0 0c-0.333 2.687-0.347 5.392-0.232 8.092 0.044 0.899 0.108 1.798 0.232 2.697h0.297c0.124-0.899 0.188-1.798 0.232-2.697 0.115-2.7 0.101-5.405-0.232-8.092z" fill="#accf39" stroke-width="6.9374"/>
  </g>
  <g transform="matrix(.90434 0 0 -.53196 25.216 43.276)" clip-path="url(#clipPath9620)">
   <path d="m0 0c-0.3 2.32-0.309 4.726-0.208 7.06 0.039 0.784 0.097 1.568 0.208 2.353h0.267c0.165-1.176 0.219-2.349 0.253-3.53 0.02-1.094 0.016-2.443-0.045-3.53-0.039-0.784-0.097-1.569-0.208-2.353z" fill="#b9d31e" stroke-width="6.9374"/>
  </g>
  <g transform="matrix(.90434 0 0 -.53196 28.889 43.037)" clip-path="url(#clipPath9614)">
   <path d="m0 0c-0.347 2.702-0.361 5.424-0.241 8.14 0.045 0.904 0.112 1.809 0.241 2.713h0.309c0.128-0.904 0.196-1.809 0.241-2.713 0.12-2.716 0.106-5.438-0.241-8.14z" fill="#a0cb4b" stroke-width="6.9374"/>
  </g>
  <g transform="matrix(.90434 0 0 -.53196 30.764 42.84)" clip-path="url(#clipPath9608)">
   <path d="m0 0c-0.36 3.017-0.375 6.053-0.25 9.083 0.047 1.01 0.116 2.019 0.25 3.028h0.321c0.133-1.009 0.203-2.018 0.25-3.028 0.125-3.03 0.11-6.066-0.25-9.083z" fill="#92c75a" stroke-width="6.9374"/>
  </g>
  <g transform="matrix(.90434 0 0 -.53196 32.658 42.595)" clip-path="url(#clipPath9602)">
   <path d="m0 0c-0.363 4.018-0.372 8.168-0.252 12.199 0.047 1.355 0.118 2.71 0.252 4.066h0.323c0.134-1.356 0.204-2.711 0.251-4.066 0.092-2.623 0.091-5.51-1e-3 -8.133-0.047-1.355-0.117-2.711-0.25-4.066z" fill="#84c368" stroke-width="6.9374"/>
  </g>
  <g transform="matrix(.90434 0 0 -.53196 34.563 42.303)" clip-path="url(#clipPath9596)">
   <path d="m0 0c-0.391 4.301-0.401 8.745-0.271 13.061 0.051 1.451 0.126 2.902 0.271 4.353h0.347c0.145-1.451 0.221-2.902 0.271-4.353 0.099-2.808 0.098-5.899-1e-3 -8.707-0.051-1.452-0.126-2.903-0.27-4.354z" fill="#74bf73" stroke-width="6.9374"/>
  </g>
  <g transform="matrix(.90434 0 0 -.53196 36.505 41.983)" clip-path="url(#clipPath9590)">
   <path d="m0 0c-0.423 4.44-0.434 9.028-0.294 13.483 0.056 1.498 0.137 2.996 0.294 4.494h0.376c0.157-1.498 0.239-2.996 0.294-4.494 0.107-2.899 0.105-6.09-1e-3 -8.989-0.056-1.498-0.137-2.996-0.293-4.494z" fill="#62bb7f" stroke-width="6.9374"/>
  </g>
  <g transform="matrix(.90434 0 0 -.53196 38.488 41.584)" clip-path="url(#clipPath9584)">
   <path d="m0 0c-0.432 4.484-0.443 9.118-0.3 13.619 0.057 1.513 0.14 3.026 0.3 4.539h0.384c0.16-1.513 0.244-3.026 0.3-4.539 0.109-2.928 0.108-6.152-1e-3 -9.079-0.057-1.514-0.14-3.027-0.299-4.54z" fill="#4db88a" stroke-width="6.9374"/>
  </g>
 </g>
 <g transform="matrix(1.0446 0 0 -1.0446 2.6685 130.02)">
  <g transform="translate(35.433,120.43)" clip-path="url(#clipPath9578)">
   <path d="m0 0h12.679v-2.34h-9.999v-4.4h9.379l-0.94-2.309h-8.439v-5.86h-2.68z" fill="#efeae2"/>
  </g>
  <g transform="translate(55.707,118.01)" clip-path="url(#clipPath9572)">
   <path d="m0 0h7.72c1.553 0 2.774-0.342 3.665-1.024 0.889-0.684 1.334-1.626 1.334-2.826 0-0.966-0.288-1.766-0.865-2.4-0.576-0.633-1.388-1.053-2.435-1.26l3.94-4.979h-3.22l-3.619 4.709h-2.95l0.96 2.23h3.48c0.666 0 1.191 0.147 1.575 0.44 0.383 0.294 0.574 0.7 0.574 1.22s-0.188 0.927-0.565 1.22c-0.376 0.294-0.891 0.44-1.544 0.44h-5.43v-10.259h-2.62z" fill="#efeae2"/>
  </g>
  <g transform="translate(80,114.88)" clip-path="url(#clipPath9566)">
   <path d="m0 0c-0.974-0.814-1.46-1.85-1.46-3.11 0-1.28 0.486-2.326 1.46-3.14 0.966-0.786 2.25-1.18 3.85-1.18s2.883 0.394 3.85 1.18c0.979 0.8 1.469 1.847 1.469 3.14 0 1.274-0.49 2.31-1.469 3.11-0.987 0.806-2.27 1.21-3.85 1.21s-2.864-0.404-3.85-1.21m-1.91-7.84c-1.46 1.22-2.19 2.797-2.19 4.73 0 1.92 0.73 3.49 2.19 4.71 1.474 1.213 3.394 1.82 5.76 1.82 2.36 0 4.276-0.607 5.749-1.82 1.474-1.214 2.21-2.784 2.21-4.71 0-1.94-0.736-3.516-2.21-4.73-1.466-1.206-3.383-1.809-5.749-1.809-2.374 0-4.294 0.603-5.76 1.809" fill="#efeae2"/>
  </g>
  <g transform="translate(98.748,118.03)" clip-path="url(#clipPath9560)">
   <path d="m0 0h11.489v-1.94l-8.209-8.319h8.579v-2.25h-12.169v1.93l8.19 8.329h-7.88z" fill="#efeae2"/>
  </g>
  <g transform="translate(122.98,112.91)" clip-path="url(#clipPath9554)">
   <path d="m0 0h6.024v-2.19h-6.899zm-1.865-5.16h8.989v-2.23h-11.569v12.49h10.999v-2.25h-8.419z" fill="#efeae2"/>
  </g>
  <g transform="translate(138.39,118.01)" clip-path="url(#clipPath9548)">
   <path d="m0 0h2.4l8.129-8.499v8.499h2.5v-12.489h-2.11l-8.419 8.809v-8.809h-2.5z" fill="#efeae2"/>
  </g>
  <g transform="translate(160.94,120.43)" clip-path="url(#clipPath9542)">
   <path d="m0 0h8.929c1.587 0 2.85-0.43 3.79-1.29s1.41-2 1.41-3.42c0-1.426-0.47-2.56-1.41-3.4-0.913-0.833-2.17-1.249-3.77-1.249h-5.139l0.98 2.309h4.219c0.787 0 1.39 0.215 1.81 0.646 0.42 0.429 0.63 1.008 0.63 1.734 0 0.747-0.223 1.322-0.67 1.726-0.446 0.402-1.03 0.604-1.75 0.604h-6.349v-12.569h-2.68z" fill="#efeae2"/>
  </g>
  <g transform="translate(183.08,118.01)" clip-path="url(#clipPath9536)">
   <path d="m0 0h2.58v-10.239h8.149v-2.25h-10.729z" fill="#efeae2"/>
  </g>
  <g transform="translate(202.9,105.56)" clip-path="url(#clipPath9530)">
   <path d="m0 0h-2.7l6.28 12.489h3.08l6.279-12.489h-2.8l-5.059 10.123z" fill="#efeae2"/>
  </g>
  <path d="m223.24 118.01h2.58v-12.489h-2.58z" clip-path="url(#clipPath9524)" fill="#efeae2"/>
  <g transform="translate(235,118.01)" clip-path="url(#clipPath9518)">
   <path d="m0 0h2.4l8.129-8.499v8.499h2.5v-12.489h-2.11l-8.419 8.809v-8.809h-2.5z" fill="#efeae2"/>
  </g>
  <g transform="translate(208.03,105.91)" clip-path="url(#clipPath9512)">
   <path d="M 0,0 1.781,1.781 0,3.562 -1.781,1.781 Z" fill="#efeae2"/>
  </g>
  <g transform="translate(83.854,109.98)" clip-path="url(#clipPath9506)">
   <path d="M 0,0 1.781,1.781 0,3.562 -1.781,1.781 Z" fill="#efeae2"/>
  </g>
 </g>
</svg>
