<svg width="16" height="15" viewBox="0 0 16 15" fill="none" xmlns="http://www.w3.org/2000/svg">
    <path id="Vector"
        d="M14.5185 3.45036H11.8393C11.7611 2.51042 11.3227 1.63359 10.6113 0.994273C9.89995 0.354957 8.9677 0 8 0C7.0323 0 6.10005 0.354957 5.38868 0.994273C4.6773 1.63359 4.23893 2.51042 4.16074 3.45036H1.48148C1.08857 3.45036 0.711748 3.60246 0.433916 3.87321C0.156084 4.14396 0 4.51117 0 4.89406V13.5563C0 13.9392 0.156084 14.3064 0.433916 14.5771C0.711748 14.8479 1.08857 15 1.48148 15H14.5185C14.9114 15 15.2883 14.8479 15.5661 14.5771C15.8439 14.3064 16 13.9392 16 13.5563V4.89406C16 4.51117 15.8439 4.14396 15.5661 3.87321C15.2883 3.60246 14.9114 3.45036 14.5185 3.45036ZM8 1.71791C8.49871 1.71796 8.9807 1.89312 9.35767 2.21129C9.73464 2.52947 9.98135 2.96935 10.0526 3.45036H5.94741C6.01865 2.96935 6.26536 2.52947 6.64233 2.21129C7.0193 1.89312 7.50129 1.71796 8 1.71791ZM14.2222 13.2676H1.77778V5.18281H4.14815V6.04903C4.14815 6.27877 4.2418 6.49909 4.4085 6.66154C4.5752 6.82399 4.80129 6.91525 5.03704 6.91525C5.27279 6.91525 5.49888 6.82399 5.66558 6.66154C5.83228 6.49909 5.92593 6.27877 5.92593 6.04903V5.18281H10.0741V6.04903C10.0741 6.27877 10.1677 6.49909 10.3344 6.66154C10.5011 6.82399 10.7272 6.91525 10.963 6.91525C11.1987 6.91525 11.4248 6.82399 11.5915 6.66154C11.7582 6.49909 11.8519 6.27877 11.8519 6.04903V5.18281H14.2222V13.2676Z"
         />
</svg>