<svg width="17" height="17" viewBox="0 0 17 17" xmlns="http://www.w3.org/2000/svg" class="hover:fill-card/50 fill-card w-5 box-content" >
<g clip-path="url(#clip0_10132_603)">
<path d="M8.50756 0C3.80926 0 0 3.80306 0 8.49371C0 12.0931 2.24022 15.1695 5.40474 16.4066C5.32793 15.7352 5.26496 14.7006 5.43244 13.9676C5.58607 13.3038 6.42726 9.7459 6.42726 9.7459C6.42726 9.7459 6.17541 9.23547 6.17541 8.48743C6.17541 7.30565 6.8617 6.4256 7.71548 6.4256C8.44333 6.4256 8.79341 6.97123 8.79341 7.62121C8.79341 8.34788 8.33126 9.43914 8.0857 10.4524C7.88296 11.2986 8.51259 11.99 9.34622 11.99C10.8586 11.99 12.0209 10.3959 12.0209 8.10398C12.0209 6.06981 10.5576 4.65042 8.46348 4.65042C6.04067 4.65042 4.62022 6.4608 4.62022 8.33405C4.62022 9.06072 4.89978 9.84396 5.24985 10.2702C5.32037 10.3544 5.32667 10.4311 5.30526 10.5153C5.2423 10.7806 5.09496 11.3614 5.06726 11.4796C5.032 11.633 4.94133 11.6682 4.78015 11.5915C3.71733 11.0936 3.05244 9.54851 3.05244 8.29759C3.05244 5.61973 4.99926 3.15937 8.67504 3.15937C11.623 3.15937 13.9199 5.2564 13.9199 8.06626C13.9199 10.9956 12.0713 13.3503 9.50867 13.3503C8.64733 13.3503 7.83511 12.9028 7.56185 12.3722C7.56185 12.3722 7.13496 13.994 7.02919 14.3925C6.8403 15.133 6.32148 16.0558 5.97141 16.6228C6.76978 16.868 7.6097 17 8.49244 17C13.1907 17 17 13.1969 17 8.50629C17.0139 3.80306 13.2046 0 8.50756 0Z"/>
</g>
<defs>
<clipPath id="clip0_10132_603">
<rect width="17" height="17" fill="white"/>
</clipPath>
</defs>
</svg>
