<svg width="27" height="27" viewBox="0 0 27 27" fill="none" xmlns="http://www.w3.org/2000/svg">
<path d="M13.5 0C10.83 0 8.21987 0.791761 5.99981 2.27516C3.77974 3.75856 2.04942 5.86697 1.02763 8.33377C0.00584936 10.8006 -0.261496 13.515 0.259405 16.1337C0.780305 18.7525 2.06606 21.1579 3.95406 23.0459C5.84207 24.934 8.24754 26.2197 10.8663 26.7406C13.485 27.2615 16.1994 26.9942 18.6662 25.9724C21.133 24.9506 23.2414 23.2203 24.7248 21.0002C26.2082 18.7801 27 16.17 27 13.5C26.996 9.9208 25.5724 6.48932 23.0416 3.95844C20.5107 1.42756 17.0792 0.00397028 13.5 0ZM13.5 24C11.4233 24 9.39324 23.3842 7.66652 22.2304C5.9398 21.0767 4.59399 19.4368 3.79927 17.5182C3.00455 15.5996 2.79662 13.4884 3.20176 11.4516C3.60691 9.41475 4.60693 7.54383 6.07538 6.07538C7.54384 4.60693 9.41476 3.6069 11.4516 3.20175C13.4884 2.79661 15.5996 3.00454 17.5182 3.79926C19.4368 4.59399 21.0767 5.9398 22.2304 7.66651C23.3842 9.39323 24 11.4233 24 13.5C23.997 16.2839 22.8898 18.9528 20.9213 20.9213C18.9529 22.8898 16.2839 23.997 13.5 24ZM18.5 13.5C18.5 13.7412 18.4418 13.9788 18.3304 14.1927C18.219 14.4066 18.0576 14.5905 17.86 14.7288L12.86 18.2288C12.6352 18.386 12.3716 18.4787 12.0978 18.4966C11.8241 18.5145 11.5506 18.4569 11.3073 18.3302C11.0639 18.2035 10.86 18.0125 10.7177 17.778C10.5753 17.5434 10.5 17.2744 10.5 17V10C10.5 9.72565 10.5753 9.45656 10.7177 9.22202C10.86 8.98748 11.0639 8.79647 11.3073 8.66977C11.5506 8.54307 11.8241 8.48553 12.0978 8.50343C12.3716 8.52132 12.6352 8.61395 12.86 8.77125L17.86 12.2712C18.0576 12.4095 18.219 12.5934 18.3304 12.8073C18.4418 13.0212 18.5 13.2588 18.5 13.5Z" fill="#2B82CF"/>
</svg>
