<svg width="16" height="16" viewBox="0 0 16 16" fill="none" xmlns="http://www.w3.org/2000/svg">
    <path id="Vector"
        d="M15.1724 7.17241H14.291C14.2193 6.62225 14.0751 6.08401 13.8621 5.57172L14.6262 5.13034C14.7224 5.07711 14.807 5.00523 14.8751 4.91892C14.9433 4.83261 14.9935 4.73359 15.0229 4.62764C15.0523 4.5217 15.0603 4.41096 15.0465 4.30189C15.0326 4.19281 14.9971 4.0876 14.9422 3.99238C14.8872 3.89717 14.8138 3.81386 14.7262 3.74734C14.6387 3.68081 14.5388 3.6324 14.4323 3.60492C14.3258 3.57744 14.215 3.57145 14.1062 3.5873C13.9974 3.60316 13.8928 3.64053 13.7986 3.69724L13.0345 4.13793C12.6961 3.69797 12.302 3.30386 11.8621 2.96552L12.3041 2.19931C12.3609 2.10511 12.3982 2.00056 12.4141 1.89176C12.4299 1.78296 12.4239 1.67209 12.3965 1.56563C12.369 1.45917 12.3206 1.35925 12.254 1.27171C12.1875 1.18417 12.1042 1.11076 12.009 1.05578C11.9138 1.00079 11.8086 0.965331 11.6995 0.951466C11.5904 0.937602 11.4797 0.94561 11.3737 0.975025C11.2678 1.00444 11.1688 1.05467 11.0825 1.12278C10.9961 1.19089 10.9243 1.27552 10.871 1.37172L10.4283 2.13793C9.91599 1.92489 9.37775 1.78065 8.82759 1.70897V0.827586C8.82759 0.608097 8.74039 0.397597 8.58519 0.242394C8.42999 0.0871919 8.21949 0 8 0C7.78051 0 7.57001 0.0871919 7.41481 0.242394C7.25961 0.397597 7.17241 0.608097 7.17241 0.827586V1.70897C6.62225 1.78065 6.08401 1.92489 5.57172 2.13793L5.13034 1.37379C5.01848 1.18799 4.83815 1.05353 4.62816 0.99933C4.41817 0.945132 4.19529 0.975531 4.00748 1.08399C3.81967 1.19244 3.68194 1.37029 3.62392 1.57926C3.5659 1.78823 3.59223 2.01162 3.69724 2.20138L4.13793 2.96552C3.69797 3.30386 3.30386 3.69797 2.96552 4.13793L2.20207 3.69724C2.01231 3.59223 1.78892 3.5659 1.57995 3.62392C1.37098 3.68194 1.19313 3.81967 1.08468 4.00748C0.97622 4.19529 0.945821 4.41817 1.00002 4.62816C1.05422 4.83815 1.18868 5.01848 1.37448 5.13034L2.13793 5.57172C1.92489 6.08401 1.78065 6.62225 1.70897 7.17241H0.827586C0.608097 7.17241 0.397597 7.25961 0.242394 7.41481C0.0871919 7.57001 0 7.78051 0 8C0 8.21949 0.0871919 8.42999 0.242394 8.58519C0.397597 8.74039 0.608097 8.82759 0.827586 8.82759H1.70897C1.78065 9.37775 1.92489 9.91599 2.13793 10.4283L1.37379 10.8697C1.27759 10.9229 1.19296 10.9948 1.12485 11.0811C1.05674 11.1674 1.00651 11.2664 0.977094 11.3724C0.947679 11.4783 0.939671 11.589 0.953535 11.6981C0.9674 11.8072 1.00286 11.9124 1.05784 12.0076C1.11283 12.1028 1.18623 12.1861 1.27377 12.2527C1.36132 12.3192 1.46123 12.3676 1.5677 12.3951C1.67416 12.4226 1.78503 12.4285 1.89383 12.4127C2.00263 12.3968 2.10718 12.3595 2.20138 12.3028L2.96552 11.8621C3.30386 12.302 3.69797 12.6961 4.13793 13.0345L3.69586 13.8007C3.63915 13.8949 3.60178 13.9994 3.58593 14.1082C3.57007 14.217 3.57606 14.3279 3.60354 14.4344C3.63102 14.5408 3.67943 14.6408 3.74596 14.7283C3.81249 14.8158 3.89579 14.8892 3.991 14.9442C4.08622 14.9992 4.19143 15.0347 4.30051 15.0485C4.40958 15.0624 4.52032 15.0544 4.62627 15.025C4.73221 14.9956 4.83123 14.9453 4.91754 14.8772C5.00385 14.8091 5.07573 14.7245 5.12897 14.6283L5.57172 13.8621C6.08401 14.0751 6.62225 14.2193 7.17241 14.291V15.1724C7.17241 15.3919 7.25961 15.6024 7.41481 15.7576C7.57001 15.9128 7.78051 16 8 16C8.21949 16 8.42999 15.9128 8.58519 15.7576C8.74039 15.6024 8.82759 15.3919 8.82759 15.1724V14.291C9.37775 14.2193 9.91599 14.0751 10.4283 13.8621L10.8697 14.6262C10.9815 14.812 11.1618 14.9465 11.3718 15.0007C11.5818 15.0549 11.8047 15.0245 11.9925 14.916C12.1803 14.8076 12.3181 14.6297 12.3761 14.4207C12.4341 14.2118 12.4078 13.9884 12.3028 13.7986L11.8621 13.0345C12.302 12.6961 12.6961 12.302 13.0345 11.8621L13.8007 12.3041C13.8949 12.3609 13.9994 12.3982 14.1082 12.4141C14.217 12.4299 14.3279 12.4239 14.4344 12.3965C14.5408 12.369 14.6408 12.3206 14.7283 12.254C14.8158 12.1875 14.8892 12.1042 14.9442 12.009C14.9992 11.9138 15.0347 11.8086 15.0485 11.6995C15.0624 11.5904 15.0544 11.4797 15.025 11.3737C14.9956 11.2678 14.9453 11.1688 14.8772 11.0825C14.8091 10.9961 14.7245 10.9243 14.6283 10.871L13.8621 10.4283C14.0751 9.91599 14.2193 9.37775 14.291 8.82759H15.1724C15.3919 8.82759 15.6024 8.74039 15.7576 8.58519C15.9128 8.42999 16 8.21949 16 8C16 7.78051 15.9128 7.57001 15.7576 7.41481C15.6024 7.25961 15.3919 7.17241 15.1724 7.17241ZM8 3.31034C9.09972 3.3119 10.164 3.69932 11.0074 4.40509C11.8508 5.11085 12.4198 6.09019 12.6152 7.17241H8.47724L6.40828 3.58621C6.91876 3.40234 7.45742 3.30899 8 3.31034ZM3.31034 8C3.31039 7.3177 3.45954 6.64365 3.74735 6.02503C4.03516 5.4064 4.45468 4.85815 4.97655 4.41862L7.04552 8L4.97655 11.5814C4.45468 11.1419 4.03516 10.5936 3.74735 9.97497C3.45954 9.35635 3.31039 8.6823 3.31034 8ZM8 12.6897C7.45765 12.6909 6.91923 12.5976 6.40897 12.4138L8.47793 8.82759H12.6159C12.4204 9.90993 11.8514 10.8894 11.0078 11.5951C10.1643 12.3009 9.09984 12.6883 8 12.6897Z"
         />
</svg>