<svg width="8" height="13" viewBox="0 0 8 13" fill="none" xmlns="http://www.w3.org/2000/svg">
<path d="M0.270702 1.44951C0.097375 1.29027 1.04258e-06 1.0743 1.06226e-06 0.849104C1.08195e-06 0.623908 0.0973751 0.407934 0.270702 0.248697C0.444029 0.0894588 0.679111 -6.40013e-07 0.924232 -6.18583e-07C1.16935 -5.97154e-07 1.40444 0.0894588 1.57776 0.248697L7.72864 5.89959C7.81465 5.97834 7.8829 6.07191 7.92946 6.17495C7.97603 6.27798 8 6.38844 8 6.5C8 6.61156 7.97603 6.72202 7.92946 6.82506C7.8829 6.92809 7.81465 7.02166 7.72863 7.10041L1.57776 12.7513C1.40443 12.9105 1.16935 13 0.924231 13C0.67911 13 0.444028 12.9105 0.270701 12.7513C0.097374 12.5921 5.45438e-08 12.3761 7.42311e-08 12.1509C9.39184e-08 11.9257 0.0973741 11.7097 0.270701 11.5505L5.76728 6.50071L0.270702 1.44951Z" fill="white"/>
</svg>
