<svg width="8" height="13" viewBox="0 0 8 13" fill="none" xmlns="http://www.w3.org/2000/svg">
<path d="M7.7293 11.5505C7.90263 11.7097 8 11.9257 8 12.1509C8 12.3761 7.90263 12.5921 7.7293 12.7513C7.55597 12.9105 7.32089 13 7.07577 13C6.83065 13 6.59557 12.9105 6.42224 12.7513L0.271366 7.10041C0.185352 7.02166 0.117105 6.92809 0.0705378 6.82505C0.0239707 6.72202 0 6.61156 0 6.5C0 6.38844 0.0239707 6.27798 0.0705378 6.17494C0.117105 6.07191 0.185352 5.97834 0.271366 5.89959L6.42224 0.248697C6.59557 0.0894588 6.83065 -3.35569e-09 7.07577 0C7.32089 3.35569e-09 7.55597 0.0894591 7.7293 0.248697C7.90263 0.407935 8 0.623908 8 0.849104C8 1.0743 7.90263 1.29027 7.7293 1.44951L2.23273 6.49929L7.7293 11.5505Z" fill="white"/>
</svg>
