<svg width="20" height="17" viewBox="0 0 20 17" fill="none" xmlns="http://www.w3.org/2000/svg">
<path d="M20 0.85V2.55C20 2.77543 19.9122 2.99163 19.7559 3.15104C19.5996 3.31045 19.3877 3.4 19.1667 3.4H6.66667C6.44565 3.4 6.23369 3.31045 6.07741 3.15104C5.92113 2.99163 5.83333 2.77543 5.83333 2.55V0.85C5.83333 0.624566 5.92113 0.408365 6.07741 0.248959C6.23369 0.0895535 6.44565 0 6.66667 0H19.1667C19.3877 0 19.5996 0.0895535 19.7559 0.248959C19.9122 0.408365 20 0.624566 20 0.85ZM2.5 0H0.833333C0.61232 0 0.400358 0.0895535 0.244078 0.248959C0.0877975 0.408365 0 0.624566 0 0.85V2.55C0 2.77543 0.0877975 2.99163 0.244078 3.15104C0.400358 3.31045 0.61232 3.4 0.833333 3.4H2.5C2.72101 3.4 2.93298 3.31045 3.08926 3.15104C3.24554 2.99163 3.33333 2.77543 3.33333 2.55V0.85C3.33333 0.624566 3.24554 0.408365 3.08926 0.248959C2.93298 0.0895535 2.72101 0 2.5 0ZM19.1667 6.8H6.66667C6.44565 6.8 6.23369 6.88955 6.07741 7.04896C5.92113 7.20837 5.83333 7.42457 5.83333 7.65V9.35C5.83333 9.57543 5.92113 9.79164 6.07741 9.95104C6.23369 10.1104 6.44565 10.2 6.66667 10.2H19.1667C19.3877 10.2 19.5996 10.1104 19.7559 9.95104C19.9122 9.79164 20 9.57543 20 9.35V7.65C20 7.42457 19.9122 7.20837 19.7559 7.04896C19.5996 6.88955 19.3877 6.8 19.1667 6.8ZM2.5 6.8H0.833333C0.61232 6.8 0.400358 6.88955 0.244078 7.04896C0.0877975 7.20837 0 7.42457 0 7.65V9.35C0 9.57543 0.0877975 9.79164 0.244078 9.95104C0.400358 10.1104 0.61232 10.2 0.833333 10.2H2.5C2.72101 10.2 2.93298 10.1104 3.08926 9.95104C3.24554 9.79164 3.33333 9.57543 3.33333 9.35V7.65C3.33333 7.42457 3.24554 7.20837 3.08926 7.04896C2.93298 6.88955 2.72101 6.8 2.5 6.8ZM19.1667 13.6H6.66667C6.44565 13.6 6.23369 13.6896 6.07741 13.849C5.92113 14.0084 5.83333 14.2246 5.83333 14.45V16.15C5.83333 16.3754 5.92113 16.5916 6.07741 16.751C6.23369 16.9104 6.44565 17 6.66667 17H19.1667C19.3877 17 19.5996 16.9104 19.7559 16.751C19.9122 16.5916 20 16.3754 20 16.15V14.45C20 14.2246 19.9122 14.0084 19.7559 13.849C19.5996 13.6896 19.3877 13.6 19.1667 13.6ZM2.5 13.6H0.833333C0.61232 13.6 0.400358 13.6896 0.244078 13.849C0.0877975 14.0084 0 14.2246 0 14.45V16.15C0 16.3754 0.0877975 16.5916 0.244078 16.751C0.400358 16.9104 0.61232 17 0.833333 17H2.5C2.72101 17 2.93298 16.9104 3.08926 16.751C3.24554 16.5916 3.33333 16.3754 3.33333 16.15V14.45C3.33333 14.2246 3.24554 14.0084 3.08926 13.849C2.93298 13.6896 2.72101 13.6 2.5 13.6Z" fill="#EEEDEE"/>
</svg>
