<svg width="18" height="17" viewBox="0 0 18 17" fill="none" xmlns="http://www.w3.org/2000/svg">
<path id="Vector" d="M16.8001 7.26137L16.7455 7.30907L13.222 10.3841L12.9963 10.5811L13.0636 10.8731L14.119 15.4512L14.1194 15.4525C14.1529 15.5961 14.1433 15.7464 14.0919 15.8846C14.0404 16.0228 13.9494 16.1428 13.8301 16.2295C13.7109 16.3162 13.5687 16.3659 13.4214 16.3723C13.2743 16.3786 13.1286 16.3416 13.0024 16.2657C13.0022 16.2656 13.002 16.2655 13.0019 16.2654L9.0101 13.8442L8.75052 13.6868L8.49109 13.8445L4.50834 16.2654C4.50807 16.2655 4.5078 16.2657 4.50753 16.2658C4.38142 16.3416 4.2358 16.3786 4.0888 16.3723C3.94148 16.3659 3.7993 16.3162 3.68006 16.2295C3.56081 16.1428 3.46977 16.0228 3.41833 15.8846C3.36689 15.7464 3.35733 15.5961 3.39084 15.4525L3.39115 15.4512L4.44506 10.8777L4.51229 10.586L4.28684 10.389L0.762621 7.30928L0.762628 7.30927L0.760167 7.30715C0.648327 7.21069 0.567455 7.08336 0.527693 6.94113C0.487931 6.79889 0.491048 6.64808 0.536654 6.50761C0.582259 6.36714 0.668323 6.24326 0.784053 6.1515C0.899783 6.05975 1.04003 6.00421 1.1872 5.99184L1.18847 5.99173L5.83379 5.58939L6.1349 5.5633L6.25176 5.28457L8.06504 0.959575L8.06537 0.95879C8.12206 0.82291 8.2177 0.706843 8.34022 0.625203C8.46275 0.543562 8.60669 0.5 8.75392 0.5C8.90116 0.5 9.0451 0.543562 9.16763 0.625203C9.29015 0.706842 9.38579 0.822909 9.44248 0.95879L9.44302 0.96007L11.2618 5.28507L11.3788 5.56333L11.6795 5.58938L16.3233 5.99173L16.3246 5.99184C16.4717 6.00421 16.612 6.05975 16.7277 6.1515C16.8434 6.24326 16.9295 6.36714 16.9751 6.50761C17.0207 6.64808 17.0238 6.79889 16.9841 6.94112C16.9503 7.06187 16.8869 7.17187 16.8001 7.26137Z" stroke="white"/>
</svg>
