<svg width="21" height="22" viewBox="0 0 21 22" fill="none" xmlns="http://www.w3.org/2000/svg">
<path d="M4.28724 10.3535H1.08076C0.485877 10.3535 0 10.8394 0 11.4343V20.3233C0 20.9182 0.485877 21.4041 1.08076 21.4041H4.28724C4.88213 21.4041 5.368 20.9182 5.368 20.3233V11.4343C5.368 10.8394 4.88213 10.3535 4.28724 10.3535Z" fill="#2B82CF"/>
<path d="M18.773 11.3987H18.5814C19.5205 11.3987 20.2898 10.6293 20.2898 9.69029C20.2898 8.75124 19.5205 7.98194 18.5814 7.98194H13.1013C13.7772 6.9183 14.6944 5.21929 14.6944 3.8333C14.6944 1.63751 13.4922 0.416587 12.7073 0.277987C11.9224 0.137831 11.3478 0.556744 11.1204 1.2186C10.8931 1.88045 11.2949 3.13719 11.1391 3.58413C10.8993 4.27401 9.69084 5.19905 8.05256 7.3014C6.5887 9.1795 6.79738 11.3971 6.79738 11.3971V14.4307V17.4643V18.8768C6.79738 19.4623 7.27547 19.9404 7.86101 19.9404H18.0411C18.7216 19.9404 19.2791 19.3829 19.2791 18.7024C19.2791 18.0218 18.7216 17.4643 18.0411 17.4643H18.2155C19.0502 17.4643 19.7323 16.7822 19.7323 15.9475C19.7323 15.1128 19.0502 14.4307 18.2155 14.4307H18.773C19.6077 14.4307 20.2898 13.7486 20.2898 12.9139C20.2898 12.0823 19.6062 11.3987 18.773 11.3987Z" fill="#2B82CF"/>
</svg>
