<svg width="14" height="16" viewBox="0 0 14 16" fill="none" xmlns="http://www.w3.org/2000/svg">
<path d="M10.9209 9.92456C10.1709 9.92338 9.44657 10.1936 8.88504 10.684L6.02897 8.87517C6.20625 8.29901 6.20625 7.68392 6.02897 7.10777L8.88504 5.29894C9.44096 5.7809 10.1548 6.04834 10.8949 6.05193C11.6349 6.05552 12.3514 5.79503 12.9121 5.31849C13.4728 4.84195 13.8399 4.1815 13.9458 3.45891C14.0517 2.73633 13.8892 2.00034 13.4882 1.38667C13.0873 0.772992 12.475 0.323011 11.7641 0.119699C11.0533 -0.0836139 10.292 -0.0265474 9.62045 0.280375C8.94893 0.587298 8.41254 1.12338 8.11018 1.78977C7.80783 2.45616 7.7599 3.20792 7.97524 3.90642L5.11847 5.71318C4.67422 5.32587 4.12607 5.07332 3.53986 4.98584C2.95366 4.89837 2.35431 4.9797 1.81382 5.22006C1.27332 5.46042 0.814653 5.8496 0.492903 6.34085C0.171153 6.83209 0 7.40453 0 7.9894C0 8.57426 0.171153 9.1467 0.492903 9.63795C0.814653 10.1292 1.27332 10.5184 1.81382 10.7587C2.35431 10.9991 2.95366 11.0804 3.53986 10.9929C4.12607 10.9055 4.67422 10.6529 5.11847 10.2656L7.97454 12.0786C7.78609 12.69 7.7979 13.3444 8.00828 13.9488C8.21865 14.5532 8.61688 15.0768 9.14631 15.445C9.67574 15.8132 10.3094 16.0074 10.9571 15.9998C11.6049 15.9922 12.2337 15.7833 12.7541 15.4029C13.2746 15.0224 13.6601 14.4897 13.8559 13.8805C14.0518 13.2714 14.0479 12.6168 13.8448 12.01C13.6417 11.4032 13.2498 10.875 12.7249 10.5006C12.1999 10.1262 11.5687 9.9246 10.9209 9.92456ZM10.9209 1.63987C11.1977 1.63987 11.4683 1.72085 11.6985 1.87258C11.9287 2.0243 12.1081 2.23995 12.214 2.49225C12.32 2.74456 12.3477 3.02219 12.2937 3.29003C12.2397 3.55788 12.1064 3.80391 11.9106 3.99701C11.7149 4.19012 11.4655 4.32163 11.194 4.3749C10.9224 4.42818 10.641 4.40084 10.3853 4.29633C10.1295 4.19182 9.91089 4.01484 9.75709 3.78777C9.60329 3.56071 9.5212 3.29375 9.5212 3.02065C9.5212 2.65445 9.66867 2.30324 9.93116 2.04429C10.1937 1.78535 10.5497 1.63987 10.9209 1.63987ZM3.08262 9.37225C2.80579 9.37225 2.53518 9.29127 2.305 9.13955C2.07482 8.98782 1.89542 8.77217 1.78948 8.51987C1.68354 8.26756 1.65582 7.98993 1.70983 7.72209C1.76384 7.45424 1.89714 7.20821 2.09289 7.01511C2.28864 6.822 2.53805 6.69049 2.80956 6.63722C3.08107 6.58394 3.3625 6.61128 3.61826 6.71579C3.87402 6.8203 4.09262 6.99728 4.24642 7.22435C4.40022 7.45141 4.48231 7.71837 4.48231 7.99147C4.48231 8.35767 4.33485 8.70888 4.07235 8.96783C3.80986 9.22677 3.45385 9.37225 3.08262 9.37225ZM10.9209 14.3431C10.6441 14.3431 10.3734 14.2621 10.1433 14.1104C9.91308 13.9586 9.73368 13.743 9.62774 13.4907C9.5218 13.2384 9.49409 12.9607 9.54809 12.6929C9.6021 12.4251 9.73541 12.179 9.93116 11.9859C10.1269 11.7928 10.3763 11.6613 10.6478 11.608C10.9193 11.5548 11.2008 11.5821 11.4565 11.6866C11.7123 11.7911 11.9309 11.9681 12.0847 12.1952C12.2385 12.4222 12.3206 12.6892 12.3206 12.9623C12.3206 13.3285 12.1731 13.6797 11.9106 13.9386C11.6481 14.1976 11.2921 14.3431 10.9209 14.3431Z" fill="white"/>
</svg>
