<svg width="32" height="32" viewBox="0 0 32 32" fill="none" xmlns="http://www.w3.org/2000/svg">
<circle cx="16" cy="16" r="16" fill="#0860C6" fill-opacity="0.3"/>
<path d="M26.4149 11.3438C26.3003 10.888 26.0775 10.4876 25.7465 10.1426C25.4155 9.79753 25.0272 9.56641 24.5816 9.44922C24.1742 9.33203 23.5185 9.2474 22.6146 9.19531C21.7106 9.13021 20.8003 9.08464 19.8837 9.05859C18.967 9.03255 18.1649 9.01302 17.4774 9C16.7772 9 16.4271 9 16.4271 9C16.4271 9 16.077 9 15.3767 9C14.6892 9.01302 13.8872 9.03255 12.9705 9.05859C12.0538 9.08464 11.1435 9.13021 10.2396 9.19531C9.33565 9.2474 8.67998 9.33203 8.27257 9.44922C7.82697 9.56641 7.43866 9.79753 7.10764 10.1426C6.77662 10.4876 6.55382 10.888 6.43924 11.3438C6.32465 11.7604 6.23553 12.2682 6.17188 12.8672C6.12095 13.4531 6.08275 14.0163 6.05729 14.5566C6.03183 15.097 6.01273 15.556 6 15.9336C6 16.3242 6 16.5195 6 16.5195C6 16.5195 6 16.7083 6 17.0859C6.01273 17.4635 6.03183 17.9258 6.05729 18.4727C6.08275 19.0195 6.12095 19.5859 6.17188 20.1719C6.23553 20.7578 6.32465 21.2591 6.43924 21.6758C6.55382 22.1445 6.77662 22.5449 7.10764 22.877C7.43866 23.209 7.82697 23.4336 8.27257 23.5508C8.67998 23.668 9.33565 23.7526 10.2396 23.8047C11.1435 23.8698 12.0538 23.9154 12.9705 23.9414C13.8872 23.9674 14.6892 23.987 15.3767 24C16.077 24 16.4271 24 16.4271 24C16.4271 24 16.7772 24 17.4774 24C18.1649 23.987 18.967 23.9674 19.8837 23.9414C20.8003 23.9154 21.7106 23.8698 22.6146 23.8047C23.5185 23.7526 24.1742 23.668 24.5816 23.5508C25.0272 23.4336 25.4155 23.209 25.7465 22.877C26.0775 22.5449 26.3003 22.1445 26.4149 21.6758C26.5295 21.2591 26.6186 20.7578 26.6823 20.1719C26.7332 19.5859 26.7714 19.0195 26.7969 18.4727C26.8223 17.9258 26.8414 17.4635 26.8542 17.0859C26.8542 16.7083 26.8542 16.5195 26.8542 16.5195C26.8542 16.5195 26.8542 16.3242 26.8542 15.9336C26.8414 15.556 26.8223 15.097 26.7969 14.5566C26.7714 14.0163 26.7332 13.4531 26.6823 12.8672C26.6186 12.2682 26.5295 11.7604 26.4149 11.3438ZM14.2882 19.6836V13.3359L19.75 16.5195L14.2882 19.6836Z" fill="white"/>
</svg>
