<svg width="9" height="9" viewBox="0 0 9 9"  xmlns="http://www.w3.org/2000/svg">
<path d="M9 0.710476V6.86793C9 7.05636 8.92515 7.23707 8.79193 7.37031C8.65871 7.50355 8.47802 7.57841 8.28962 7.57841C8.10121 7.57841 7.92052 7.50355 7.7873 7.37031C7.65408 7.23707 7.57924 7.05636 7.57924 6.86793V2.42746L1.2148 8.79155C1.08135 8.92502 0.900346 9 0.711615 9C0.522883 9 0.341881 8.92502 0.208427 8.79155C0.0749735 8.65807 0 8.47705 0 8.28829C0 8.09953 0.0749735 7.91851 0.208427 7.78504L6.57286 1.42095H2.13297C1.94457 1.42095 1.76388 1.3461 1.63065 1.21286C1.49743 1.07962 1.42259 0.898906 1.42259 0.710476C1.42259 0.522046 1.49743 0.341333 1.63065 0.208093C1.76388 0.0748534 1.94457 0 2.13297 0H8.28962C8.47802 0 8.65871 0.0748534 8.79193 0.208093C8.92515 0.341333 9 0.522046 9 0.710476Z"/>
</svg>
