<svg width="24" height="24" viewBox="0 0 24 24" fill="none" xmlns="http://www.w3.org/2000/svg">
<mask id="mask0_641_2743" style="mask-type:luminance" maskUnits="userSpaceOnUse" x="0" y="0" width="24" height="24">
<path d="M0 12C0 18.6169 5.38311 24 12 24C18.6169 24 24 18.6169 24 12C24 5.38311 18.6169 0 12 0C5.38311 0 0 5.38311 0 12Z" fill="white"/>
</mask>
<g mask="url(#mask0_641_2743)">
<path d="M12 24C5.38311 24 0 18.6168 0 12C0 5.38311 5.38311 0 12 0C18.6168 0 24 5.38311 24 12C24 18.6168 18.6168 24 12 24Z" fill="#4D4951"/>
<path d="M11.9502 23.9775C5.33331 23.9775 -0.0498047 18.5943 -0.0498047 11.9775C-0.0498047 5.36065 5.33331 -0.0224609 11.9502 -0.0224609C18.567 -0.0224609 23.9502 5.36065 23.9502 11.9775C23.9502 18.5943 18.567 23.9775 11.9502 23.9775Z" fill="#4D4951"/>
<path d="M21.3383 35.345L7.13867 20.5695L17.115 16.2179L28.9096 28.0125L21.3383 35.345Z" fill="#3D3941"/>
<path d="M17.2218 16.3746C17.2218 17.0255 14.9603 17.5532 12.1704 17.5532C9.38072 17.5532 7.11914 17.0255 7.11914 16.3746C7.11914 15.7236 9.38072 15.1959 12.1704 15.1959C14.9603 15.1959 17.2218 15.7236 17.2218 16.3746Z" fill="#231815"/>
<path d="M9.84525 15.4335L8.53898 13.3154L8.11885 12.1455L6.92746 11.5617L6.00031 11.4909L5.62386 11.0632L4.52372 10.1753L5.76298 10.7491L6.17366 11.1596L6.93958 11.2059L7.80666 11.5528L6.95642 10.4833L6.03578 9.09032L4.47266 7.63984L6.26028 8.90521L7.13217 10.1616L8.5241 11.648L8.88995 13.0204L9.70257 13.9633L9.49349 13.3604L9.35142 12.2036L9.41818 11.3983L9.25018 10.633L9.23886 10.2314L9.08183 9.52506L8.85554 8.94638L8.3569 8.36753L7.80755 6.34034L8.57686 7.95231L8.93896 7.41347L9.05402 6.88729L9.7687 6.00159L9.31809 6.93853L9.17924 7.50455L8.78594 8.19829L9.1115 8.68579L9.34189 9.20431L9.5106 9.83039L9.78813 9.20547L9.89454 8.48749L10.1498 7.39163L10.1865 6.67812L10.561 6.10318L10.4203 5.50847L9.88678 4.61661L10.1829 3.17158L10.1415 4.59264L10.7029 5.49617L10.7645 5.6778L11.0621 5.09592L11.1995 4.64923L12.1981 3.69526L11.5 4.75431L11.331 5.23753L11.0382 5.99659L10.6016 6.81768L10.6234 7.13452L10.9751 6.49158L11.6089 5.65882L12.0297 4.77151L11.9543 5.3337L12.8657 4.51885L13.2401 3.92894L13.6127 2.26528L13.505 4.05095L13.1144 4.67775L12.1245 5.68662L11.2803 6.59639L10.9211 7.49823L10.5887 8.34712L10.5598 8.5235L10.7597 8.37172L11.0583 8.01024L11.4473 7.92611L11.7782 7.38094L12.5503 6.99602L12.0202 7.51525L11.7121 8.1539L11.1974 8.26076L10.9992 8.63258L10.4444 9.10574L10.0993 9.9459L9.98937 10.5391L10.5414 10.0549L10.7954 9.73735L11.7396 9.80303L12.163 9.70019L12.5162 9.29806L12.6705 8.90726L12.9851 8.71743L13.3259 8.64604L13.9837 7.52318L13.524 8.89826L13.0974 8.96394L12.8458 9.13791L12.6742 9.60367L12.3942 10.0505L10.943 10.1547L10.043 11.2631L9.93616 12.2664L9.97457 12.6699L10.3938 11.8056L11.3618 10.8336L12.3423 10.5193L13.2694 10.145L13.6879 9.47996L14.3615 9.02116L15.0545 8.76359L15.8045 7.94651L15.2666 8.94558L14.5751 9.29432L14.5099 9.43193L14.7171 9.49387L15.6069 9.3846L14.8502 9.76453L14.1741 9.82986L13.8972 9.94518L13.7494 10.2308L13.5239 10.6262L12.982 10.8975L11.567 11.2311L10.749 12.2135L10.2085 13.7247L10.3198 14.1851L10.626 15.7063L10.6498 15.9762L10.7493 16.0722L11.2773 15.1071L11.9642 13.699L12.2475 13.0874L13.6445 12.1463L14.631 11.8149L15.0942 11.1581L15.8863 10.8476L16.3047 10.4209L16.9212 9.24521L17.282 8.24472L18.5241 7.21963L17.5984 8.30372L17.2573 9.34922L16.6903 10.4404L17.1334 10.3859L18.1316 9.94982L19.1497 8.96002L19.5169 8.45835L19.3281 9.1626L18.3387 10.1345L17.2312 10.755L16.3612 11.2763L15.3606 11.6451L14.8348 12.2594L13.8553 12.6841L12.8217 13.5037L12.4784 14.2244L11.3498 17.1379L11.1617 18.6541L10.4856 18.9603L9.84525 15.4335Z" fill="white"/>
<path d="M7.11914 16.3745C7.11914 17.0255 9.38072 17.5532 12.1705 17.5532C14.9603 17.5532 17.2218 17.0255 17.2218 16.3745V20.4712C17.2218 21.1222 14.6802 19.5172 12.1705 19.5172C9.6669 19.5172 7.11914 21.1222 7.11914 20.4712V16.3745Z" fill="#BFA670"/>
</g>
</svg>
