<svg width="24" height="24" viewBox="0 0 24 24" fill="none" xmlns="http://www.w3.org/2000/svg">
<mask id="mask0_641_2669" style="mask-type:luminance" maskUnits="userSpaceOnUse" x="0" y="0" width="24" height="24">
<path d="M0 12C0 18.6168 5.3832 24 12 24C18.6168 24 24 18.6168 24 12C24 5.3832 18.6168 0 12 0C5.3832 0 0 5.3832 0 12Z" fill="white"/>
</mask>
<g mask="url(#mask0_641_2669)">
<path d="M12.001 23.9999C5.38417 23.9999 0.000976562 18.6167 0.000976562 11.9999C0.000976562 5.38308 5.38417 -0.00012207 12.001 -0.00012207C18.6178 -0.00012207 24.001 5.38308 24.001 11.9999C24.001 18.6167 18.6178 23.9999 12.001 23.9999Z" fill="#A5A6AD"/>
<path d="M17.4933 6.89075L16.6485 7.72594C17.6829 8.85154 18.3165 10.3515 18.3165 12.0003C18.3165 15.4875 15.4893 18.3171 11.9997 18.3171C10.3197 18.3171 6.74854 17.4963 6.74854 17.4963L17.2101 27.9579L27.8973 17.2707L17.4933 6.89075Z" fill="#94959C"/>
<path d="M12.0009 20.8897C7.10013 20.8897 3.11133 16.9009 3.11133 12.0001C3.11133 7.09927 7.10013 3.11047 12.0009 3.11047C16.9017 3.11047 20.8905 7.09927 20.8905 12.0001C20.8881 16.9009 16.9017 20.8897 12.0009 20.8897Z" fill="#DFE0EB"/>
<path d="M15.7082 12.0004C15.7082 13.5868 14.9282 14.878 13.9658 14.878C13.5458 14.878 13.1618 14.6332 12.8594 14.2228C13.7498 13.8748 14.381 13.0108 14.381 12.0004C14.381 10.99 13.7498 10.1236 12.8594 9.77556C13.1618 9.36516 13.5458 9.12036 13.9658 9.12036C14.9282 9.12276 15.7082 10.414 15.7082 12.0004Z" fill="#B88383"/>
<path d="M11.1384 14.2228C10.836 14.6332 10.452 14.878 10.032 14.878C9.07195 14.878 8.28955 13.5868 8.28955 12.0004C8.28955 10.4116 9.07195 9.12036 10.032 9.12036C10.452 9.12036 10.836 9.36516 11.1384 9.77556C10.248 10.1236 9.61675 10.99 9.61675 12.0004C9.61675 13.0108 10.248 13.8772 11.1384 14.2228Z" fill="#B88383"/>
<path d="M17.4576 12.0004C17.4576 14.3476 16.284 16.258 14.8416 16.258C14.1024 16.258 13.4376 15.7564 12.96 14.9524C13.2624 15.1924 13.6032 15.3268 13.9656 15.3268C15.1752 15.3268 16.1568 13.834 16.1568 11.998C16.1568 10.162 15.1752 8.66684 13.9656 8.66684C13.6032 8.66684 13.2624 8.80364 12.96 9.04124C13.4376 8.23964 14.1024 7.73804 14.8416 7.73804C16.284 7.74284 17.4576 9.65084 17.4576 12.0004Z" fill="#B8ABAB"/>
<path d="M10.032 15.3291C10.3944 15.3291 10.7352 15.1947 11.0376 14.9547C10.5624 15.7563 9.89524 16.2603 9.15844 16.2603C7.71364 16.2603 6.54004 14.3499 6.54004 12.0027C6.54004 9.65312 7.71364 7.74512 9.15844 7.74512C9.89524 7.74512 10.5624 8.24432 11.0376 9.04832C10.7352 8.81072 10.3944 8.67392 10.032 8.67392C8.82244 8.67392 7.84084 10.1667 7.84084 12.0051C7.83844 13.8363 8.82244 15.3291 10.032 15.3291Z" fill="#B8ABAB"/>
<path d="M19.9895 12.0004C19.9895 15.4468 18.2471 18.2524 16.1063 18.2524C14.8439 18.2524 13.7231 17.2756 13.0127 15.7708C13.5239 16.3564 14.1551 16.7092 14.8415 16.7092C16.5335 16.7092 17.9087 14.5948 17.9087 12.0004C17.9087 9.40357 16.5335 7.29157 14.8415 7.29157C14.1551 7.29157 13.5239 7.64197 13.0127 8.22997C13.7231 6.72277 14.8439 5.74597 16.1063 5.74597C18.2471 5.74597 19.9895 8.55157 19.9895 12.0004Z" fill="#B88383"/>
<path d="M10.9847 15.7731C10.2767 17.2779 9.15345 18.2547 7.89105 18.2547C5.75025 18.2547 4.01025 15.4491 4.01025 12.0027C4.01025 8.55389 5.75025 5.74829 7.89105 5.74829C9.15345 5.74829 10.2767 6.72509 10.9847 8.23229C10.4735 7.64669 9.84225 7.29389 9.15825 7.29389C7.46625 7.29389 6.08865 9.40589 6.08865 12.0027C6.08865 14.5995 7.46625 16.7115 9.15825 16.7115C9.84225 16.7115 10.4735 16.3587 10.9847 15.7731Z" fill="#B88383"/>
<path d="M11.9998 13.9083C10.9462 13.9083 10.0918 13.0515 10.0918 12.0003C10.0918 10.9491 10.9486 10.0923 11.9998 10.0923C13.051 10.0923 13.9078 10.9491 13.9078 12.0003C13.9078 13.0515 13.051 13.9083 11.9998 13.9083ZM11.9998 10.5435C11.1958 10.5435 10.5406 11.1987 10.5406 12.0027C10.5406 12.8067 11.1934 13.4619 11.9998 13.4619C12.8062 13.4619 13.459 12.8067 13.459 12.0027C13.4566 11.1963 12.8038 10.5435 11.9998 10.5435Z" fill="#B88383"/>
<path d="M11.9998 12.8595C12.4743 12.8595 12.859 12.4748 12.859 12.0003C12.859 11.5258 12.4743 11.1411 11.9998 11.1411C11.5253 11.1411 11.1406 11.5258 11.1406 12.0003C11.1406 12.4748 11.5253 12.8595 11.9998 12.8595Z" fill="#B88383"/>
</g>
</svg>
