<svg width="24" height="24" viewBox="0 0 24 24" fill="none" xmlns="http://www.w3.org/2000/svg">
<g clip-path="url(#clip0_641_2473)">
<g clip-path="url(#clip1_641_2473)">
<mask id="mask0_641_2473" style="mask-type:luminance" maskUnits="userSpaceOnUse" x="0" y="0" width="24" height="24">
<path d="M0 12C0 18.6275 5.37254 24 12 24C18.6274 24 24 18.6275 24 12C24 5.37263 18.6274 -5.72205e-06 12 -5.72205e-06C5.37254 -5.72205e-06 0 5.37263 0 12Z" fill="white"/>
</mask>
<g mask="url(#mask0_641_2473)">
<path d="M24 12.0001C24 18.6276 18.6275 24.0001 12 24.0001C5.37254 24.0001 0 18.6276 0 12.0001C0 5.37266 5.37254 0.000120163 12 0.000120163C18.6275 0.000120163 24 5.37266 24 12.0001Z" fill="#7E5641"/>
<path d="M15.8559 26.8898L6.47656 17.5105L17.5113 6.47576L26.8906 15.8551L15.8559 26.8898Z" fill="#664533"/>
<path d="M18.2754 18.2247H8.27535C6.89467 18.2247 5.77539 17.1055 5.77539 15.7248V5.72476H15.7754C17.1561 5.72476 18.2754 6.84403 18.2754 8.22472V18.2247Z" fill="#F0F0E6"/>
<path d="M8.20187 13.7482C7.9999 13.7482 7.84362 13.6929 7.7347 13.5826C7.69193 13.5393 7.69237 13.4696 7.73567 13.4267C7.77906 13.384 7.84882 13.3844 7.8916 13.4278C8.03597 13.5739 8.33848 13.5332 8.56664 13.4729C10.1508 13.0557 13.1736 10.5379 13.59 8.99678C13.6875 8.63607 13.6356 8.3519 13.4359 8.15214C13.0844 7.80069 12.2386 7.91719 11.1153 8.47176C10.1225 8.96177 9.00153 9.75799 8.25946 10.5001C7.62393 11.1356 7.34929 11.6506 7.54279 11.8441C7.58592 11.8871 7.58592 11.9569 7.54279 12C7.49975 12.043 7.42999 12.043 7.38695 12C7.27177 11.8848 7.1774 11.6633 7.38166 11.2618C7.51624 10.9974 7.75904 10.6886 8.10353 10.3441C9.48483 8.96291 12.6175 7.02202 13.5918 7.9963C13.8514 8.25586 13.9224 8.6119 13.8029 9.05428C13.597 9.8162 12.8096 10.831 11.6427 11.8383C10.5606 12.7725 9.40352 13.4805 8.62282 13.6862C8.46583 13.7275 8.32525 13.7482 8.20187 13.7482Z" fill="#392E2A"/>
<path d="M7.71269 12.1134C7.57934 12.1134 7.46672 12.0801 7.38734 12.0007C7.34421 11.9577 7.34421 11.8878 7.38734 11.8448C7.43038 11.8017 7.50014 11.8017 7.54318 11.8448C7.83625 12.1378 9.58127 11.2083 10.8977 9.89179C12.2689 8.52045 11.9877 7.94304 11.8031 7.75854C11.3996 7.35505 9.20882 8.05646 7.84983 9.19743C7.4287 9.551 7.2427 9.85536 7.35233 10.0116C7.38734 10.0616 7.37517 10.1304 7.32534 10.1653C7.27551 10.2004 7.20681 10.1881 7.17179 10.1383C7.03906 9.94894 7.02424 9.6026 7.70802 9.02854C8.26761 8.55881 9.16869 8.05064 10.0039 7.73402C10.5688 7.51988 11.5743 7.21782 11.959 7.60261C12.4553 8.09897 12.1339 8.96733 11.0536 10.0477C10.4517 10.6495 9.66928 11.2495 8.96046 11.6528C8.55583 11.883 8.06309 12.1134 7.71269 12.1134Z" fill="#392E2A"/>
<path d="M9.67061 8.87317C9.64459 8.87317 9.6184 8.864 9.59741 8.84539C9.5519 8.80491 9.54775 8.73523 9.58823 8.68972C9.82477 8.42347 10.1905 7.92817 9.98211 7.60211C9.79461 7.30878 9.22452 7.38471 8.37706 7.81572C8.32282 7.84341 8.25641 7.82171 8.2288 7.76739C8.2012 7.71315 8.22281 7.64674 8.27705 7.61913C9.26721 7.11554 9.90344 7.06977 10.1678 7.4834C10.3833 7.82048 10.2399 8.28826 9.75307 8.83613C9.73129 8.86065 9.70103 8.87317 9.67061 8.87317Z" fill="#392E2A"/>
<path d="M7.46175 10.2639C7.45257 10.2639 7.44367 10.2637 7.43485 10.2633C7.28783 10.256 7.21154 10.1919 7.17335 10.1392C7.13763 10.09 7.14857 10.021 7.19778 9.98522C7.24708 9.94959 7.31605 9.96053 7.35177 10.0097C7.36967 10.0343 7.41271 10.0414 7.44569 10.0431C7.84336 10.064 8.93177 9.42916 9.58908 8.68938C9.62956 8.64387 9.69924 8.63982 9.74466 8.68021C9.79017 8.7206 9.79431 8.79036 9.75392 8.83587C9.10304 9.56841 7.98245 10.2639 7.46175 10.2639Z" fill="#392E2A"/>
<path d="M10.6558 16.1476C10.4196 16.1476 10.2257 16.0857 10.0896 15.9496C10.0465 15.9065 10.0465 15.8368 10.0896 15.7937C10.1326 15.7506 10.2024 15.7506 10.2455 15.7937C10.7782 16.3264 12.8312 15.2802 14.4702 13.6413C15.1107 13.0008 15.5736 12.374 15.809 11.8286C16.0672 11.2301 16.0383 10.7667 15.7227 10.4511C14.6276 9.35608 11.286 11.2455 9.55601 12.9756C9.14916 13.3824 8.85133 13.7617 8.6947 14.0722C8.54168 14.3757 8.5281 14.5936 8.65448 14.72C8.69752 14.763 8.69752 14.8328 8.65448 14.8758C8.61135 14.9189 8.54159 14.9189 8.49855 14.8758C8.36027 14.7375 8.24782 14.4686 8.49785 13.9729C8.66489 13.6417 8.97683 13.2429 9.40008 12.8197C10.3209 11.8988 11.6223 10.9894 12.7964 10.4462C14.6234 9.601 15.4809 9.89751 15.8787 10.2953C16.259 10.6756 16.3049 11.236 16.0115 11.916C15.7652 12.4867 15.2861 13.1372 14.6261 13.7972C13.3506 15.0727 11.6391 16.1476 10.6558 16.1476Z" fill="#392E2A"/>
<path d="M12.3859 16.796C12.2435 16.796 12.1376 16.7601 12.0656 16.6882C12.0226 16.6451 12.0226 16.5754 12.0656 16.5323C12.1087 16.4892 12.1784 16.4892 12.2215 16.5323C12.2447 16.5553 12.3492 16.6231 12.725 16.5188C13.9823 16.1697 16.3343 14.4975 16.6443 13.2501C16.7329 12.8938 16.653 12.6041 16.4001 12.3646C15.4302 11.4464 12.2714 13.0756 10.8018 14.586C10.2566 15.1462 10.0484 15.5979 10.2448 15.7944C10.2879 15.8374 10.2879 15.9072 10.2448 15.9502C10.2017 15.9933 10.132 15.9933 10.0889 15.9502C9.78747 15.6488 9.98449 15.1097 10.6437 14.4322C11.3845 13.6709 12.576 12.8614 13.6794 12.3695C15.0151 11.7741 16.0351 11.7153 16.5516 12.2045C16.863 12.4994 16.9662 12.8691 16.8583 13.3032C16.5041 14.7284 13.9688 16.4022 12.784 16.7314C12.6286 16.7745 12.4963 16.796 12.3859 16.796Z" fill="#392E2A"/>
<path d="M12.1444 16.7198C12.1162 16.7198 12.0879 16.7091 12.0664 16.6876C11.9724 16.5935 11.8838 16.424 11.9956 16.1508C12.3808 15.2095 14.8523 13.737 16.064 13.7267C16.5153 13.7204 16.6995 13.9229 16.7719 14.0914C17.1551 14.9844 15.525 16.2761 15.0163 16.6507C14.9672 16.6867 14.8982 16.6764 14.862 16.6272C14.8259 16.5783 14.8364 16.5092 14.8855 16.4731C15.8209 15.7844 16.8232 14.7701 16.5693 14.1784C16.5034 14.0249 16.3378 13.9472 16.0771 13.9472C16.0734 13.9472 16.0696 13.9472 16.0659 13.9473C15.5414 13.9516 14.6831 14.2737 13.826 14.7876C12.9934 15.2869 12.3551 15.8547 12.1997 16.2343C12.1281 16.4091 12.1783 16.4876 12.2223 16.5316C12.2654 16.5747 12.2654 16.6445 12.2223 16.6876C12.2008 16.7091 12.1726 16.7198 12.1444 16.7198Z" fill="#392E2A"/>
<path d="M9.19867 15.1252C8.89837 15.1252 8.66377 15.0421 8.49779 14.8761C8.45475 14.8331 8.45475 14.7633 8.49779 14.7202C8.54092 14.6771 8.61068 14.6771 8.65372 14.7202C8.91221 14.9787 9.40011 14.9168 9.76382 14.8193C10.6404 14.5844 11.8505 13.8657 12.922 12.9435C14.0629 11.9614 14.8391 10.9439 15.0514 10.1514C15.1753 9.68876 15.1018 9.31764 14.8326 9.04856C14.4118 8.62787 13.673 8.71404 13.1272 8.86009C12.1618 9.11885 10.9194 9.79724 9.80377 10.675C8.73062 11.5193 7.96915 12.3977 7.81649 12.9674C7.76172 13.1721 7.78597 13.3225 7.89083 13.4274C7.93396 13.4705 7.93396 13.5402 7.89083 13.5833C7.8478 13.6264 7.77803 13.6264 7.735 13.5833C7.62281 13.4712 7.50895 13.2634 7.60359 12.9104C7.96589 11.558 10.9802 9.20713 13.0701 8.6471C13.9455 8.41259 14.5911 8.49505 14.9885 8.89263C15.3173 9.22151 15.4102 9.66424 15.2644 10.2085C14.7824 12.0071 11.691 14.5313 9.82088 15.0323C9.58946 15.0943 9.38185 15.1252 9.19867 15.1252Z" fill="#392E2A"/>
</g>
</g>
</g>
<defs>
<clipPath id="clip0_641_2473">
<rect width="24" height="24" fill="white"/>
</clipPath>
<clipPath id="clip1_641_2473">
<rect width="24" height="24" fill="white"/>
</clipPath>
</defs>
</svg>
