<svg width="24" height="24" viewBox="0 0 24 24" fill="none" xmlns="http://www.w3.org/2000/svg">
<mask id="mask0_641_2797" style="mask-type:luminance" maskUnits="userSpaceOnUse" x="0" y="0" width="24" height="24">
<path d="M0 12C0 18.6169 5.38311 24 12 24C18.6169 24 24 18.6169 24 12C24 5.38311 18.6169 7.46751e-07 12 7.46751e-07C5.38311 7.46751e-07 0 5.38311 0 12Z" fill="white"/>
</mask>
<g mask="url(#mask0_641_2797)">
<path d="M12 24C5.38311 24 0 18.6168 0 12C0 5.38311 5.38311 7.46751e-07 12 7.46751e-07C18.6168 7.46751e-07 24 5.38311 24 12C24 18.6168 18.6168 24 12 24Z" fill="#003237"/>
<path d="M12 24C5.38311 24 0 18.6168 0 12C0 5.38311 5.38311 7.46751e-07 12 7.46751e-07C18.6168 7.46751e-07 24 5.38311 24 12C24 18.6168 18.6168 24 12 24Z" fill="#003237"/>
<path d="M12.0054 16.6853L16.3409 14.7589V8.90772L11.9922 10.311L12.0054 16.6853Z" fill="#7D7D7D"/>
<path d="M12.005 16.6853L7.65918 14.7598V8.90853L12.0078 10.311L12.005 16.6853Z" fill="#F7F8F8"/>
<path d="M12.0046 10.311L7.65918 8.90869L12.0049 7.82005L16.3406 8.90779L12.0046 10.311Z" fill="#BFC0C0"/>
<path d="M12.0075 5.3054L5.36816 6.96852V15.9079L12.0075 19.2002L18.6313 15.9079V6.96718L12.0075 5.3054ZM12.0074 5.85671L18.0966 7.38437V15.5765L12.0072 18.6032L5.9029 15.5762V7.38588L12.0074 5.85671Z" fill="#A8FFC9"/>
<path d="M11.9254 9.51636L5.64307 7.50129L5.80643 6.99213L12.007 8.981L18.1931 6.9907L18.3569 7.49977L12.089 9.51636H11.9254Z" fill="#A8FFC9"/>
<path d="M12.2745 18.8257H11.7397V9.26172H12.2745V18.8257Z" fill="#A8FFC9"/>
<path d="M19.8904 30.6619L5.36816 15.9078L12.0074 19.2001L18.6313 15.9078L18.6315 6.96604L31.1088 19.4434L19.8904 30.6619Z" fill="#001E24"/>
</g>
</svg>
