<svg width="24" height="24" viewBox="0 0 24 24" fill="none" xmlns="http://www.w3.org/2000/svg">
<mask id="mask0_641_2900" style="mask-type:luminance" maskUnits="userSpaceOnUse" x="0" y="0" width="24" height="24">
<path d="M0 12C0 18.617 5.3832 24 12 24C18.6169 24 24 18.617 24 12C24 5.38313 18.6169 2.14168e-07 12 2.14168e-07C5.3832 2.14168e-07 0 5.38313 0 12Z" fill="white"/>
</mask>
<g mask="url(#mask0_641_2900)">
<path d="M12 23.9995C5.3832 23.9995 0 18.6163 0 11.9994C0 5.38264 5.3832 -0.000579828 12 -0.000579828C18.6169 -0.000579828 24 5.38264 24 11.9994C24 18.6163 18.6169 23.9995 12 23.9995Z" fill="#9D3A2E"/>
<path d="M24.1098 33.9095L12.0012 21.8008L12 19.7397L25.6438 32.3756L24.1098 33.9095Z" fill="#802D22"/>
<path d="M26.953 35.906L4.21484 13.2606L11.1592 11.9992L18.5282 8.53661L18.7915 5.35L38.1502 24.7088L26.953 35.906Z" fill="#802D22"/>
<path d="M17.7719 12.3425C18.858 12.2784 21.4119 11.0595 20.7721 8.66091C20.1772 10.047 18.4415 10.8728 17.3206 10.2339C19.2645 9.52113 21.2781 6.89146 17.39 4.05056C19.2497 7.03396 18.2778 9.29502 13.5466 9.29502H13.5416C12.9514 9.29502 12.6987 8.7003 12.6987 8.20371C12.6987 6.86695 13.1449 6.32142 13.8987 5.82492C13.2936 5.64801 12.9415 5.86422 12.6439 6.12963C11.4438 5.82492 10.1892 6.43925 9.54942 6.84226C8.96415 7.21087 9.47509 7.17656 10.1049 7.23556C11.057 7.32896 11.3942 7.91379 11.3942 8.4152C11.3942 8.77401 11.067 9.29502 10.452 9.29502C5.72079 9.29502 4.74882 7.03396 6.60854 4.05056C2.72047 6.89146 4.73402 9.52113 6.67797 10.2339C5.55707 10.8728 3.8214 10.047 3.22642 8.66091C2.58661 11.0595 5.1406 12.2784 6.22665 12.3425C5.27954 12.9519 4.24296 12.7947 3.46438 12.2784C4.74882 15.1342 9.58409 13.7825 10.5957 13.1239C12.3613 14.9376 9.61894 16.7465 9.32617 18.0884C9.87686 17.6804 10.3677 17.3854 11.0471 17.3264C10.5611 18.0588 10.2139 18.9139 10.0454 19.7791C10.4221 19.3171 10.9033 18.9926 11.5034 18.9434C11.5034 20.0297 11.6273 20.7768 11.9993 21.7992C12.3712 20.7768 12.5001 20.0297 12.5001 18.9434C13.0953 18.9926 13.5813 19.3171 13.9582 19.7791C13.7895 18.9139 13.4425 18.0588 12.9514 17.3264C13.6309 17.3854 14.1268 17.6804 14.6772 18.0884C14.3847 16.7465 11.6421 14.9376 13.4028 13.1239C14.4145 13.7825 19.2497 15.1342 20.5342 12.2784C19.7556 12.7947 18.719 12.9519 17.7719 12.3425Z" fill="#EBC54D"/>
</g>
</svg>
