<svg width="24" height="24" viewBox="0 0 24 24" fill="none" xmlns="http://www.w3.org/2000/svg">
<mask id="mask0_641_2872" style="mask-type:luminance" maskUnits="userSpaceOnUse" x="0" y="0" width="24" height="24">
<path d="M0 12C0 18.6169 5.3832 24 12 24C18.6169 24 24 18.6169 24 12C24 5.38311 18.6169 7.46751e-07 12 7.46751e-07C5.3832 7.46751e-07 0 5.38311 0 12Z" fill="white"/>
</mask>
<g mask="url(#mask0_641_2872)">
<path d="M12 24C5.3832 24 0 18.6168 0 12C0 5.38311 5.3832 7.46751e-07 12 7.46751e-07C18.6169 7.46751e-07 24 5.38311 24 12C24 18.6168 18.6169 24 12 24Z" fill="#BFA670"/>
<path d="M21.2975 33.7859L4.05176 16.6561L19.1642 6.61231L32.9338 22.1496L21.2975 33.7859Z" fill="#A28D5F"/>
<path d="M4.45703 8.38396L18.5553 7.1128L18.6516 17.8599L4.45703 16.3769V8.38396Z" fill="#F6F6F6"/>
<path d="M4.80754 9.0555C4.76761 9.06985 4.78027 9.09881 4.78027 9.12109C4.77965 9.56938 4.78027 10.0178 4.77911 10.466C4.77893 10.5249 4.77697 10.569 4.86057 10.566C5.53238 10.5423 6.20436 10.5223 6.87626 10.5004C6.8874 10.5001 6.89828 10.4919 6.92626 10.4804C6.2123 10.0002 5.5084 9.52678 4.80754 9.0555ZM17.8633 14.8222C17.8639 14.7326 17.8446 14.7013 17.7497 14.6973C17.0572 14.6693 16.365 14.6355 15.6727 14.6027C15.2167 14.5811 14.7608 14.5582 14.3048 14.5357C14.2515 14.5331 14.1982 14.5291 14.1338 14.5493C15.3675 15.3609 16.6014 16.1726 17.8555 16.9977C17.8706 16.2695 17.8546 15.5496 17.8633 14.8222ZM8.19216 11.3296C8.13031 11.2878 8.07042 11.27 7.99627 11.2715C6.95834 11.2918 5.92033 11.3107 4.88223 11.3264C4.80148 11.3277 4.77733 11.3478 4.77786 11.4309C4.78152 12.0289 4.78098 12.6269 4.77831 13.2249C4.77795 13.298 4.79471 13.3256 4.87314 13.3278C7.05157 13.3955 9.23009 13.4637 11.4088 13.5225C11.4125 13.5153 11.4164 13.5081 11.4201 13.5009C10.3453 12.7755 9.26698 12.0551 8.19216 11.3296ZM12.5424 13.5051C12.6037 13.5456 12.6645 13.5649 12.7386 13.567C14.4148 13.6173 16.091 13.6691 17.7674 13.7172C17.8485 13.7199 17.8629 13.6929 17.8627 13.6193C17.8603 12.8222 17.859 12.0251 17.8639 11.228C17.8646 11.1201 17.8094 11.1326 17.7415 11.1335C14.8874 11.1636 12.0336 11.2238 9.17964 11.2485C9.17813 11.2617 9.17652 11.275 9.17501 11.2882C10.2968 12.0282 11.4207 12.765 12.5424 13.5051ZM16.6153 16.9926C15.4035 16.1771 14.1908 15.3631 12.9798 14.5466C12.9013 14.4938 12.8238 14.4658 12.728 14.4616C10.1122 14.3479 7.49736 14.2147 4.88249 14.0835C4.79881 14.0786 4.77751 14.1016 4.77795 14.1842C4.78143 14.7487 4.78294 15.3133 4.77697 15.8778C4.77581 15.9844 4.81672 16.0099 4.90968 16.0175C8.84312 16.3678 12.7752 16.7272 16.7085 17.0804C16.6916 17.0253 16.6476 17.0143 16.6153 16.9926ZM5.28631 8.73109C6.13503 9.29034 6.98481 9.84807 7.833 10.4081C7.89164 10.4468 7.94823 10.463 8.0181 10.4606C10.0717 10.3886 12.1256 10.3259 14.1794 10.2645C15.3703 10.2268 16.5611 10.1863 17.752 10.15C17.8369 10.1474 17.8637 10.1249 17.8632 10.0364C17.8596 9.29319 17.8593 8.54999 17.8635 7.8068C17.864 7.71028 17.8384 7.69005 17.7447 7.69735C13.563 8.02337 9.37563 8.31141 5.19585 8.64616C5.20735 8.70043 5.25369 8.70961 5.28631 8.73109ZM4.02638 8.1124C4.02584 8.01668 4.03208 7.97176 4.15382 7.96659C6.74962 7.7363 9.34443 7.47553 11.941 7.24817C14.2945 7.02751 16.6489 6.81726 19.0022 6.5966C19.1783 6.57975 19.1779 6.57574 19.1779 6.75541C19.181 9.54505 19.1718 12.3349 19.1814 15.1243C19.1724 16.1455 19.1805 17.1668 19.1783 18.1881C19.1783 18.2615 19.1898 18.3254 19.0725 18.3109C18.6323 18.2563 18.1912 18.2098 17.7502 18.1626C14.7253 17.8432 11.7024 17.506 8.67744 17.1871C7.67311 17.0753 6.66816 16.9697 5.66312 16.8641C5.16501 16.8106 4.66744 16.7514 4.1688 16.7022C4.05891 16.6913 4.02388 16.6561 4.02513 16.5433C4.0303 16.0785 4.02495 15.6135 4.02344 15.1487C4.03458 12.8035 4.02691 10.4578 4.02638 8.1124Z" fill="#353E42"/>
</g>
</svg>
